%TF.GenerationSoftware,KiCad,Pcbnew,8.0.4*%
%TF.CreationDate,2024-11-13T12:07:51+05:30*%
%TF.ProjectId,cccccccc,63636363-6363-4636-932e-6b696361645f,rev?*%
%TF.SameCoordinates,Original*%
%TF.FileFunction,Copper,L2,Bot*%
%TF.FilePolarity,Positive*%
%FSLAX46Y46*%
G04 Gerber Fmt 4.6, Leading zero omitted, Abs format (unit mm)*
G04 Created by KiCad (PCBNEW 8.0.4) date 2024-11-13 12:07:51*
%MOMM*%
%LPD*%
G01*
G04 APERTURE LIST*
G04 Aperture macros list*
%AMRoundRect*
0 Rectangle with rounded corners*
0 $1 Rounding radius*
0 $2 $3 $4 $5 $6 $7 $8 $9 X,Y pos of 4 corners*
0 Add a 4 corners polygon primitive as box body*
4,1,4,$2,$3,$4,$5,$6,$7,$8,$9,$2,$3,0*
0 Add four circle primitives for the rounded corners*
1,1,$1+$1,$2,$3*
1,1,$1+$1,$4,$5*
1,1,$1+$1,$6,$7*
1,1,$1+$1,$8,$9*
0 Add four rect primitives between the rounded corners*
20,1,$1+$1,$2,$3,$4,$5,0*
20,1,$1+$1,$4,$5,$6,$7,0*
20,1,$1+$1,$6,$7,$8,$9,0*
20,1,$1+$1,$8,$9,$2,$3,0*%
G04 Aperture macros list end*
%TA.AperFunction,ComponentPad*%
%ADD10R,2.000000X2.000000*%
%TD*%
%TA.AperFunction,ComponentPad*%
%ADD11R,1.800000X1.800000*%
%TD*%
%TA.AperFunction,ComponentPad*%
%ADD12C,1.800000*%
%TD*%
%TA.AperFunction,ComponentPad*%
%ADD13R,3.000000X3.000000*%
%TD*%
%TA.AperFunction,ComponentPad*%
%ADD14C,3.000000*%
%TD*%
%TA.AperFunction,ComponentPad*%
%ADD15C,2.500000*%
%TD*%
%TA.AperFunction,ComponentPad*%
%ADD16RoundRect,0.250000X-0.600000X-0.725000X0.600000X-0.725000X0.600000X0.725000X-0.600000X0.725000X0*%
%TD*%
%TA.AperFunction,ComponentPad*%
%ADD17O,1.700000X1.950000*%
%TD*%
%TA.AperFunction,ComponentPad*%
%ADD18R,3.200000X3.200000*%
%TD*%
%TA.AperFunction,ComponentPad*%
%ADD19O,3.200000X3.200000*%
%TD*%
%TA.AperFunction,ComponentPad*%
%ADD20R,1.600000X1.600000*%
%TD*%
%TA.AperFunction,ComponentPad*%
%ADD21O,1.600000X1.600000*%
%TD*%
%TA.AperFunction,ComponentPad*%
%ADD22R,1.500000X1.050000*%
%TD*%
%TA.AperFunction,ComponentPad*%
%ADD23O,1.500000X1.050000*%
%TD*%
%TA.AperFunction,ComponentPad*%
%ADD24R,1.700000X1.700000*%
%TD*%
%TA.AperFunction,ComponentPad*%
%ADD25O,1.700000X1.700000*%
%TD*%
%TA.AperFunction,ViaPad*%
%ADD26C,0.600000*%
%TD*%
%TA.AperFunction,Conductor*%
%ADD27C,0.300000*%
%TD*%
G04 APERTURE END LIST*
D10*
%TO.P,U1,4,-Vout*%
%TO.N,/GND_S*%
X168795000Y-97795000D03*
%TO.P,U1,3,+Vout*%
%TO.N,/VCC*%
X168795000Y-79795000D03*
%TO.P,U1,2,-Vin*%
%TO.N,/GND_S*%
X128795000Y-97795000D03*
%TO.P,U1,1,+Vin*%
%TO.N,/16V*%
X128795000Y-79795000D03*
%TD*%
D11*
%TO.P,power,1,K*%
%TO.N,/GND_S*%
X120150000Y-63340000D03*
D12*
%TO.P,power,2,A*%
%TO.N,Net-(Red1-A)*%
X120150000Y-60800000D03*
%TD*%
D11*
%TO.P,RL_S/g,1,K*%
%TO.N,/GND_S*%
X120150000Y-70840000D03*
D12*
%TO.P,RL_S/g,2,A*%
%TO.N,Net-(Green1-A)*%
X120150000Y-68300000D03*
%TD*%
D13*
%TO.P,Output_16v1,1,Pin_1*%
%TO.N,/GND_S*%
X134380000Y-59000000D03*
D14*
%TO.P,Output_16v1,2,Pin_2*%
%TO.N,Net-(Output_16v1-Pin_2)*%
X129300000Y-59000000D03*
%TD*%
%TO.P,K1,1*%
%TO.N,/16V*%
X155960000Y-60720000D03*
D15*
%TO.P,K1,2*%
%TO.N,Net-(D1-A)*%
X154010000Y-54670000D03*
D14*
%TO.P,K1,3*%
%TO.N,Net-(Output_16v1-Pin_2)*%
X141810000Y-54670000D03*
%TO.P,K1,4*%
%TO.N,unconnected-(K1-Pad4)*%
X141760000Y-66720000D03*
D15*
%TO.P,K1,5*%
%TO.N,/VCC*%
X154010000Y-66670000D03*
%TD*%
D16*
%TO.P,IR_sensor1,1,Pin_1*%
%TO.N,/pin_2_IR*%
X161100000Y-56630000D03*
D17*
%TO.P,IR_sensor1,2,Pin_2*%
%TO.N,/VCC*%
X163600000Y-56630000D03*
%TO.P,IR_sensor1,3,Pin_3*%
%TO.N,/GND_S*%
X166100000Y-56630000D03*
%TD*%
D18*
%TO.P,D1,1,K*%
%TO.N,/VCC*%
X166490000Y-73540000D03*
D19*
%TO.P,D1,2,A*%
%TO.N,Net-(D1-A)*%
X153790000Y-73540000D03*
%TD*%
D20*
%TO.P,U3,1*%
%TO.N,Net-(R1-Pad2)*%
X127080000Y-66975000D03*
D21*
%TO.P,U3,2*%
%TO.N,Net-(Green1-A)*%
X127080000Y-69515000D03*
%TO.P,U3,3*%
%TO.N,Net-(R3-Pad1)*%
X134700000Y-69515000D03*
%TO.P,U3,4*%
%TO.N,/VCC*%
X134700000Y-66975000D03*
%TD*%
D22*
%TO.P,Q1,1,C*%
%TO.N,Net-(D1-A)*%
X143482500Y-75390000D03*
D23*
%TO.P,Q1,2,B*%
%TO.N,Net-(Q1-B)*%
X143482500Y-74120000D03*
%TO.P,Q1,3,E*%
%TO.N,/GND_S*%
X143482500Y-72850000D03*
%TD*%
D24*
%TO.P,J1,1,Pin_1*%
%TO.N,/VCC*%
X172550000Y-61725000D03*
D25*
%TO.P,J1,2,Pin_2*%
%TO.N,/pin_2_IR*%
X172550000Y-64265000D03*
%TO.P,J1,3,Pin_3*%
%TO.N,/pin3*%
X172550000Y-66805000D03*
%TO.P,J1,4,Pin_4*%
%TO.N,/pin_4*%
X172550000Y-69345000D03*
%TO.P,J1,5,Pin_5*%
%TO.N,/Relay_Signal_5*%
X172550000Y-71885000D03*
%TO.P,J1,6,Pin_6*%
%TO.N,/pin_6*%
X172550000Y-74425000D03*
%TO.P,J1,7,Pin_7*%
%TO.N,/pin_7*%
X172550000Y-76965000D03*
%TO.P,J1,8,Pin_8*%
%TO.N,/GND_S*%
X172550000Y-79505000D03*
%TD*%
D13*
%TO.P,V_input1,1,Pin_1*%
%TO.N,/GND_S*%
X122810000Y-85260000D03*
D14*
%TO.P,V_input1,2,Pin_2*%
%TO.N,/16V*%
X122810000Y-90340000D03*
%TD*%
D26*
%TO.N,/VCC*%
X135920000Y-76160000D03*
X161740000Y-63740000D03*
%TO.N,/GND_S*%
X167350000Y-63700000D03*
%TO.N,/pin_7*%
X166800000Y-64950000D03*
%TO.N,/pin_6*%
X166970000Y-66290000D03*
%TO.N,/pin3*%
X166590000Y-62390000D03*
%TO.N,/Relay_Signal_5*%
X135790000Y-72690000D03*
X169180000Y-66780000D03*
X164640000Y-67510000D03*
%TO.N,Net-(R1-Pad2)*%
X138852500Y-72680000D03*
%TD*%
D27*
%TO.N,/GND_S*%
X165940000Y-62890000D02*
X165940000Y-56790000D01*
X166835000Y-63720000D02*
X166855000Y-63700000D01*
X166770000Y-63720000D02*
X165940000Y-62890000D01*
X165940000Y-56790000D02*
X166100000Y-56630000D01*
X166855000Y-63700000D02*
X167300000Y-63700000D01*
X166835000Y-63720000D02*
X166770000Y-63720000D01*
%TO.N,/pin_7*%
X172550000Y-76965000D02*
X170520000Y-74935000D01*
X166320000Y-68910000D02*
X166320000Y-65430000D01*
X170520000Y-74580000D02*
X169550000Y-73610000D01*
X169550000Y-73610000D02*
X169550000Y-72140000D01*
X166320000Y-65430000D02*
X166800000Y-64950000D01*
X170520000Y-74935000D02*
X170520000Y-74580000D01*
X169550000Y-72140000D02*
X166320000Y-68910000D01*
%TO.N,/pin_6*%
X166970000Y-66290000D02*
X170050000Y-69370000D01*
X170050000Y-69370000D02*
X170050000Y-71960000D01*
X170050000Y-71960000D02*
X170085000Y-71960000D01*
X170085000Y-71960000D02*
X172550000Y-74425000D01*
%TO.N,/pin3*%
X172550000Y-66805000D02*
X168135000Y-62390000D01*
X168135000Y-62390000D02*
X166590000Y-62390000D01*
%TO.N,/Relay_Signal_5*%
X164640000Y-67510000D02*
X155432742Y-67510000D01*
X135905000Y-71975000D02*
X135700000Y-72180000D01*
X135700000Y-72600000D02*
X135790000Y-72690000D01*
X169180000Y-66780000D02*
X169900000Y-67500000D01*
X169900000Y-67500000D02*
X169900000Y-68392057D01*
X135700000Y-72180000D02*
X135700000Y-72600000D01*
X150967742Y-71975000D02*
X135905000Y-71975000D01*
X155432742Y-67510000D02*
X150967742Y-71975000D01*
X169900000Y-68392057D02*
X172550000Y-71042057D01*
X172550000Y-71042057D02*
X172550000Y-71885000D01*
%TO.N,Net-(R1-Pad2)*%
X127765000Y-66975000D02*
X127080000Y-66975000D01*
X134515000Y-74410000D02*
X127080000Y-66975000D01*
X137122500Y-74410000D02*
X134515000Y-74410000D01*
X138852500Y-72680000D02*
X137122500Y-74410000D01*
%TD*%
%TA.AperFunction,Conductor*%
%TO.N,/VCC*%
G36*
X171426355Y-51050185D02*
G01*
X171472110Y-51102989D01*
X171482054Y-51172147D01*
X171453029Y-51235703D01*
X171403755Y-51270262D01*
X171394601Y-51273776D01*
X171384260Y-51277746D01*
X171057343Y-51444320D01*
X170749635Y-51644147D01*
X170464498Y-51875047D01*
X170464490Y-51875054D01*
X170205054Y-52134490D01*
X170205047Y-52134498D01*
X169974147Y-52419635D01*
X169774320Y-52727343D01*
X169607746Y-53054260D01*
X169476260Y-53396793D01*
X169381294Y-53751209D01*
X169381294Y-53751211D01*
X169323898Y-54113594D01*
X169304696Y-54479999D01*
X169304696Y-54480000D01*
X169323898Y-54846405D01*
X169379711Y-55198794D01*
X169381295Y-55208794D01*
X169473578Y-55553199D01*
X169476260Y-55563206D01*
X169607746Y-55905739D01*
X169774320Y-56232656D01*
X169974147Y-56540364D01*
X170137117Y-56741615D01*
X170205051Y-56825506D01*
X170464494Y-57084949D01*
X170464498Y-57084952D01*
X170749635Y-57315852D01*
X171045206Y-57507797D01*
X171057348Y-57515682D01*
X171384264Y-57682255D01*
X171726801Y-57813742D01*
X172081206Y-57908705D01*
X172443596Y-57966102D01*
X172789734Y-57984241D01*
X172809999Y-57985304D01*
X172810000Y-57985304D01*
X172810001Y-57985304D01*
X172829203Y-57984297D01*
X173176404Y-57966102D01*
X173538794Y-57908705D01*
X173893199Y-57813742D01*
X174235736Y-57682255D01*
X174562652Y-57515682D01*
X174870366Y-57315851D01*
X175155506Y-57084949D01*
X175414949Y-56825506D01*
X175459134Y-56770941D01*
X175516621Y-56731231D01*
X175586452Y-56728903D01*
X175646456Y-56764698D01*
X175677582Y-56827252D01*
X175679500Y-56848978D01*
X175679500Y-97729683D01*
X175659815Y-97796722D01*
X175607011Y-97842477D01*
X175537853Y-97852421D01*
X175474297Y-97823396D01*
X175467819Y-97817364D01*
X175345509Y-97695054D01*
X175345501Y-97695047D01*
X175060364Y-97464147D01*
X174752656Y-97264320D01*
X174425739Y-97097746D01*
X174083206Y-96966260D01*
X174083199Y-96966258D01*
X173728794Y-96871295D01*
X173728790Y-96871294D01*
X173728789Y-96871294D01*
X173366405Y-96813898D01*
X173000001Y-96794696D01*
X172999999Y-96794696D01*
X172633594Y-96813898D01*
X172271211Y-96871294D01*
X172271209Y-96871294D01*
X171916793Y-96966260D01*
X171574260Y-97097746D01*
X171247343Y-97264320D01*
X170939635Y-97464147D01*
X170654498Y-97695047D01*
X170654490Y-97695054D01*
X170507180Y-97842365D01*
X170445857Y-97875850D01*
X170376165Y-97870866D01*
X170320232Y-97828994D01*
X170295815Y-97763530D01*
X170295499Y-97754684D01*
X170295499Y-96747129D01*
X170295498Y-96747123D01*
X170295497Y-96747116D01*
X170289091Y-96687517D01*
X170238796Y-96552669D01*
X170238795Y-96552668D01*
X170238793Y-96552664D01*
X170152547Y-96437455D01*
X170152544Y-96437452D01*
X170037335Y-96351206D01*
X170037328Y-96351202D01*
X169902482Y-96300908D01*
X169902483Y-96300908D01*
X169842883Y-96294501D01*
X169842881Y-96294500D01*
X169842873Y-96294500D01*
X169842864Y-96294500D01*
X167747129Y-96294500D01*
X167747123Y-96294501D01*
X167687516Y-96300908D01*
X167552671Y-96351202D01*
X167552664Y-96351206D01*
X167437455Y-96437452D01*
X167437452Y-96437455D01*
X167351206Y-96552664D01*
X167351202Y-96552671D01*
X167300908Y-96687517D01*
X167294501Y-96747116D01*
X167294501Y-96747123D01*
X167294500Y-96747135D01*
X167294500Y-98842870D01*
X167294501Y-98842876D01*
X167300908Y-98902483D01*
X167351202Y-99037328D01*
X167351206Y-99037335D01*
X167437452Y-99152544D01*
X167437455Y-99152547D01*
X167552664Y-99238793D01*
X167552671Y-99238797D01*
X167687517Y-99289091D01*
X167687516Y-99289091D01*
X167694444Y-99289835D01*
X167747127Y-99295500D01*
X169483570Y-99295499D01*
X169550609Y-99315184D01*
X169596364Y-99367987D01*
X169606308Y-99437146D01*
X169603345Y-99451592D01*
X169571295Y-99571204D01*
X169571294Y-99571211D01*
X169513898Y-99933594D01*
X169494696Y-100299999D01*
X169494696Y-100300000D01*
X169513898Y-100666405D01*
X169571294Y-101028788D01*
X169571294Y-101028790D01*
X169666260Y-101383206D01*
X169797746Y-101725739D01*
X169964320Y-102052656D01*
X170164147Y-102360364D01*
X170395047Y-102645501D01*
X170395054Y-102645509D01*
X170457364Y-102707819D01*
X170490849Y-102769142D01*
X170485865Y-102838834D01*
X170443993Y-102894767D01*
X170378529Y-102919184D01*
X170369683Y-102919500D01*
X116244500Y-102919500D01*
X116177461Y-102899815D01*
X116131706Y-102847011D01*
X116120500Y-102795500D01*
X116120500Y-98799999D01*
X117964696Y-98799999D01*
X117964696Y-98800000D01*
X117983898Y-99166405D01*
X118041294Y-99528788D01*
X118041294Y-99528790D01*
X118136260Y-99883206D01*
X118267746Y-100225739D01*
X118434320Y-100552656D01*
X118634147Y-100860364D01*
X118770536Y-101028790D01*
X118865051Y-101145506D01*
X119124494Y-101404949D01*
X119124498Y-101404952D01*
X119409635Y-101635852D01*
X119717343Y-101835679D01*
X119717348Y-101835682D01*
X120044264Y-102002255D01*
X120386801Y-102133742D01*
X120741206Y-102228705D01*
X121103596Y-102286102D01*
X121449734Y-102304241D01*
X121469999Y-102305304D01*
X121470000Y-102305304D01*
X121470001Y-102305304D01*
X121489203Y-102304297D01*
X121836404Y-102286102D01*
X122198794Y-102228705D01*
X122553199Y-102133742D01*
X122895736Y-102002255D01*
X123222652Y-101835682D01*
X123530366Y-101635851D01*
X123815506Y-101404949D01*
X124074949Y-101145506D01*
X124305851Y-100860366D01*
X124505682Y-100552652D01*
X124672255Y-100225736D01*
X124803742Y-99883199D01*
X124898705Y-99528794D01*
X124956102Y-99166404D01*
X124975304Y-98800000D01*
X124956102Y-98433596D01*
X124898705Y-98071206D01*
X124803742Y-97716801D01*
X124672255Y-97374264D01*
X124505682Y-97047348D01*
X124393175Y-96874102D01*
X124310723Y-96747135D01*
X127294500Y-96747135D01*
X127294500Y-98842870D01*
X127294501Y-98842876D01*
X127300908Y-98902483D01*
X127351202Y-99037328D01*
X127351206Y-99037335D01*
X127437452Y-99152544D01*
X127437455Y-99152547D01*
X127552664Y-99238793D01*
X127552671Y-99238797D01*
X127687517Y-99289091D01*
X127687516Y-99289091D01*
X127694444Y-99289835D01*
X127747127Y-99295500D01*
X129842872Y-99295499D01*
X129902483Y-99289091D01*
X130037331Y-99238796D01*
X130152546Y-99152546D01*
X130238796Y-99037331D01*
X130289091Y-98902483D01*
X130295500Y-98842873D01*
X130295499Y-96747128D01*
X130289091Y-96687517D01*
X130238796Y-96552669D01*
X130238795Y-96552668D01*
X130238793Y-96552664D01*
X130152547Y-96437455D01*
X130152544Y-96437452D01*
X130037335Y-96351206D01*
X130037328Y-96351202D01*
X129902482Y-96300908D01*
X129902483Y-96300908D01*
X129842883Y-96294501D01*
X129842881Y-96294500D01*
X129842873Y-96294500D01*
X129842864Y-96294500D01*
X127747129Y-96294500D01*
X127747123Y-96294501D01*
X127687516Y-96300908D01*
X127552671Y-96351202D01*
X127552664Y-96351206D01*
X127437455Y-96437452D01*
X127437452Y-96437455D01*
X127351206Y-96552664D01*
X127351202Y-96552671D01*
X127300908Y-96687517D01*
X127294501Y-96747116D01*
X127294501Y-96747123D01*
X127294500Y-96747135D01*
X124310723Y-96747135D01*
X124305852Y-96739635D01*
X124154450Y-96552669D01*
X124074949Y-96454494D01*
X123815506Y-96195051D01*
X123530366Y-95964149D01*
X123530364Y-95964147D01*
X123222656Y-95764320D01*
X122895739Y-95597746D01*
X122553206Y-95466260D01*
X122553199Y-95466258D01*
X122198794Y-95371295D01*
X122198790Y-95371294D01*
X122198789Y-95371294D01*
X121836405Y-95313898D01*
X121470001Y-95294696D01*
X121469999Y-95294696D01*
X121103594Y-95313898D01*
X120741211Y-95371294D01*
X120741209Y-95371294D01*
X120386793Y-95466260D01*
X120044260Y-95597746D01*
X119717343Y-95764320D01*
X119409635Y-95964147D01*
X119124498Y-96195047D01*
X119124490Y-96195054D01*
X118865054Y-96454490D01*
X118865047Y-96454498D01*
X118634147Y-96739635D01*
X118434320Y-97047343D01*
X118267746Y-97374260D01*
X118136260Y-97716793D01*
X118041294Y-98071209D01*
X118041294Y-98071211D01*
X117983898Y-98433594D01*
X117964696Y-98799999D01*
X116120500Y-98799999D01*
X116120500Y-90339998D01*
X120804390Y-90339998D01*
X120804390Y-90340001D01*
X120824804Y-90625433D01*
X120885628Y-90905037D01*
X120985635Y-91173166D01*
X121122770Y-91424309D01*
X121122775Y-91424317D01*
X121294254Y-91653387D01*
X121294270Y-91653405D01*
X121496594Y-91855729D01*
X121496612Y-91855745D01*
X121725682Y-92027224D01*
X121725690Y-92027229D01*
X121976833Y-92164364D01*
X121976832Y-92164364D01*
X121976836Y-92164365D01*
X121976839Y-92164367D01*
X122244954Y-92264369D01*
X122244960Y-92264370D01*
X122244962Y-92264371D01*
X122524566Y-92325195D01*
X122524568Y-92325195D01*
X122524572Y-92325196D01*
X122778220Y-92343337D01*
X122809999Y-92345610D01*
X122810000Y-92345610D01*
X122810001Y-92345610D01*
X122838595Y-92343564D01*
X123095428Y-92325196D01*
X123375046Y-92264369D01*
X123643161Y-92164367D01*
X123894315Y-92027226D01*
X124123395Y-91855739D01*
X124325739Y-91653395D01*
X124497226Y-91424315D01*
X124634367Y-91173161D01*
X124734369Y-90905046D01*
X124795196Y-90625428D01*
X124815610Y-90340000D01*
X124795196Y-90054572D01*
X124734369Y-89774954D01*
X124634367Y-89506839D01*
X124497226Y-89255685D01*
X124497224Y-89255682D01*
X124325745Y-89026612D01*
X124325729Y-89026594D01*
X124123405Y-88824270D01*
X124123387Y-88824254D01*
X123894317Y-88652775D01*
X123894309Y-88652770D01*
X123643166Y-88515635D01*
X123643167Y-88515635D01*
X123535915Y-88475632D01*
X123375046Y-88415631D01*
X123375043Y-88415630D01*
X123375037Y-88415628D01*
X123095433Y-88354804D01*
X122810001Y-88334390D01*
X122809999Y-88334390D01*
X122524566Y-88354804D01*
X122244962Y-88415628D01*
X121976833Y-88515635D01*
X121725690Y-88652770D01*
X121725682Y-88652775D01*
X121496612Y-88824254D01*
X121496594Y-88824270D01*
X121294270Y-89026594D01*
X121294254Y-89026612D01*
X121122775Y-89255682D01*
X121122770Y-89255690D01*
X120985635Y-89506833D01*
X120885628Y-89774962D01*
X120824804Y-90054566D01*
X120804390Y-90339998D01*
X116120500Y-90339998D01*
X116120500Y-83712135D01*
X120809500Y-83712135D01*
X120809500Y-86807870D01*
X120809501Y-86807876D01*
X120815908Y-86867483D01*
X120866202Y-87002328D01*
X120866206Y-87002335D01*
X120952452Y-87117544D01*
X120952455Y-87117547D01*
X121067664Y-87203793D01*
X121067671Y-87203797D01*
X121202517Y-87254091D01*
X121202516Y-87254091D01*
X121209444Y-87254835D01*
X121262127Y-87260500D01*
X124357872Y-87260499D01*
X124417483Y-87254091D01*
X124552331Y-87203796D01*
X124667546Y-87117546D01*
X124753796Y-87002331D01*
X124804091Y-86867483D01*
X124810500Y-86807873D01*
X124810499Y-83712128D01*
X124804091Y-83652517D01*
X124753796Y-83517669D01*
X124753795Y-83517668D01*
X124753793Y-83517664D01*
X124667547Y-83402455D01*
X124667544Y-83402452D01*
X124552335Y-83316206D01*
X124552328Y-83316202D01*
X124417482Y-83265908D01*
X124417483Y-83265908D01*
X124357883Y-83259501D01*
X124357881Y-83259500D01*
X124357873Y-83259500D01*
X124357864Y-83259500D01*
X121262129Y-83259500D01*
X121262123Y-83259501D01*
X121202516Y-83265908D01*
X121067671Y-83316202D01*
X121067664Y-83316206D01*
X120952455Y-83402452D01*
X120952452Y-83402455D01*
X120866206Y-83517664D01*
X120866202Y-83517671D01*
X120815908Y-83652517D01*
X120809501Y-83712116D01*
X120809501Y-83712123D01*
X120809500Y-83712135D01*
X116120500Y-83712135D01*
X116120500Y-78747135D01*
X127294500Y-78747135D01*
X127294500Y-80842870D01*
X127294501Y-80842876D01*
X127300908Y-80902483D01*
X127351202Y-81037328D01*
X127351206Y-81037335D01*
X127437452Y-81152544D01*
X127437455Y-81152547D01*
X127552664Y-81238793D01*
X127552671Y-81238797D01*
X127687517Y-81289091D01*
X127687516Y-81289091D01*
X127694444Y-81289835D01*
X127747127Y-81295500D01*
X129842872Y-81295499D01*
X129902483Y-81289091D01*
X130037331Y-81238796D01*
X130152546Y-81152546D01*
X130238796Y-81037331D01*
X130289091Y-80902483D01*
X130295500Y-80842873D01*
X130295499Y-78747155D01*
X167295000Y-78747155D01*
X167295000Y-79545000D01*
X168506184Y-79545000D01*
X168490124Y-79561060D01*
X168439964Y-79647939D01*
X168414000Y-79744840D01*
X168414000Y-79845160D01*
X168439964Y-79942061D01*
X168490124Y-80028940D01*
X168506184Y-80045000D01*
X167295000Y-80045000D01*
X167295000Y-80842844D01*
X167301401Y-80902372D01*
X167301403Y-80902379D01*
X167351645Y-81037086D01*
X167351649Y-81037093D01*
X167437809Y-81152187D01*
X167437812Y-81152190D01*
X167552906Y-81238350D01*
X167552913Y-81238354D01*
X167687620Y-81288596D01*
X167687627Y-81288598D01*
X167747155Y-81294999D01*
X167747172Y-81295000D01*
X168545000Y-81295000D01*
X168545000Y-80083816D01*
X168561060Y-80099876D01*
X168647939Y-80150036D01*
X168744840Y-80176000D01*
X168845160Y-80176000D01*
X168942061Y-80150036D01*
X169028940Y-80099876D01*
X169045000Y-80083816D01*
X169045000Y-81295000D01*
X169842828Y-81295000D01*
X169842844Y-81294999D01*
X169902372Y-81288598D01*
X169902379Y-81288596D01*
X170037086Y-81238354D01*
X170037093Y-81238350D01*
X170152187Y-81152190D01*
X170152190Y-81152187D01*
X170238350Y-81037093D01*
X170238354Y-81037086D01*
X170288596Y-80902379D01*
X170288598Y-80902372D01*
X170294999Y-80842844D01*
X170295000Y-80842827D01*
X170295000Y-80045000D01*
X169083816Y-80045000D01*
X169099876Y-80028940D01*
X169150036Y-79942061D01*
X169176000Y-79845160D01*
X169176000Y-79744840D01*
X169150036Y-79647939D01*
X169099876Y-79561060D01*
X169083816Y-79545000D01*
X170295000Y-79545000D01*
X170295000Y-78747172D01*
X170294999Y-78747155D01*
X170288598Y-78687627D01*
X170288596Y-78687620D01*
X170238354Y-78552913D01*
X170238350Y-78552906D01*
X170152190Y-78437812D01*
X170152187Y-78437809D01*
X170037093Y-78351649D01*
X170037086Y-78351645D01*
X169902379Y-78301403D01*
X169902372Y-78301401D01*
X169842844Y-78295000D01*
X169045000Y-78295000D01*
X169045000Y-79506184D01*
X169028940Y-79490124D01*
X168942061Y-79439964D01*
X168845160Y-79414000D01*
X168744840Y-79414000D01*
X168647939Y-79439964D01*
X168561060Y-79490124D01*
X168545000Y-79506184D01*
X168545000Y-78295000D01*
X167747155Y-78295000D01*
X167687627Y-78301401D01*
X167687620Y-78301403D01*
X167552913Y-78351645D01*
X167552906Y-78351649D01*
X167437812Y-78437809D01*
X167437809Y-78437812D01*
X167351649Y-78552906D01*
X167351645Y-78552913D01*
X167301403Y-78687620D01*
X167301401Y-78687627D01*
X167295000Y-78747155D01*
X130295499Y-78747155D01*
X130295499Y-78747128D01*
X130289091Y-78687517D01*
X130238884Y-78552906D01*
X130238797Y-78552671D01*
X130238793Y-78552664D01*
X130152547Y-78437455D01*
X130152544Y-78437452D01*
X130037335Y-78351206D01*
X130037328Y-78351202D01*
X129902482Y-78300908D01*
X129902483Y-78300908D01*
X129842883Y-78294501D01*
X129842881Y-78294500D01*
X129842873Y-78294500D01*
X129842864Y-78294500D01*
X127747129Y-78294500D01*
X127747123Y-78294501D01*
X127687516Y-78300908D01*
X127552671Y-78351202D01*
X127552664Y-78351206D01*
X127437455Y-78437452D01*
X127437452Y-78437455D01*
X127351206Y-78552664D01*
X127351202Y-78552671D01*
X127300908Y-78687517D01*
X127294501Y-78747116D01*
X127294501Y-78747123D01*
X127294500Y-78747135D01*
X116120500Y-78747135D01*
X116120500Y-68299993D01*
X118744700Y-68299993D01*
X118744700Y-68300006D01*
X118763864Y-68531297D01*
X118763866Y-68531308D01*
X118820842Y-68756300D01*
X118914075Y-68968848D01*
X119041016Y-69163147D01*
X119041019Y-69163151D01*
X119041021Y-69163153D01*
X119135803Y-69266114D01*
X119166724Y-69328767D01*
X119158864Y-69398193D01*
X119114716Y-69452348D01*
X119087906Y-69466277D01*
X119007669Y-69496203D01*
X119007664Y-69496206D01*
X118892455Y-69582452D01*
X118892452Y-69582455D01*
X118806206Y-69697664D01*
X118806202Y-69697671D01*
X118755908Y-69832517D01*
X118749501Y-69892116D01*
X118749501Y-69892123D01*
X118749500Y-69892135D01*
X118749500Y-71787870D01*
X118749501Y-71787876D01*
X118755908Y-71847483D01*
X118806202Y-71982328D01*
X118806206Y-71982335D01*
X118892452Y-72097544D01*
X118892455Y-72097547D01*
X119007664Y-72183793D01*
X119007671Y-72183797D01*
X119142517Y-72234091D01*
X119142516Y-72234091D01*
X119149444Y-72234835D01*
X119202127Y-72240500D01*
X121097872Y-72240499D01*
X121157483Y-72234091D01*
X121292331Y-72183796D01*
X121407546Y-72097546D01*
X121493796Y-71982331D01*
X121544091Y-71847483D01*
X121550500Y-71787873D01*
X121550499Y-69892128D01*
X121544091Y-69832517D01*
X121535194Y-69808664D01*
X121493797Y-69697671D01*
X121493793Y-69697664D01*
X121407547Y-69582455D01*
X121407544Y-69582452D01*
X121317438Y-69514998D01*
X125774532Y-69514998D01*
X125774532Y-69515001D01*
X125794364Y-69741686D01*
X125794366Y-69741697D01*
X125853258Y-69961488D01*
X125853261Y-69961497D01*
X125949431Y-70167732D01*
X125949432Y-70167734D01*
X126079954Y-70354141D01*
X126240858Y-70515045D01*
X126262423Y-70530145D01*
X126427266Y-70645568D01*
X126633504Y-70741739D01*
X126853308Y-70800635D01*
X127015230Y-70814801D01*
X127079998Y-70820468D01*
X127080000Y-70820468D01*
X127080002Y-70820468D01*
X127136673Y-70815509D01*
X127306692Y-70800635D01*
X127526496Y-70741739D01*
X127732734Y-70645568D01*
X127919139Y-70515047D01*
X128080047Y-70354139D01*
X128210568Y-70167734D01*
X128306739Y-69961496D01*
X128365635Y-69741692D01*
X128385468Y-69515000D01*
X128384999Y-69509644D01*
X128398763Y-69441146D01*
X128447377Y-69390962D01*
X128515405Y-69375026D01*
X128581249Y-69398399D01*
X128596208Y-69411154D01*
X134100325Y-74915272D01*
X134100328Y-74915275D01*
X134100331Y-74915277D01*
X134170041Y-74961855D01*
X134206873Y-74986465D01*
X134325256Y-75035501D01*
X134325260Y-75035501D01*
X134325261Y-75035502D01*
X134450928Y-75060500D01*
X134450931Y-75060500D01*
X137186571Y-75060500D01*
X137271115Y-75043682D01*
X137312244Y-75035501D01*
X137430627Y-74986465D01*
X137467459Y-74961855D01*
X137537169Y-74915277D01*
X138950724Y-73501720D01*
X139012045Y-73468237D01*
X139024519Y-73466183D01*
X139031755Y-73465368D01*
X139202022Y-73405789D01*
X139354762Y-73309816D01*
X139482316Y-73182262D01*
X139578289Y-73029522D01*
X139637868Y-72859255D01*
X139649457Y-72756401D01*
X139651799Y-72735617D01*
X139678865Y-72671203D01*
X139736460Y-72631648D01*
X139775019Y-72625500D01*
X142108000Y-72625500D01*
X142175039Y-72645185D01*
X142220794Y-72697989D01*
X142232000Y-72749500D01*
X142232000Y-72951007D01*
X142271407Y-73149119D01*
X142271409Y-73149127D01*
X142348713Y-73335755D01*
X142348714Y-73335756D01*
X142402189Y-73415788D01*
X142402404Y-73416109D01*
X142423282Y-73482787D01*
X142404797Y-73550167D01*
X142402404Y-73553891D01*
X142348713Y-73634244D01*
X142271409Y-73820872D01*
X142271407Y-73820880D01*
X142232000Y-74018992D01*
X142232000Y-74221007D01*
X142271407Y-74419119D01*
X142271409Y-74419127D01*
X142304825Y-74499800D01*
X142312294Y-74569270D01*
X142292538Y-74614660D01*
X142292954Y-74614887D01*
X142290419Y-74619528D01*
X142289537Y-74621556D01*
X142288706Y-74622665D01*
X142288702Y-74622672D01*
X142238408Y-74757517D01*
X142232430Y-74813126D01*
X142232001Y-74817123D01*
X142232000Y-74817135D01*
X142232000Y-75962870D01*
X142232001Y-75962876D01*
X142238408Y-76022483D01*
X142288702Y-76157328D01*
X142288706Y-76157335D01*
X142374952Y-76272544D01*
X142374955Y-76272547D01*
X142490164Y-76358793D01*
X142490171Y-76358797D01*
X142625017Y-76409091D01*
X142625016Y-76409091D01*
X142631944Y-76409835D01*
X142684627Y-76415500D01*
X144280372Y-76415499D01*
X144339983Y-76409091D01*
X144474831Y-76358796D01*
X144590046Y-76272546D01*
X144676296Y-76157331D01*
X144726591Y-76022483D01*
X144733000Y-75962873D01*
X144732999Y-74817128D01*
X144726591Y-74757517D01*
X144680498Y-74633936D01*
X144676297Y-74622671D01*
X144676296Y-74622670D01*
X144676296Y-74622669D01*
X144675467Y-74621562D01*
X144674985Y-74620268D01*
X144672046Y-74614886D01*
X144672819Y-74614463D01*
X144651051Y-74556099D01*
X144660175Y-74499798D01*
X144693589Y-74419132D01*
X144693589Y-74419131D01*
X144693591Y-74419127D01*
X144733000Y-74221003D01*
X144733000Y-74018997D01*
X144693591Y-73820873D01*
X144616286Y-73634244D01*
X144562594Y-73553889D01*
X144558245Y-73540000D01*
X151684592Y-73540000D01*
X151704201Y-73826680D01*
X151762666Y-74108034D01*
X151762667Y-74108037D01*
X151858894Y-74378793D01*
X151858893Y-74378793D01*
X151991098Y-74633935D01*
X152156812Y-74868700D01*
X152241923Y-74959831D01*
X152352947Y-75078708D01*
X152575853Y-75260055D01*
X152776523Y-75382086D01*
X152821382Y-75409365D01*
X153008237Y-75490526D01*
X153084942Y-75523844D01*
X153361642Y-75601371D01*
X153596107Y-75633598D01*
X153646321Y-75640500D01*
X153646322Y-75640500D01*
X153933679Y-75640500D01*
X153964370Y-75636281D01*
X154218358Y-75601371D01*
X154495058Y-75523844D01*
X154633996Y-75463495D01*
X154758617Y-75409365D01*
X154758620Y-75409363D01*
X154758625Y-75409361D01*
X155004147Y-75260055D01*
X155227053Y-75078708D01*
X155423189Y-74868698D01*
X155588901Y-74633936D01*
X155721104Y-74378797D01*
X155817334Y-74108032D01*
X155875798Y-73826686D01*
X155895408Y-73540000D01*
X155875798Y-73253314D01*
X155817334Y-72971968D01*
X155809884Y-72951007D01*
X155721105Y-72701206D01*
X155721106Y-72701206D01*
X155588901Y-72446064D01*
X155423187Y-72211299D01*
X155338295Y-72120403D01*
X155227053Y-72001292D01*
X155084109Y-71884999D01*
X155004146Y-71819944D01*
X154758617Y-71670634D01*
X154495063Y-71556158D01*
X154495061Y-71556157D01*
X154495058Y-71556156D01*
X154365578Y-71519877D01*
X154218364Y-71478630D01*
X154218359Y-71478629D01*
X154218358Y-71478629D01*
X154076018Y-71459064D01*
X153933679Y-71439500D01*
X153933678Y-71439500D01*
X153646322Y-71439500D01*
X153646321Y-71439500D01*
X153361642Y-71478629D01*
X153361635Y-71478630D01*
X153153861Y-71536845D01*
X153084942Y-71556156D01*
X153084939Y-71556156D01*
X153084936Y-71556158D01*
X153084935Y-71556158D01*
X152821382Y-71670634D01*
X152575853Y-71819944D01*
X152352950Y-72001289D01*
X152156812Y-72211299D01*
X151991098Y-72446064D01*
X151858894Y-72701206D01*
X151762667Y-72971962D01*
X151762666Y-72971965D01*
X151704201Y-73253319D01*
X151684592Y-73540000D01*
X144558245Y-73540000D01*
X144541717Y-73487214D01*
X144560201Y-73419834D01*
X144562578Y-73416134D01*
X144616286Y-73335756D01*
X144693591Y-73149127D01*
X144733000Y-72951003D01*
X144733000Y-72749500D01*
X144752685Y-72682461D01*
X144805489Y-72636706D01*
X144857000Y-72625500D01*
X151031813Y-72625500D01*
X151116357Y-72608682D01*
X151157486Y-72600501D01*
X151275869Y-72551465D01*
X151298317Y-72536466D01*
X151298318Y-72536466D01*
X151361244Y-72494419D01*
X151382411Y-72480277D01*
X155665869Y-68196819D01*
X155727192Y-68163334D01*
X155753550Y-68160500D01*
X164134932Y-68160500D01*
X164200904Y-68179506D01*
X164290477Y-68235789D01*
X164290481Y-68235790D01*
X164460737Y-68295366D01*
X164460743Y-68295367D01*
X164460745Y-68295368D01*
X164460746Y-68295368D01*
X164460750Y-68295369D01*
X164639996Y-68315565D01*
X164640000Y-68315565D01*
X164640004Y-68315565D01*
X164819249Y-68295369D01*
X164819252Y-68295368D01*
X164819255Y-68295368D01*
X164989522Y-68235789D01*
X165142262Y-68139816D01*
X165269816Y-68012262D01*
X165365789Y-67859522D01*
X165425368Y-67689255D01*
X165425368Y-67689254D01*
X165427668Y-67682682D01*
X165429742Y-67683407D01*
X165458713Y-67631608D01*
X165520373Y-67598747D01*
X165590011Y-67604439D01*
X165645516Y-67646876D01*
X165669267Y-67712585D01*
X165669500Y-67720175D01*
X165669500Y-68974069D01*
X165685234Y-69053165D01*
X165694499Y-69099744D01*
X165743534Y-69218125D01*
X165814726Y-69324673D01*
X165814727Y-69324674D01*
X167718373Y-71228319D01*
X167751858Y-71289642D01*
X167746874Y-71359334D01*
X167705002Y-71415267D01*
X167639538Y-71439684D01*
X167630692Y-71440000D01*
X166740000Y-71440000D01*
X166740000Y-72777639D01*
X166723351Y-72770743D01*
X166568793Y-72740000D01*
X166411207Y-72740000D01*
X166256649Y-72770743D01*
X166240000Y-72777639D01*
X166240000Y-71440000D01*
X164842155Y-71440000D01*
X164782627Y-71446401D01*
X164782620Y-71446403D01*
X164647913Y-71496645D01*
X164647906Y-71496649D01*
X164532812Y-71582809D01*
X164532809Y-71582812D01*
X164446649Y-71697906D01*
X164446645Y-71697913D01*
X164396403Y-71832620D01*
X164396401Y-71832627D01*
X164390000Y-71892155D01*
X164390000Y-73290000D01*
X165727639Y-73290000D01*
X165720743Y-73306649D01*
X165690000Y-73461207D01*
X165690000Y-73618793D01*
X165720743Y-73773351D01*
X165727639Y-73790000D01*
X164390000Y-73790000D01*
X164390000Y-75187844D01*
X164396401Y-75247372D01*
X164396403Y-75247379D01*
X164446645Y-75382086D01*
X164446649Y-75382093D01*
X164532809Y-75497187D01*
X164532812Y-75497190D01*
X164647906Y-75583350D01*
X164647913Y-75583354D01*
X164782620Y-75633596D01*
X164782627Y-75633598D01*
X164842155Y-75639999D01*
X164842172Y-75640000D01*
X166240000Y-75640000D01*
X166240000Y-74302360D01*
X166256649Y-74309257D01*
X166411207Y-74340000D01*
X166568793Y-74340000D01*
X166723351Y-74309257D01*
X166740000Y-74302360D01*
X166740000Y-75640000D01*
X168137828Y-75640000D01*
X168137844Y-75639999D01*
X168197372Y-75633598D01*
X168197379Y-75633596D01*
X168332086Y-75583354D01*
X168332093Y-75583350D01*
X168447187Y-75497190D01*
X168447190Y-75497187D01*
X168533350Y-75382093D01*
X168533354Y-75382086D01*
X168583596Y-75247379D01*
X168583598Y-75247372D01*
X168589999Y-75187844D01*
X168590000Y-75187827D01*
X168590000Y-73790000D01*
X167252361Y-73790000D01*
X167259257Y-73773351D01*
X167290000Y-73618793D01*
X167290000Y-73461207D01*
X167259257Y-73306649D01*
X167252361Y-73290000D01*
X168590000Y-73290000D01*
X168590000Y-72399308D01*
X168609685Y-72332269D01*
X168662489Y-72286514D01*
X168731647Y-72276570D01*
X168795203Y-72305595D01*
X168801681Y-72311627D01*
X168863181Y-72373127D01*
X168896666Y-72434450D01*
X168899500Y-72460808D01*
X168899500Y-73674069D01*
X168899500Y-73674071D01*
X168899499Y-73674071D01*
X168922006Y-73787215D01*
X168924498Y-73799741D01*
X168924499Y-73799745D01*
X168973533Y-73918125D01*
X169002411Y-73961344D01*
X169040932Y-74018996D01*
X169044726Y-74024673D01*
X169044727Y-74024674D01*
X169833181Y-74813126D01*
X169866666Y-74874449D01*
X169869500Y-74900807D01*
X169869500Y-74999069D01*
X169885342Y-75078708D01*
X169894499Y-75124744D01*
X169943535Y-75243127D01*
X169946376Y-75247379D01*
X170014726Y-75349673D01*
X170014727Y-75349674D01*
X171202290Y-76537236D01*
X171235775Y-76598559D01*
X171234384Y-76657008D01*
X171214937Y-76729589D01*
X171214937Y-76729590D01*
X171194341Y-76964999D01*
X171194341Y-76965000D01*
X171214936Y-77200403D01*
X171214938Y-77200413D01*
X171276094Y-77428655D01*
X171276096Y-77428659D01*
X171276097Y-77428663D01*
X171375965Y-77642830D01*
X171375967Y-77642834D01*
X171511501Y-77836395D01*
X171511506Y-77836402D01*
X171678597Y-78003493D01*
X171678603Y-78003498D01*
X171864158Y-78133425D01*
X171907783Y-78188002D01*
X171914977Y-78257500D01*
X171883454Y-78319855D01*
X171864158Y-78336575D01*
X171678597Y-78466505D01*
X171511505Y-78633597D01*
X171375965Y-78827169D01*
X171375964Y-78827171D01*
X171276098Y-79041335D01*
X171276094Y-79041344D01*
X171214938Y-79269586D01*
X171214936Y-79269596D01*
X171194341Y-79504999D01*
X171194341Y-79505000D01*
X171214936Y-79740403D01*
X171214938Y-79740413D01*
X171276094Y-79968655D01*
X171276096Y-79968659D01*
X171276097Y-79968663D01*
X171304205Y-80028940D01*
X171375965Y-80182830D01*
X171375967Y-80182834D01*
X171484281Y-80337521D01*
X171511505Y-80376401D01*
X171678599Y-80543495D01*
X171775384Y-80611265D01*
X171872165Y-80679032D01*
X171872167Y-80679033D01*
X171872170Y-80679035D01*
X172086337Y-80778903D01*
X172314592Y-80840063D01*
X172502918Y-80856539D01*
X172549999Y-80860659D01*
X172550000Y-80860659D01*
X172550001Y-80860659D01*
X172589234Y-80857226D01*
X172785408Y-80840063D01*
X173013663Y-80778903D01*
X173227830Y-80679035D01*
X173421401Y-80543495D01*
X173588495Y-80376401D01*
X173724035Y-80182830D01*
X173823903Y-79968663D01*
X173885063Y-79740408D01*
X173905659Y-79505000D01*
X173904357Y-79490124D01*
X173885063Y-79269596D01*
X173885063Y-79269592D01*
X173823903Y-79041337D01*
X173724035Y-78827171D01*
X173668020Y-78747172D01*
X173588494Y-78633597D01*
X173421402Y-78466506D01*
X173421396Y-78466501D01*
X173235842Y-78336575D01*
X173192217Y-78281998D01*
X173185023Y-78212500D01*
X173216546Y-78150145D01*
X173235842Y-78133425D01*
X173258026Y-78117891D01*
X173421401Y-78003495D01*
X173588495Y-77836401D01*
X173724035Y-77642830D01*
X173823903Y-77428663D01*
X173885063Y-77200408D01*
X173905659Y-76965000D01*
X173885063Y-76729592D01*
X173823903Y-76501337D01*
X173724035Y-76287171D01*
X173713796Y-76272547D01*
X173588494Y-76093597D01*
X173421402Y-75926506D01*
X173421396Y-75926501D01*
X173235842Y-75796575D01*
X173192217Y-75741998D01*
X173185023Y-75672500D01*
X173216546Y-75610145D01*
X173235842Y-75593425D01*
X173258026Y-75577891D01*
X173421401Y-75463495D01*
X173588495Y-75296401D01*
X173724035Y-75102830D01*
X173823903Y-74888663D01*
X173885063Y-74660408D01*
X173905659Y-74425000D01*
X173905144Y-74419119D01*
X173898222Y-74340000D01*
X173885063Y-74189592D01*
X173823903Y-73961337D01*
X173724035Y-73747171D01*
X173718885Y-73739815D01*
X173588494Y-73553597D01*
X173421402Y-73386506D01*
X173421396Y-73386501D01*
X173235842Y-73256575D01*
X173192217Y-73201998D01*
X173185023Y-73132500D01*
X173216546Y-73070145D01*
X173235842Y-73053425D01*
X173352174Y-72971968D01*
X173421401Y-72923495D01*
X173588495Y-72756401D01*
X173724035Y-72562830D01*
X173823903Y-72348663D01*
X173885063Y-72120408D01*
X173905659Y-71885000D01*
X173885063Y-71649592D01*
X173823903Y-71421337D01*
X173724035Y-71207171D01*
X173588495Y-71013599D01*
X173588494Y-71013597D01*
X173421402Y-70846506D01*
X173421396Y-70846501D01*
X173235842Y-70716575D01*
X173192217Y-70661998D01*
X173185023Y-70592500D01*
X173216546Y-70530145D01*
X173235842Y-70513425D01*
X173380884Y-70411865D01*
X173421401Y-70383495D01*
X173588495Y-70216401D01*
X173724035Y-70022830D01*
X173823903Y-69808663D01*
X173885063Y-69580408D01*
X173905659Y-69345000D01*
X173885063Y-69109592D01*
X173823903Y-68881337D01*
X173724035Y-68667171D01*
X173708071Y-68644371D01*
X173588494Y-68473597D01*
X173421402Y-68306506D01*
X173421396Y-68306501D01*
X173235842Y-68176575D01*
X173192217Y-68121998D01*
X173185023Y-68052500D01*
X173216546Y-67990145D01*
X173235842Y-67973425D01*
X173365720Y-67882483D01*
X173421401Y-67843495D01*
X173588495Y-67676401D01*
X173724035Y-67482830D01*
X173823903Y-67268663D01*
X173885063Y-67040408D01*
X173905659Y-66805000D01*
X173903931Y-66785255D01*
X173898628Y-66724633D01*
X173885063Y-66569592D01*
X173823903Y-66341337D01*
X173724035Y-66127171D01*
X173724005Y-66127127D01*
X173588494Y-65933597D01*
X173421402Y-65766506D01*
X173421396Y-65766501D01*
X173235842Y-65636575D01*
X173192217Y-65581998D01*
X173185023Y-65512500D01*
X173216546Y-65450145D01*
X173235842Y-65433425D01*
X173274145Y-65406605D01*
X173421401Y-65303495D01*
X173588495Y-65136401D01*
X173724035Y-64942830D01*
X173823903Y-64728663D01*
X173885063Y-64500408D01*
X173905659Y-64265000D01*
X173885063Y-64029592D01*
X173823903Y-63801337D01*
X173724035Y-63587171D01*
X173686924Y-63534171D01*
X173588496Y-63393600D01*
X173545374Y-63350478D01*
X173466179Y-63271283D01*
X173432696Y-63209963D01*
X173437680Y-63140271D01*
X173479551Y-63084337D01*
X173510529Y-63067422D01*
X173642086Y-63018354D01*
X173642093Y-63018350D01*
X173757187Y-62932190D01*
X173757190Y-62932187D01*
X173843350Y-62817093D01*
X173843354Y-62817086D01*
X173893596Y-62682379D01*
X173893598Y-62682372D01*
X173899999Y-62622844D01*
X173900000Y-62622827D01*
X173900000Y-61975000D01*
X172983012Y-61975000D01*
X173015925Y-61917993D01*
X173050000Y-61790826D01*
X173050000Y-61659174D01*
X173015925Y-61532007D01*
X172983012Y-61475000D01*
X173900000Y-61475000D01*
X173900000Y-60827172D01*
X173899999Y-60827155D01*
X173893598Y-60767627D01*
X173893596Y-60767620D01*
X173843354Y-60632913D01*
X173843350Y-60632906D01*
X173757190Y-60517812D01*
X173757187Y-60517809D01*
X173642093Y-60431649D01*
X173642086Y-60431645D01*
X173507379Y-60381403D01*
X173507372Y-60381401D01*
X173447844Y-60375000D01*
X172800000Y-60375000D01*
X172800000Y-61291988D01*
X172742993Y-61259075D01*
X172615826Y-61225000D01*
X172484174Y-61225000D01*
X172357007Y-61259075D01*
X172300000Y-61291988D01*
X172300000Y-60375000D01*
X171652155Y-60375000D01*
X171592627Y-60381401D01*
X171592620Y-60381403D01*
X171457913Y-60431645D01*
X171457906Y-60431649D01*
X171342812Y-60517809D01*
X171342809Y-60517812D01*
X171256649Y-60632906D01*
X171256645Y-60632913D01*
X171206403Y-60767620D01*
X171206401Y-60767627D01*
X171200000Y-60827155D01*
X171200000Y-61475000D01*
X172116988Y-61475000D01*
X172084075Y-61532007D01*
X172050000Y-61659174D01*
X172050000Y-61790826D01*
X172084075Y-61917993D01*
X172116988Y-61975000D01*
X171200000Y-61975000D01*
X171200000Y-62622844D01*
X171206401Y-62682372D01*
X171206403Y-62682379D01*
X171256645Y-62817086D01*
X171256649Y-62817093D01*
X171342809Y-62932187D01*
X171342812Y-62932190D01*
X171457906Y-63018350D01*
X171457913Y-63018354D01*
X171589470Y-63067421D01*
X171645403Y-63109292D01*
X171669821Y-63174756D01*
X171654970Y-63243029D01*
X171633819Y-63271284D01*
X171511503Y-63393600D01*
X171375965Y-63587169D01*
X171375964Y-63587171D01*
X171276098Y-63801335D01*
X171276094Y-63801344D01*
X171214938Y-64029586D01*
X171214936Y-64029596D01*
X171196246Y-64243218D01*
X171170793Y-64308287D01*
X171114202Y-64349265D01*
X171044440Y-64353143D01*
X170985037Y-64320091D01*
X168549674Y-61884727D01*
X168549673Y-61884726D01*
X168549669Y-61884723D01*
X168443127Y-61813535D01*
X168387921Y-61790668D01*
X168324744Y-61764499D01*
X168324738Y-61764497D01*
X168199071Y-61739500D01*
X168199069Y-61739500D01*
X167095068Y-61739500D01*
X167029096Y-61720494D01*
X166939523Y-61664211D01*
X166769249Y-61604630D01*
X166700616Y-61596897D01*
X166636202Y-61569830D01*
X166596647Y-61512235D01*
X166590500Y-61473677D01*
X166590500Y-58096766D01*
X166610185Y-58029727D01*
X166658203Y-57986282D01*
X166807816Y-57910051D01*
X166829789Y-57894086D01*
X166979786Y-57785109D01*
X166979788Y-57785106D01*
X166979792Y-57785104D01*
X167130104Y-57634792D01*
X167130106Y-57634788D01*
X167130109Y-57634786D01*
X167255048Y-57462820D01*
X167255047Y-57462820D01*
X167255051Y-57462816D01*
X167351557Y-57273412D01*
X167417246Y-57071243D01*
X167450500Y-56861287D01*
X167450500Y-56398713D01*
X167417246Y-56188757D01*
X167351557Y-55986588D01*
X167255051Y-55797184D01*
X167255049Y-55797181D01*
X167255048Y-55797179D01*
X167130109Y-55625213D01*
X166979786Y-55474890D01*
X166807820Y-55349951D01*
X166618414Y-55253444D01*
X166618413Y-55253443D01*
X166618412Y-55253443D01*
X166416243Y-55187754D01*
X166416241Y-55187753D01*
X166416240Y-55187753D01*
X166254957Y-55162208D01*
X166206287Y-55154500D01*
X165993713Y-55154500D01*
X165945042Y-55162208D01*
X165783760Y-55187753D01*
X165581585Y-55253444D01*
X165392179Y-55349951D01*
X165220213Y-55474890D01*
X165069894Y-55625209D01*
X165069890Y-55625214D01*
X164950008Y-55790218D01*
X164894678Y-55832884D01*
X164825065Y-55838863D01*
X164763270Y-55806257D01*
X164749372Y-55790218D01*
X164629727Y-55625540D01*
X164629723Y-55625535D01*
X164479464Y-55475276D01*
X164479459Y-55475272D01*
X164307557Y-55350379D01*
X164118215Y-55253903D01*
X163916124Y-55188241D01*
X163850000Y-55177768D01*
X163850000Y-56225854D01*
X163783343Y-56187370D01*
X163662535Y-56155000D01*
X163537465Y-56155000D01*
X163416657Y-56187370D01*
X163350000Y-56225854D01*
X163350000Y-55177768D01*
X163349999Y-55177768D01*
X163283875Y-55188241D01*
X163081784Y-55253903D01*
X162892442Y-55350379D01*
X162720541Y-55475271D01*
X162581668Y-55614144D01*
X162520345Y-55647628D01*
X162450653Y-55642644D01*
X162394720Y-55600772D01*
X162388448Y-55591558D01*
X162370960Y-55563206D01*
X162292712Y-55436344D01*
X162168656Y-55312288D01*
X162043426Y-55235046D01*
X162019336Y-55220187D01*
X162019331Y-55220185D01*
X161954765Y-55198790D01*
X161852797Y-55165001D01*
X161852795Y-55165000D01*
X161750010Y-55154500D01*
X160449998Y-55154500D01*
X160449981Y-55154501D01*
X160347203Y-55165000D01*
X160347200Y-55165001D01*
X160180668Y-55220185D01*
X160180663Y-55220187D01*
X160031342Y-55312289D01*
X159907289Y-55436342D01*
X159815187Y-55585663D01*
X159815185Y-55585668D01*
X159810180Y-55600772D01*
X159760001Y-55752203D01*
X159760001Y-55752204D01*
X159760000Y-55752204D01*
X159749500Y-55854983D01*
X159749500Y-57405001D01*
X159749501Y-57405018D01*
X159760000Y-57507796D01*
X159760001Y-57507799D01*
X159815185Y-57674331D01*
X159815187Y-57674336D01*
X159822748Y-57686594D01*
X159907288Y-57823656D01*
X160031344Y-57947712D01*
X160180666Y-58039814D01*
X160347203Y-58094999D01*
X160449991Y-58105500D01*
X161750008Y-58105499D01*
X161852797Y-58094999D01*
X162019334Y-58039814D01*
X162168656Y-57947712D01*
X162292712Y-57823656D01*
X162384814Y-57674334D01*
X162384814Y-57674331D01*
X162388448Y-57668441D01*
X162440395Y-57621716D01*
X162509358Y-57610493D01*
X162573440Y-57638336D01*
X162581668Y-57645856D01*
X162720535Y-57784723D01*
X162720540Y-57784727D01*
X162892442Y-57909620D01*
X163081782Y-58006095D01*
X163283871Y-58071757D01*
X163350000Y-58082231D01*
X163350000Y-57034145D01*
X163416657Y-57072630D01*
X163537465Y-57105000D01*
X163662535Y-57105000D01*
X163783343Y-57072630D01*
X163850000Y-57034145D01*
X163850000Y-58082230D01*
X163916126Y-58071757D01*
X163916129Y-58071757D01*
X164118217Y-58006095D01*
X164307557Y-57909620D01*
X164479459Y-57784727D01*
X164479464Y-57784723D01*
X164629721Y-57634466D01*
X164749371Y-57469781D01*
X164804701Y-57427115D01*
X164874314Y-57421136D01*
X164936110Y-57453741D01*
X164950008Y-57469781D01*
X165069890Y-57634785D01*
X165069894Y-57634790D01*
X165069896Y-57634792D01*
X165220208Y-57785104D01*
X165238384Y-57798309D01*
X165281050Y-57853638D01*
X165289500Y-57898628D01*
X165289500Y-62954069D01*
X165289500Y-62954071D01*
X165289499Y-62954071D01*
X165312460Y-63069497D01*
X165314498Y-63079741D01*
X165314499Y-63079745D01*
X165363533Y-63198125D01*
X165434726Y-63304673D01*
X166286306Y-64156253D01*
X166319791Y-64217576D01*
X166314807Y-64287268D01*
X166286307Y-64331615D01*
X166170183Y-64447739D01*
X166074210Y-64600478D01*
X166014632Y-64770744D01*
X166014630Y-64770752D01*
X166013815Y-64777988D01*
X165986743Y-64842400D01*
X165978278Y-64851775D01*
X165814721Y-65015333D01*
X165796812Y-65042138D01*
X165796811Y-65042139D01*
X165743534Y-65121874D01*
X165694499Y-65240255D01*
X165694497Y-65240261D01*
X165669500Y-65365928D01*
X165669500Y-67299824D01*
X165649815Y-67366863D01*
X165597011Y-67412618D01*
X165527853Y-67422562D01*
X165464297Y-67393537D01*
X165428075Y-67337175D01*
X165427668Y-67337318D01*
X165427070Y-67335611D01*
X165426523Y-67334759D01*
X165425793Y-67331960D01*
X165418200Y-67310261D01*
X165365789Y-67160478D01*
X165269816Y-67007738D01*
X165142262Y-66880184D01*
X165079096Y-66840494D01*
X164989523Y-66784211D01*
X164819254Y-66724631D01*
X164819249Y-66724630D01*
X164640004Y-66704435D01*
X164639996Y-66704435D01*
X164460750Y-66724630D01*
X164460737Y-66724633D01*
X164290481Y-66784209D01*
X164290477Y-66784210D01*
X164200904Y-66840494D01*
X164134932Y-66859500D01*
X155884346Y-66859500D01*
X155817307Y-66839815D01*
X155771552Y-66787011D01*
X155760693Y-66726233D01*
X155764907Y-66670003D01*
X155764907Y-66669995D01*
X155745307Y-66408454D01*
X155745306Y-66408449D01*
X155686941Y-66152729D01*
X155591116Y-65908573D01*
X155591117Y-65908573D01*
X155459972Y-65681426D01*
X155412124Y-65621427D01*
X154492962Y-66540589D01*
X154475925Y-66477007D01*
X154410099Y-66362993D01*
X154317007Y-66269901D01*
X154202993Y-66204075D01*
X154139410Y-66187037D01*
X155059168Y-65267278D01*
X154887454Y-65150206D01*
X154887445Y-65150201D01*
X154651142Y-65036404D01*
X154651144Y-65036404D01*
X154400505Y-64959092D01*
X154400499Y-64959090D01*
X154141151Y-64920000D01*
X153878848Y-64920000D01*
X153619500Y-64959090D01*
X153619494Y-64959092D01*
X153368858Y-65036404D01*
X153368854Y-65036405D01*
X153132547Y-65150205D01*
X153132539Y-65150210D01*
X152960830Y-65267277D01*
X153880590Y-66187037D01*
X153817007Y-66204075D01*
X153702993Y-66269901D01*
X153609901Y-66362993D01*
X153544075Y-66477007D01*
X153527037Y-66540589D01*
X152607874Y-65621427D01*
X152560028Y-65681425D01*
X152428883Y-65908573D01*
X152333058Y-66152729D01*
X152274693Y-66408449D01*
X152274692Y-66408454D01*
X152255093Y-66669995D01*
X152255093Y-66670004D01*
X152274692Y-66931545D01*
X152274693Y-66931550D01*
X152333058Y-67187270D01*
X152428883Y-67431426D01*
X152428882Y-67431426D01*
X152560027Y-67658573D01*
X152607874Y-67718571D01*
X153527037Y-66799409D01*
X153544075Y-66862993D01*
X153609901Y-66977007D01*
X153702993Y-67070099D01*
X153817007Y-67135925D01*
X153880590Y-67152962D01*
X152960830Y-68072720D01*
X153132546Y-68189793D01*
X153132550Y-68189795D01*
X153368854Y-68303594D01*
X153368861Y-68303597D01*
X153439962Y-68325528D01*
X153498221Y-68364097D01*
X153526379Y-68428042D01*
X153515497Y-68497059D01*
X153491094Y-68531700D01*
X150734615Y-71288181D01*
X150673292Y-71321666D01*
X150646934Y-71324500D01*
X135840929Y-71324500D01*
X135715261Y-71349497D01*
X135715255Y-71349499D01*
X135633086Y-71383535D01*
X135633085Y-71383535D01*
X135596876Y-71398532D01*
X135490326Y-71469726D01*
X135194727Y-71765325D01*
X135194721Y-71765332D01*
X135150261Y-71831872D01*
X135150262Y-71831873D01*
X135123534Y-71871874D01*
X135074499Y-71990255D01*
X135074497Y-71990261D01*
X135049500Y-72115928D01*
X135049500Y-72361449D01*
X135042542Y-72402403D01*
X135004632Y-72510742D01*
X135004630Y-72510750D01*
X134984435Y-72689996D01*
X134984435Y-72690003D01*
X135004630Y-72869249D01*
X135004631Y-72869254D01*
X135064211Y-73039523D01*
X135122633Y-73132500D01*
X135160184Y-73192262D01*
X135287738Y-73319816D01*
X135378080Y-73376582D01*
X135424561Y-73405788D01*
X135440478Y-73415789D01*
X135570275Y-73461207D01*
X135610745Y-73475368D01*
X135610750Y-73475369D01*
X135789996Y-73495565D01*
X135790000Y-73495565D01*
X135790004Y-73495565D01*
X135969249Y-73475369D01*
X135969252Y-73475368D01*
X135969255Y-73475368D01*
X136139522Y-73415789D01*
X136292262Y-73319816D01*
X136419816Y-73192262D01*
X136515789Y-73039522D01*
X136575368Y-72869255D01*
X136576495Y-72859254D01*
X136590426Y-72735616D01*
X136617492Y-72671203D01*
X136675087Y-72631647D01*
X136713646Y-72625500D01*
X137687692Y-72625500D01*
X137754731Y-72645185D01*
X137800486Y-72697989D01*
X137810430Y-72767147D01*
X137781405Y-72830703D01*
X137775373Y-72837181D01*
X136889373Y-73723181D01*
X136828050Y-73756666D01*
X136801692Y-73759500D01*
X134835808Y-73759500D01*
X134768769Y-73739815D01*
X134748127Y-73723181D01*
X130539944Y-69514998D01*
X133394532Y-69514998D01*
X133394532Y-69515001D01*
X133414364Y-69741686D01*
X133414366Y-69741697D01*
X133473258Y-69961488D01*
X133473261Y-69961497D01*
X133569431Y-70167732D01*
X133569432Y-70167734D01*
X133699954Y-70354141D01*
X133860858Y-70515045D01*
X133882423Y-70530145D01*
X134047266Y-70645568D01*
X134253504Y-70741739D01*
X134473308Y-70800635D01*
X134635230Y-70814801D01*
X134699998Y-70820468D01*
X134700000Y-70820468D01*
X134700002Y-70820468D01*
X134756673Y-70815509D01*
X134926692Y-70800635D01*
X135146496Y-70741739D01*
X135352734Y-70645568D01*
X135539139Y-70515047D01*
X135700047Y-70354139D01*
X135830568Y-70167734D01*
X135926739Y-69961496D01*
X135985635Y-69741692D01*
X136005468Y-69515000D01*
X136003823Y-69496203D01*
X135993222Y-69375026D01*
X135985635Y-69288308D01*
X135926739Y-69068504D01*
X135830568Y-68862266D01*
X135700047Y-68675861D01*
X135700045Y-68675858D01*
X135539141Y-68514954D01*
X135352734Y-68384432D01*
X135352732Y-68384431D01*
X135341275Y-68379088D01*
X135294132Y-68357105D01*
X135241694Y-68310934D01*
X135222542Y-68243740D01*
X135242758Y-68176859D01*
X135294134Y-68132341D01*
X135352484Y-68105132D01*
X135538820Y-67974657D01*
X135699657Y-67813820D01*
X135830134Y-67627482D01*
X135926265Y-67421326D01*
X135926269Y-67421317D01*
X135978872Y-67225000D01*
X135015686Y-67225000D01*
X135020080Y-67220606D01*
X135072741Y-67129394D01*
X135100000Y-67027661D01*
X135100000Y-66922339D01*
X135072741Y-66820606D01*
X135020080Y-66729394D01*
X135015686Y-66725000D01*
X135978872Y-66725000D01*
X135978872Y-66724999D01*
X135977532Y-66719998D01*
X139754390Y-66719998D01*
X139754390Y-66720001D01*
X139774804Y-67005433D01*
X139835628Y-67285037D01*
X139835630Y-67285043D01*
X139835631Y-67285046D01*
X139919463Y-67509808D01*
X139935635Y-67553166D01*
X140072770Y-67804309D01*
X140072775Y-67804317D01*
X140244254Y-68033387D01*
X140244270Y-68033405D01*
X140446594Y-68235729D01*
X140446612Y-68235745D01*
X140675682Y-68407224D01*
X140675690Y-68407229D01*
X140926833Y-68544364D01*
X140926832Y-68544364D01*
X140926836Y-68544365D01*
X140926839Y-68544367D01*
X141194954Y-68644369D01*
X141194960Y-68644370D01*
X141194962Y-68644371D01*
X141474566Y-68705195D01*
X141474568Y-68705195D01*
X141474572Y-68705196D01*
X141728220Y-68723337D01*
X141759999Y-68725610D01*
X141760000Y-68725610D01*
X141760001Y-68725610D01*
X141788595Y-68723564D01*
X142045428Y-68705196D01*
X142180280Y-68675861D01*
X142325037Y-68644371D01*
X142325037Y-68644370D01*
X142325046Y-68644369D01*
X142593161Y-68544367D01*
X142844315Y-68407226D01*
X143073395Y-68235739D01*
X143275739Y-68033395D01*
X143447226Y-67804315D01*
X143584367Y-67553161D01*
X143684369Y-67285046D01*
X143704637Y-67191875D01*
X143745195Y-67005433D01*
X143745195Y-67005432D01*
X143745196Y-67005428D01*
X143765252Y-66725000D01*
X143765610Y-66720001D01*
X143765610Y-66719998D01*
X143759936Y-66640666D01*
X143745196Y-66434572D01*
X143744305Y-66430478D01*
X143684371Y-66154962D01*
X143684370Y-66154960D01*
X143684369Y-66154954D01*
X143584367Y-65886839D01*
X143561447Y-65844865D01*
X143447229Y-65635690D01*
X143447224Y-65635682D01*
X143275745Y-65406612D01*
X143275729Y-65406594D01*
X143073405Y-65204270D01*
X143073387Y-65204254D01*
X142844317Y-65032775D01*
X142844309Y-65032770D01*
X142593166Y-64895635D01*
X142593167Y-64895635D01*
X142393317Y-64821095D01*
X142325046Y-64795631D01*
X142325043Y-64795630D01*
X142325037Y-64795628D01*
X142045433Y-64734804D01*
X141760001Y-64714390D01*
X141759999Y-64714390D01*
X141474566Y-64734804D01*
X141194962Y-64795628D01*
X140926833Y-64895635D01*
X140675690Y-65032770D01*
X140675682Y-65032775D01*
X140446612Y-65204254D01*
X140446594Y-65204270D01*
X140244270Y-65406594D01*
X140244254Y-65406612D01*
X140072775Y-65635682D01*
X140072770Y-65635690D01*
X139935635Y-65886833D01*
X139835628Y-66154962D01*
X139774804Y-66434566D01*
X139754390Y-66719998D01*
X135977532Y-66719998D01*
X135926269Y-66528682D01*
X135926265Y-66528673D01*
X135830134Y-66322517D01*
X135699657Y-66136179D01*
X135538820Y-65975342D01*
X135352482Y-65844865D01*
X135146328Y-65748734D01*
X134950000Y-65696127D01*
X134950000Y-66659314D01*
X134945606Y-66654920D01*
X134854394Y-66602259D01*
X134752661Y-66575000D01*
X134647339Y-66575000D01*
X134545606Y-66602259D01*
X134454394Y-66654920D01*
X134450000Y-66659314D01*
X134450000Y-65696127D01*
X134253671Y-65748734D01*
X134047517Y-65844865D01*
X133861179Y-65975342D01*
X133700342Y-66136179D01*
X133569865Y-66322517D01*
X133473734Y-66528673D01*
X133473730Y-66528682D01*
X133421127Y-66724999D01*
X133421128Y-66725000D01*
X134384314Y-66725000D01*
X134379920Y-66729394D01*
X134327259Y-66820606D01*
X134300000Y-66922339D01*
X134300000Y-67027661D01*
X134327259Y-67129394D01*
X134379920Y-67220606D01*
X134384314Y-67225000D01*
X133421128Y-67225000D01*
X133473730Y-67421317D01*
X133473734Y-67421326D01*
X133569865Y-67627482D01*
X133700342Y-67813820D01*
X133861179Y-67974657D01*
X134047518Y-68105134D01*
X134047520Y-68105135D01*
X134105865Y-68132342D01*
X134158305Y-68178514D01*
X134177457Y-68245707D01*
X134157242Y-68312589D01*
X134105867Y-68357105D01*
X134047268Y-68384431D01*
X134047264Y-68384433D01*
X133860858Y-68514954D01*
X133699954Y-68675858D01*
X133569432Y-68862265D01*
X133569431Y-68862267D01*
X133473261Y-69068502D01*
X133473258Y-69068511D01*
X133414366Y-69288302D01*
X133414364Y-69288313D01*
X133394532Y-69514998D01*
X130539944Y-69514998D01*
X128416818Y-67391872D01*
X128383333Y-67330549D01*
X128380499Y-67304191D01*
X128380499Y-67213555D01*
X128389032Y-67170657D01*
X128388734Y-67170567D01*
X128389652Y-67167539D01*
X128389939Y-67166100D01*
X128390501Y-67164744D01*
X128415500Y-67039069D01*
X128415500Y-66910931D01*
X128415500Y-66910928D01*
X128390502Y-66785260D01*
X128390501Y-66785258D01*
X128390501Y-66785256D01*
X128389937Y-66783894D01*
X128389649Y-66782450D01*
X128388733Y-66779428D01*
X128389030Y-66779337D01*
X128380499Y-66736443D01*
X128380499Y-66127129D01*
X128380498Y-66127123D01*
X128380497Y-66127116D01*
X128374091Y-66067517D01*
X128369128Y-66054211D01*
X128323797Y-65932671D01*
X128323793Y-65932664D01*
X128237547Y-65817455D01*
X128237544Y-65817452D01*
X128122335Y-65731206D01*
X128122328Y-65731202D01*
X127987482Y-65680908D01*
X127987483Y-65680908D01*
X127927883Y-65674501D01*
X127927881Y-65674500D01*
X127927873Y-65674500D01*
X127927864Y-65674500D01*
X126232129Y-65674500D01*
X126232123Y-65674501D01*
X126172516Y-65680908D01*
X126037671Y-65731202D01*
X126037664Y-65731206D01*
X125922455Y-65817452D01*
X125922452Y-65817455D01*
X125836206Y-65932664D01*
X125836202Y-65932671D01*
X125785908Y-66067517D01*
X125781261Y-66110744D01*
X125779501Y-66127123D01*
X125779500Y-66127135D01*
X125779500Y-67822870D01*
X125779501Y-67822876D01*
X125785908Y-67882483D01*
X125836202Y-68017328D01*
X125836206Y-68017335D01*
X125922452Y-68132544D01*
X125922455Y-68132547D01*
X126037664Y-68218793D01*
X126037671Y-68218797D01*
X126066006Y-68229365D01*
X126172517Y-68269091D01*
X126207596Y-68272862D01*
X126272144Y-68299599D01*
X126311993Y-68356991D01*
X126314488Y-68426816D01*
X126278836Y-68486905D01*
X126265464Y-68497725D01*
X126240858Y-68514954D01*
X126079954Y-68675858D01*
X125949432Y-68862265D01*
X125949431Y-68862267D01*
X125853261Y-69068502D01*
X125853258Y-69068511D01*
X125794366Y-69288302D01*
X125794364Y-69288313D01*
X125774532Y-69514998D01*
X121317438Y-69514998D01*
X121292335Y-69496206D01*
X121292328Y-69496202D01*
X121212094Y-69466277D01*
X121156160Y-69424406D01*
X121131743Y-69358941D01*
X121146595Y-69290668D01*
X121164190Y-69266121D01*
X121258979Y-69163153D01*
X121385924Y-68968849D01*
X121479157Y-68756300D01*
X121536134Y-68531305D01*
X121537489Y-68514953D01*
X121555300Y-68300006D01*
X121555300Y-68299993D01*
X121536135Y-68068702D01*
X121536133Y-68068691D01*
X121479157Y-67843699D01*
X121385924Y-67631151D01*
X121258983Y-67436852D01*
X121258980Y-67436849D01*
X121258979Y-67436847D01*
X121101784Y-67266087D01*
X121101779Y-67266083D01*
X121101777Y-67266081D01*
X120918634Y-67123535D01*
X120918628Y-67123531D01*
X120714504Y-67013064D01*
X120714495Y-67013061D01*
X120494984Y-66937702D01*
X120323282Y-66909050D01*
X120266049Y-66899500D01*
X120033951Y-66899500D01*
X119988164Y-66907140D01*
X119805015Y-66937702D01*
X119585504Y-67013061D01*
X119585495Y-67013064D01*
X119381371Y-67123531D01*
X119381365Y-67123535D01*
X119198222Y-67266081D01*
X119198219Y-67266084D01*
X119198216Y-67266086D01*
X119198216Y-67266087D01*
X119180763Y-67285046D01*
X119041016Y-67436852D01*
X118914075Y-67631151D01*
X118820842Y-67843699D01*
X118763866Y-68068691D01*
X118763864Y-68068702D01*
X118744700Y-68299993D01*
X116120500Y-68299993D01*
X116120500Y-60799993D01*
X118744700Y-60799993D01*
X118744700Y-60800006D01*
X118763864Y-61031297D01*
X118763866Y-61031308D01*
X118820842Y-61256300D01*
X118914075Y-61468848D01*
X119041016Y-61663147D01*
X119041019Y-61663151D01*
X119041021Y-61663153D01*
X119135803Y-61766114D01*
X119166724Y-61828767D01*
X119158864Y-61898193D01*
X119114716Y-61952348D01*
X119087906Y-61966277D01*
X119007669Y-61996203D01*
X119007664Y-61996206D01*
X118892455Y-62082452D01*
X118892452Y-62082455D01*
X118806206Y-62197664D01*
X118806202Y-62197671D01*
X118755908Y-62332517D01*
X118749501Y-62392116D01*
X118749501Y-62392123D01*
X118749500Y-62392135D01*
X118749500Y-64287870D01*
X118749501Y-64287876D01*
X118755908Y-64347483D01*
X118806202Y-64482328D01*
X118806206Y-64482335D01*
X118892452Y-64597544D01*
X118892455Y-64597547D01*
X119007664Y-64683793D01*
X119007671Y-64683797D01*
X119142517Y-64734091D01*
X119142516Y-64734091D01*
X119149149Y-64734804D01*
X119202127Y-64740500D01*
X121097872Y-64740499D01*
X121157483Y-64734091D01*
X121292331Y-64683796D01*
X121407546Y-64597546D01*
X121493796Y-64482331D01*
X121544091Y-64347483D01*
X121550500Y-64287873D01*
X121550499Y-62392128D01*
X121544091Y-62332517D01*
X121507997Y-62235745D01*
X121493797Y-62197671D01*
X121493793Y-62197664D01*
X121407547Y-62082455D01*
X121407544Y-62082452D01*
X121292335Y-61996206D01*
X121292328Y-61996202D01*
X121212094Y-61966277D01*
X121156160Y-61924406D01*
X121131743Y-61858941D01*
X121146595Y-61790668D01*
X121164190Y-61766121D01*
X121258979Y-61663153D01*
X121385924Y-61468849D01*
X121479157Y-61256300D01*
X121536134Y-61031305D01*
X121538278Y-61005433D01*
X121555300Y-60800006D01*
X121555300Y-60799993D01*
X121536135Y-60568702D01*
X121536133Y-60568691D01*
X121479157Y-60343699D01*
X121385924Y-60131151D01*
X121258983Y-59936852D01*
X121258980Y-59936849D01*
X121258979Y-59936847D01*
X121101784Y-59766087D01*
X121101779Y-59766083D01*
X121101777Y-59766081D01*
X120918634Y-59623535D01*
X120918628Y-59623531D01*
X120714504Y-59513064D01*
X120714495Y-59513061D01*
X120494984Y-59437702D01*
X120308561Y-59406594D01*
X120266049Y-59399500D01*
X120033951Y-59399500D01*
X119991439Y-59406594D01*
X119805015Y-59437702D01*
X119585504Y-59513061D01*
X119585495Y-59513064D01*
X119381371Y-59623531D01*
X119381365Y-59623535D01*
X119198222Y-59766081D01*
X119198219Y-59766084D01*
X119041016Y-59936852D01*
X118914075Y-60131151D01*
X118820842Y-60343699D01*
X118763866Y-60568691D01*
X118763864Y-60568702D01*
X118744700Y-60799993D01*
X116120500Y-60799993D01*
X116120500Y-58999998D01*
X127294390Y-58999998D01*
X127294390Y-59000001D01*
X127314804Y-59285433D01*
X127375628Y-59565037D01*
X127375630Y-59565043D01*
X127375631Y-59565046D01*
X127450615Y-59766084D01*
X127475635Y-59833166D01*
X127612770Y-60084309D01*
X127612775Y-60084317D01*
X127784254Y-60313387D01*
X127784270Y-60313405D01*
X127986594Y-60515729D01*
X127986612Y-60515745D01*
X128215682Y-60687224D01*
X128215690Y-60687229D01*
X128466833Y-60824364D01*
X128466832Y-60824364D01*
X128466836Y-60824365D01*
X128466839Y-60824367D01*
X128734954Y-60924369D01*
X128734960Y-60924370D01*
X128734962Y-60924371D01*
X129014566Y-60985195D01*
X129014568Y-60985195D01*
X129014572Y-60985196D01*
X129268220Y-61003337D01*
X129299999Y-61005610D01*
X129300000Y-61005610D01*
X129300001Y-61005610D01*
X129328595Y-61003564D01*
X129585428Y-60985196D01*
X129775742Y-60943796D01*
X129865037Y-60924371D01*
X129865037Y-60924370D01*
X129865046Y-60924369D01*
X130133161Y-60824367D01*
X130384315Y-60687226D01*
X130613395Y-60515739D01*
X130815739Y-60313395D01*
X130987226Y-60084315D01*
X131124367Y-59833161D01*
X131224369Y-59565046D01*
X131285196Y-59285428D01*
X131305610Y-59000000D01*
X131285196Y-58714572D01*
X131285156Y-58714390D01*
X131224371Y-58434962D01*
X131224370Y-58434960D01*
X131224369Y-58434954D01*
X131124367Y-58166839D01*
X131090873Y-58105500D01*
X130987229Y-57915690D01*
X130987224Y-57915682D01*
X130815745Y-57686612D01*
X130815729Y-57686594D01*
X130613405Y-57484270D01*
X130613387Y-57484254D01*
X130570481Y-57452135D01*
X132379500Y-57452135D01*
X132379500Y-60547870D01*
X132379501Y-60547876D01*
X132385908Y-60607483D01*
X132436202Y-60742328D01*
X132436206Y-60742335D01*
X132522452Y-60857544D01*
X132522455Y-60857547D01*
X132637664Y-60943793D01*
X132637671Y-60943797D01*
X132772517Y-60994091D01*
X132772516Y-60994091D01*
X132779444Y-60994835D01*
X132832127Y-61000500D01*
X135927872Y-61000499D01*
X135987483Y-60994091D01*
X136122331Y-60943796D01*
X136237546Y-60857546D01*
X136323796Y-60742331D01*
X136332126Y-60719998D01*
X153954390Y-60719998D01*
X153954390Y-60720001D01*
X153974804Y-61005433D01*
X154035628Y-61285037D01*
X154035630Y-61285043D01*
X154035631Y-61285046D01*
X154127743Y-61532007D01*
X154135635Y-61553166D01*
X154272770Y-61804309D01*
X154272775Y-61804317D01*
X154444254Y-62033387D01*
X154444270Y-62033405D01*
X154646594Y-62235729D01*
X154646612Y-62235745D01*
X154875682Y-62407224D01*
X154875690Y-62407229D01*
X155126833Y-62544364D01*
X155126832Y-62544364D01*
X155126836Y-62544365D01*
X155126839Y-62544367D01*
X155394954Y-62644369D01*
X155394960Y-62644370D01*
X155394962Y-62644371D01*
X155674566Y-62705195D01*
X155674568Y-62705195D01*
X155674572Y-62705196D01*
X155928220Y-62723337D01*
X155959999Y-62725610D01*
X155960000Y-62725610D01*
X155960001Y-62725610D01*
X155988595Y-62723564D01*
X156245428Y-62705196D01*
X156350317Y-62682379D01*
X156525037Y-62644371D01*
X156525037Y-62644370D01*
X156525046Y-62644369D01*
X156793161Y-62544367D01*
X157044315Y-62407226D01*
X157273395Y-62235739D01*
X157475739Y-62033395D01*
X157647226Y-61804315D01*
X157784367Y-61553161D01*
X157884369Y-61285046D01*
X157945196Y-61005428D01*
X157965610Y-60720000D01*
X157945196Y-60434572D01*
X157944559Y-60431645D01*
X157884371Y-60154962D01*
X157884370Y-60154960D01*
X157884369Y-60154954D01*
X157784367Y-59886839D01*
X157755056Y-59833161D01*
X157647229Y-59635690D01*
X157647224Y-59635682D01*
X157475745Y-59406612D01*
X157475729Y-59406594D01*
X157273405Y-59204270D01*
X157273387Y-59204254D01*
X157044317Y-59032775D01*
X157044309Y-59032770D01*
X156793166Y-58895635D01*
X156793167Y-58895635D01*
X156685915Y-58855632D01*
X156525046Y-58795631D01*
X156525043Y-58795630D01*
X156525037Y-58795628D01*
X156245433Y-58734804D01*
X155960001Y-58714390D01*
X155959999Y-58714390D01*
X155674566Y-58734804D01*
X155394962Y-58795628D01*
X155126833Y-58895635D01*
X154875690Y-59032770D01*
X154875682Y-59032775D01*
X154646612Y-59204254D01*
X154646594Y-59204270D01*
X154444270Y-59406594D01*
X154444254Y-59406612D01*
X154272775Y-59635682D01*
X154272770Y-59635690D01*
X154135635Y-59886833D01*
X154035628Y-60154962D01*
X153974804Y-60434566D01*
X153954390Y-60719998D01*
X136332126Y-60719998D01*
X136374091Y-60607483D01*
X136380500Y-60547873D01*
X136380499Y-57452128D01*
X136374091Y-57392517D01*
X136345496Y-57315851D01*
X136323797Y-57257671D01*
X136323793Y-57257664D01*
X136237547Y-57142455D01*
X136237544Y-57142452D01*
X136122335Y-57056206D01*
X136122328Y-57056202D01*
X135987482Y-57005908D01*
X135987483Y-57005908D01*
X135927883Y-56999501D01*
X135927881Y-56999500D01*
X135927873Y-56999500D01*
X135927864Y-56999500D01*
X132832129Y-56999500D01*
X132832123Y-56999501D01*
X132772516Y-57005908D01*
X132637671Y-57056202D01*
X132637664Y-57056206D01*
X132522455Y-57142452D01*
X132522452Y-57142455D01*
X132436206Y-57257664D01*
X132436202Y-57257671D01*
X132385908Y-57392517D01*
X132382189Y-57427115D01*
X132379501Y-57452123D01*
X132379500Y-57452135D01*
X130570481Y-57452135D01*
X130384317Y-57312775D01*
X130384309Y-57312770D01*
X130133166Y-57175635D01*
X130133167Y-57175635D01*
X129890028Y-57084949D01*
X129865046Y-57075631D01*
X129865043Y-57075630D01*
X129865037Y-57075628D01*
X129585433Y-57014804D01*
X129300001Y-56994390D01*
X129299999Y-56994390D01*
X129014566Y-57014804D01*
X128734962Y-57075628D01*
X128466833Y-57175635D01*
X128215690Y-57312770D01*
X128215682Y-57312775D01*
X127986612Y-57484254D01*
X127986594Y-57484270D01*
X127784270Y-57686594D01*
X127784254Y-57686612D01*
X127612775Y-57915682D01*
X127612770Y-57915690D01*
X127475635Y-58166833D01*
X127375628Y-58434962D01*
X127314804Y-58714566D01*
X127294390Y-58999998D01*
X116120500Y-58999998D01*
X116120500Y-55428608D01*
X116140185Y-55361569D01*
X116192989Y-55315814D01*
X116262147Y-55305870D01*
X116325703Y-55334895D01*
X116363477Y-55393673D01*
X116364257Y-55396450D01*
X116392852Y-55503166D01*
X116406260Y-55553206D01*
X116537746Y-55895739D01*
X116704320Y-56222656D01*
X116904147Y-56530364D01*
X117005234Y-56655196D01*
X117135051Y-56815506D01*
X117394494Y-57074949D01*
X117395336Y-57075631D01*
X117679635Y-57305852D01*
X117954362Y-57484261D01*
X117987348Y-57505682D01*
X118314264Y-57672255D01*
X118656801Y-57803742D01*
X119011206Y-57898705D01*
X119373596Y-57956102D01*
X119719734Y-57974241D01*
X119739999Y-57975304D01*
X119740000Y-57975304D01*
X119740001Y-57975304D01*
X119759203Y-57974297D01*
X120106404Y-57956102D01*
X120468794Y-57898705D01*
X120823199Y-57803742D01*
X121165736Y-57672255D01*
X121492652Y-57505682D01*
X121800366Y-57305851D01*
X122085506Y-57074949D01*
X122344949Y-56815506D01*
X122575851Y-56530366D01*
X122775682Y-56222652D01*
X122942255Y-55895736D01*
X123073742Y-55553199D01*
X123168705Y-55198794D01*
X123226102Y-54836404D01*
X123234823Y-54669998D01*
X139804390Y-54669998D01*
X139804390Y-54670001D01*
X139824804Y-54955433D01*
X139885628Y-55235037D01*
X139885630Y-55235043D01*
X139885631Y-55235046D01*
X139985633Y-55503161D01*
X139985635Y-55503166D01*
X140122770Y-55754309D01*
X140122775Y-55754317D01*
X140294254Y-55983387D01*
X140294270Y-55983405D01*
X140496594Y-56185729D01*
X140496612Y-56185745D01*
X140725682Y-56357224D01*
X140725690Y-56357229D01*
X140976833Y-56494364D01*
X140976832Y-56494364D01*
X140976836Y-56494365D01*
X140976839Y-56494367D01*
X141244954Y-56594369D01*
X141244960Y-56594370D01*
X141244962Y-56594371D01*
X141524566Y-56655195D01*
X141524568Y-56655195D01*
X141524572Y-56655196D01*
X141778220Y-56673337D01*
X141809999Y-56675610D01*
X141810000Y-56675610D01*
X141810001Y-56675610D01*
X141838595Y-56673564D01*
X142095428Y-56655196D01*
X142375046Y-56594369D01*
X142643161Y-56494367D01*
X142894315Y-56357226D01*
X143123395Y-56185739D01*
X143325739Y-55983395D01*
X143497226Y-55754315D01*
X143634367Y-55503161D01*
X143734369Y-55235046D01*
X143795196Y-54955428D01*
X143815610Y-54670000D01*
X143815610Y-54669995D01*
X152254592Y-54669995D01*
X152254592Y-54670004D01*
X152274196Y-54931620D01*
X152274197Y-54931625D01*
X152332576Y-55187402D01*
X152332578Y-55187411D01*
X152332580Y-55187416D01*
X152428432Y-55431643D01*
X152559614Y-55658857D01*
X152635741Y-55754317D01*
X152723198Y-55863985D01*
X152855331Y-55986585D01*
X152915521Y-56042433D01*
X153132296Y-56190228D01*
X153132301Y-56190230D01*
X153132302Y-56190231D01*
X153132303Y-56190232D01*
X153256217Y-56249905D01*
X153368673Y-56304061D01*
X153368674Y-56304061D01*
X153368677Y-56304063D01*
X153619385Y-56381396D01*
X153878818Y-56420500D01*
X154141182Y-56420500D01*
X154400615Y-56381396D01*
X154651323Y-56304063D01*
X154887704Y-56190228D01*
X155104479Y-56042433D01*
X155296805Y-55863981D01*
X155460386Y-55658857D01*
X155591568Y-55431643D01*
X155687420Y-55187416D01*
X155745802Y-54931630D01*
X155752938Y-54836404D01*
X155765408Y-54670004D01*
X155765408Y-54669995D01*
X155745803Y-54408379D01*
X155745802Y-54408374D01*
X155745802Y-54408370D01*
X155687420Y-54152584D01*
X155591568Y-53908357D01*
X155460386Y-53681143D01*
X155296805Y-53476019D01*
X155296804Y-53476018D01*
X155296801Y-53476014D01*
X155104479Y-53297567D01*
X155057969Y-53265857D01*
X154887704Y-53149772D01*
X154887700Y-53149770D01*
X154887697Y-53149768D01*
X154887696Y-53149767D01*
X154651325Y-53035938D01*
X154651327Y-53035938D01*
X154400623Y-52958606D01*
X154400619Y-52958605D01*
X154400615Y-52958604D01*
X154275823Y-52939794D01*
X154141187Y-52919500D01*
X154141182Y-52919500D01*
X153878818Y-52919500D01*
X153878812Y-52919500D01*
X153717247Y-52943853D01*
X153619385Y-52958604D01*
X153619382Y-52958605D01*
X153619376Y-52958606D01*
X153368673Y-53035938D01*
X153132303Y-53149767D01*
X153132302Y-53149768D01*
X152915520Y-53297567D01*
X152723198Y-53476014D01*
X152559614Y-53681143D01*
X152428432Y-53908356D01*
X152332582Y-54152578D01*
X152332576Y-54152597D01*
X152274197Y-54408374D01*
X152274196Y-54408379D01*
X152254592Y-54669995D01*
X143815610Y-54669995D01*
X143795196Y-54384572D01*
X143744730Y-54152584D01*
X143734371Y-54104962D01*
X143734370Y-54104960D01*
X143734369Y-54104954D01*
X143634367Y-53836839D01*
X143587610Y-53751211D01*
X143497229Y-53585690D01*
X143497224Y-53585682D01*
X143325745Y-53356612D01*
X143325729Y-53356594D01*
X143123405Y-53154270D01*
X143123387Y-53154254D01*
X142894317Y-52982775D01*
X142894309Y-52982770D01*
X142643166Y-52845635D01*
X142643167Y-52845635D01*
X142535915Y-52805632D01*
X142375046Y-52745631D01*
X142375043Y-52745630D01*
X142375037Y-52745628D01*
X142095433Y-52684804D01*
X141810001Y-52664390D01*
X141809999Y-52664390D01*
X141524566Y-52684804D01*
X141244962Y-52745628D01*
X140976833Y-52845635D01*
X140725690Y-52982770D01*
X140725682Y-52982775D01*
X140496612Y-53154254D01*
X140496594Y-53154270D01*
X140294270Y-53356594D01*
X140294254Y-53356612D01*
X140122775Y-53585682D01*
X140122770Y-53585690D01*
X139985635Y-53836833D01*
X139885628Y-54104962D01*
X139824804Y-54384566D01*
X139804390Y-54669998D01*
X123234823Y-54669998D01*
X123245304Y-54470000D01*
X123226102Y-54103596D01*
X123168705Y-53741206D01*
X123073742Y-53386801D01*
X122942255Y-53044264D01*
X122775682Y-52717348D01*
X122741291Y-52664390D01*
X122575852Y-52409635D01*
X122353047Y-52134494D01*
X122344949Y-52124494D01*
X122085506Y-51865051D01*
X121812715Y-51644149D01*
X121800364Y-51634147D01*
X121492656Y-51434320D01*
X121162843Y-51266271D01*
X121163205Y-51265560D01*
X121112582Y-51222537D01*
X121092255Y-51155690D01*
X121111295Y-51088465D01*
X121163657Y-51042205D01*
X121216249Y-51030500D01*
X171359316Y-51030500D01*
X171426355Y-51050185D01*
G37*
%TD.AperFunction*%
%TD*%
M02*
