%TF.GenerationSoftware,KiCad,Pcbnew,8.0.4*%
%TF.CreationDate,2024-11-13T12:07:51+05:30*%
%TF.ProjectId,cccccccc,63636363-6363-4636-932e-6b696361645f,rev?*%
%TF.SameCoordinates,Original*%
%TF.FileFunction,Legend,Top*%
%TF.FilePolarity,Positive*%
%FSLAX46Y46*%
G04 Gerber Fmt 4.6, Leading zero omitted, Abs format (unit mm)*
G04 Created by KiCad (PCBNEW 8.0.4) date 2024-11-13 12:07:51*
%MOMM*%
%LPD*%
G01*
G04 APERTURE LIST*
%ADD10C,0.150000*%
%ADD11C,0.300000*%
%ADD12C,0.100000*%
%ADD13C,0.200000*%
%ADD14C,0.125000*%
%ADD15C,0.120000*%
G04 APERTURE END LIST*
D10*
X134913220Y-54661133D02*
X134151316Y-54661133D01*
X128188866Y-54963220D02*
X128188866Y-54201316D01*
X128569819Y-54582268D02*
X127807914Y-54582268D01*
D11*
X128240225Y-51950828D02*
X128525939Y-51950828D01*
X128525939Y-51950828D02*
X128668796Y-52022257D01*
X128668796Y-52022257D02*
X128811653Y-52165114D01*
X128811653Y-52165114D02*
X128883082Y-52450828D01*
X128883082Y-52450828D02*
X128883082Y-52950828D01*
X128883082Y-52950828D02*
X128811653Y-53236542D01*
X128811653Y-53236542D02*
X128668796Y-53379400D01*
X128668796Y-53379400D02*
X128525939Y-53450828D01*
X128525939Y-53450828D02*
X128240225Y-53450828D01*
X128240225Y-53450828D02*
X128097368Y-53379400D01*
X128097368Y-53379400D02*
X127954510Y-53236542D01*
X127954510Y-53236542D02*
X127883082Y-52950828D01*
X127883082Y-52950828D02*
X127883082Y-52450828D01*
X127883082Y-52450828D02*
X127954510Y-52165114D01*
X127954510Y-52165114D02*
X128097368Y-52022257D01*
X128097368Y-52022257D02*
X128240225Y-51950828D01*
X130168797Y-52450828D02*
X130168797Y-53450828D01*
X129525939Y-52450828D02*
X129525939Y-53236542D01*
X129525939Y-53236542D02*
X129597368Y-53379400D01*
X129597368Y-53379400D02*
X129740225Y-53450828D01*
X129740225Y-53450828D02*
X129954511Y-53450828D01*
X129954511Y-53450828D02*
X130097368Y-53379400D01*
X130097368Y-53379400D02*
X130168797Y-53307971D01*
X130668797Y-52450828D02*
X131240225Y-52450828D01*
X130883082Y-51950828D02*
X130883082Y-53236542D01*
X130883082Y-53236542D02*
X130954511Y-53379400D01*
X130954511Y-53379400D02*
X131097368Y-53450828D01*
X131097368Y-53450828D02*
X131240225Y-53450828D01*
X131740225Y-52450828D02*
X131740225Y-53950828D01*
X131740225Y-52522257D02*
X131883083Y-52450828D01*
X131883083Y-52450828D02*
X132168797Y-52450828D01*
X132168797Y-52450828D02*
X132311654Y-52522257D01*
X132311654Y-52522257D02*
X132383083Y-52593685D01*
X132383083Y-52593685D02*
X132454511Y-52736542D01*
X132454511Y-52736542D02*
X132454511Y-53165114D01*
X132454511Y-53165114D02*
X132383083Y-53307971D01*
X132383083Y-53307971D02*
X132311654Y-53379400D01*
X132311654Y-53379400D02*
X132168797Y-53450828D01*
X132168797Y-53450828D02*
X131883083Y-53450828D01*
X131883083Y-53450828D02*
X131740225Y-53379400D01*
X133311654Y-53450828D02*
X133168797Y-53379400D01*
X133168797Y-53379400D02*
X133097368Y-53307971D01*
X133097368Y-53307971D02*
X133025940Y-53165114D01*
X133025940Y-53165114D02*
X133025940Y-52736542D01*
X133025940Y-52736542D02*
X133097368Y-52593685D01*
X133097368Y-52593685D02*
X133168797Y-52522257D01*
X133168797Y-52522257D02*
X133311654Y-52450828D01*
X133311654Y-52450828D02*
X133525940Y-52450828D01*
X133525940Y-52450828D02*
X133668797Y-52522257D01*
X133668797Y-52522257D02*
X133740226Y-52593685D01*
X133740226Y-52593685D02*
X133811654Y-52736542D01*
X133811654Y-52736542D02*
X133811654Y-53165114D01*
X133811654Y-53165114D02*
X133740226Y-53307971D01*
X133740226Y-53307971D02*
X133668797Y-53379400D01*
X133668797Y-53379400D02*
X133525940Y-53450828D01*
X133525940Y-53450828D02*
X133311654Y-53450828D01*
X135097369Y-52450828D02*
X135097369Y-53450828D01*
X134454511Y-52450828D02*
X134454511Y-53236542D01*
X134454511Y-53236542D02*
X134525940Y-53379400D01*
X134525940Y-53379400D02*
X134668797Y-53450828D01*
X134668797Y-53450828D02*
X134883083Y-53450828D01*
X134883083Y-53450828D02*
X135025940Y-53379400D01*
X135025940Y-53379400D02*
X135097369Y-53307971D01*
X135597369Y-52450828D02*
X136168797Y-52450828D01*
X135811654Y-51950828D02*
X135811654Y-53236542D01*
X135811654Y-53236542D02*
X135883083Y-53379400D01*
X135883083Y-53379400D02*
X136025940Y-53450828D01*
X136025940Y-53450828D02*
X136168797Y-53450828D01*
D12*
X174263408Y-61783609D02*
X174430074Y-62283609D01*
X174430074Y-62283609D02*
X174596741Y-61783609D01*
X175049121Y-62235990D02*
X175025312Y-62259800D01*
X175025312Y-62259800D02*
X174953883Y-62283609D01*
X174953883Y-62283609D02*
X174906264Y-62283609D01*
X174906264Y-62283609D02*
X174834836Y-62259800D01*
X174834836Y-62259800D02*
X174787217Y-62212180D01*
X174787217Y-62212180D02*
X174763407Y-62164561D01*
X174763407Y-62164561D02*
X174739598Y-62069323D01*
X174739598Y-62069323D02*
X174739598Y-61997895D01*
X174739598Y-61997895D02*
X174763407Y-61902657D01*
X174763407Y-61902657D02*
X174787217Y-61855038D01*
X174787217Y-61855038D02*
X174834836Y-61807419D01*
X174834836Y-61807419D02*
X174906264Y-61783609D01*
X174906264Y-61783609D02*
X174953883Y-61783609D01*
X174953883Y-61783609D02*
X175025312Y-61807419D01*
X175025312Y-61807419D02*
X175049121Y-61831228D01*
X175549121Y-62235990D02*
X175525312Y-62259800D01*
X175525312Y-62259800D02*
X175453883Y-62283609D01*
X175453883Y-62283609D02*
X175406264Y-62283609D01*
X175406264Y-62283609D02*
X175334836Y-62259800D01*
X175334836Y-62259800D02*
X175287217Y-62212180D01*
X175287217Y-62212180D02*
X175263407Y-62164561D01*
X175263407Y-62164561D02*
X175239598Y-62069323D01*
X175239598Y-62069323D02*
X175239598Y-61997895D01*
X175239598Y-61997895D02*
X175263407Y-61902657D01*
X175263407Y-61902657D02*
X175287217Y-61855038D01*
X175287217Y-61855038D02*
X175334836Y-61807419D01*
X175334836Y-61807419D02*
X175406264Y-61783609D01*
X175406264Y-61783609D02*
X175453883Y-61783609D01*
X175453883Y-61783609D02*
X175525312Y-61807419D01*
X175525312Y-61807419D02*
X175549121Y-61831228D01*
X159511027Y-54159800D02*
X159582455Y-54183609D01*
X159582455Y-54183609D02*
X159701503Y-54183609D01*
X159701503Y-54183609D02*
X159749122Y-54159800D01*
X159749122Y-54159800D02*
X159772931Y-54135990D01*
X159772931Y-54135990D02*
X159796741Y-54088371D01*
X159796741Y-54088371D02*
X159796741Y-54040752D01*
X159796741Y-54040752D02*
X159772931Y-53993133D01*
X159772931Y-53993133D02*
X159749122Y-53969323D01*
X159749122Y-53969323D02*
X159701503Y-53945514D01*
X159701503Y-53945514D02*
X159606265Y-53921704D01*
X159606265Y-53921704D02*
X159558646Y-53897895D01*
X159558646Y-53897895D02*
X159534836Y-53874085D01*
X159534836Y-53874085D02*
X159511027Y-53826466D01*
X159511027Y-53826466D02*
X159511027Y-53778847D01*
X159511027Y-53778847D02*
X159534836Y-53731228D01*
X159534836Y-53731228D02*
X159558646Y-53707419D01*
X159558646Y-53707419D02*
X159606265Y-53683609D01*
X159606265Y-53683609D02*
X159725312Y-53683609D01*
X159725312Y-53683609D02*
X159796741Y-53707419D01*
X160011026Y-54183609D02*
X160011026Y-53850276D01*
X160011026Y-53683609D02*
X159987217Y-53707419D01*
X159987217Y-53707419D02*
X160011026Y-53731228D01*
X160011026Y-53731228D02*
X160034836Y-53707419D01*
X160034836Y-53707419D02*
X160011026Y-53683609D01*
X160011026Y-53683609D02*
X160011026Y-53731228D01*
X160463407Y-53850276D02*
X160463407Y-54255038D01*
X160463407Y-54255038D02*
X160439597Y-54302657D01*
X160439597Y-54302657D02*
X160415788Y-54326466D01*
X160415788Y-54326466D02*
X160368169Y-54350276D01*
X160368169Y-54350276D02*
X160296740Y-54350276D01*
X160296740Y-54350276D02*
X160249121Y-54326466D01*
X160463407Y-54159800D02*
X160415788Y-54183609D01*
X160415788Y-54183609D02*
X160320550Y-54183609D01*
X160320550Y-54183609D02*
X160272931Y-54159800D01*
X160272931Y-54159800D02*
X160249121Y-54135990D01*
X160249121Y-54135990D02*
X160225312Y-54088371D01*
X160225312Y-54088371D02*
X160225312Y-53945514D01*
X160225312Y-53945514D02*
X160249121Y-53897895D01*
X160249121Y-53897895D02*
X160272931Y-53874085D01*
X160272931Y-53874085D02*
X160320550Y-53850276D01*
X160320550Y-53850276D02*
X160415788Y-53850276D01*
X160415788Y-53850276D02*
X160463407Y-53874085D01*
X160701502Y-53850276D02*
X160701502Y-54183609D01*
X160701502Y-53897895D02*
X160725312Y-53874085D01*
X160725312Y-53874085D02*
X160772931Y-53850276D01*
X160772931Y-53850276D02*
X160844359Y-53850276D01*
X160844359Y-53850276D02*
X160891978Y-53874085D01*
X160891978Y-53874085D02*
X160915788Y-53921704D01*
X160915788Y-53921704D02*
X160915788Y-54183609D01*
X161368169Y-54183609D02*
X161368169Y-53921704D01*
X161368169Y-53921704D02*
X161344359Y-53874085D01*
X161344359Y-53874085D02*
X161296740Y-53850276D01*
X161296740Y-53850276D02*
X161201502Y-53850276D01*
X161201502Y-53850276D02*
X161153883Y-53874085D01*
X161368169Y-54159800D02*
X161320550Y-54183609D01*
X161320550Y-54183609D02*
X161201502Y-54183609D01*
X161201502Y-54183609D02*
X161153883Y-54159800D01*
X161153883Y-54159800D02*
X161130074Y-54112180D01*
X161130074Y-54112180D02*
X161130074Y-54064561D01*
X161130074Y-54064561D02*
X161153883Y-54016942D01*
X161153883Y-54016942D02*
X161201502Y-53993133D01*
X161201502Y-53993133D02*
X161320550Y-53993133D01*
X161320550Y-53993133D02*
X161368169Y-53969323D01*
X161677693Y-54183609D02*
X161630074Y-54159800D01*
X161630074Y-54159800D02*
X161606264Y-54112180D01*
X161606264Y-54112180D02*
X161606264Y-53683609D01*
X166296741Y-53707419D02*
X166249122Y-53683609D01*
X166249122Y-53683609D02*
X166177693Y-53683609D01*
X166177693Y-53683609D02*
X166106265Y-53707419D01*
X166106265Y-53707419D02*
X166058646Y-53755038D01*
X166058646Y-53755038D02*
X166034836Y-53802657D01*
X166034836Y-53802657D02*
X166011027Y-53897895D01*
X166011027Y-53897895D02*
X166011027Y-53969323D01*
X166011027Y-53969323D02*
X166034836Y-54064561D01*
X166034836Y-54064561D02*
X166058646Y-54112180D01*
X166058646Y-54112180D02*
X166106265Y-54159800D01*
X166106265Y-54159800D02*
X166177693Y-54183609D01*
X166177693Y-54183609D02*
X166225312Y-54183609D01*
X166225312Y-54183609D02*
X166296741Y-54159800D01*
X166296741Y-54159800D02*
X166320550Y-54135990D01*
X166320550Y-54135990D02*
X166320550Y-53969323D01*
X166320550Y-53969323D02*
X166225312Y-53969323D01*
X166534836Y-54183609D02*
X166534836Y-53683609D01*
X166534836Y-53683609D02*
X166820550Y-54183609D01*
X166820550Y-54183609D02*
X166820550Y-53683609D01*
X167058646Y-54183609D02*
X167058646Y-53683609D01*
X167058646Y-53683609D02*
X167177694Y-53683609D01*
X167177694Y-53683609D02*
X167249122Y-53707419D01*
X167249122Y-53707419D02*
X167296741Y-53755038D01*
X167296741Y-53755038D02*
X167320551Y-53802657D01*
X167320551Y-53802657D02*
X167344360Y-53897895D01*
X167344360Y-53897895D02*
X167344360Y-53969323D01*
X167344360Y-53969323D02*
X167320551Y-54064561D01*
X167320551Y-54064561D02*
X167296741Y-54112180D01*
X167296741Y-54112180D02*
X167249122Y-54159800D01*
X167249122Y-54159800D02*
X167177694Y-54183609D01*
X167177694Y-54183609D02*
X167058646Y-54183609D01*
X175396742Y-74533609D02*
X175301504Y-74533609D01*
X175301504Y-74533609D02*
X175253885Y-74557419D01*
X175253885Y-74557419D02*
X175230075Y-74581228D01*
X175230075Y-74581228D02*
X175182456Y-74652657D01*
X175182456Y-74652657D02*
X175158647Y-74747895D01*
X175158647Y-74747895D02*
X175158647Y-74938371D01*
X175158647Y-74938371D02*
X175182456Y-74985990D01*
X175182456Y-74985990D02*
X175206266Y-75009800D01*
X175206266Y-75009800D02*
X175253885Y-75033609D01*
X175253885Y-75033609D02*
X175349123Y-75033609D01*
X175349123Y-75033609D02*
X175396742Y-75009800D01*
X175396742Y-75009800D02*
X175420551Y-74985990D01*
X175420551Y-74985990D02*
X175444361Y-74938371D01*
X175444361Y-74938371D02*
X175444361Y-74819323D01*
X175444361Y-74819323D02*
X175420551Y-74771704D01*
X175420551Y-74771704D02*
X175396742Y-74747895D01*
X175396742Y-74747895D02*
X175349123Y-74724085D01*
X175349123Y-74724085D02*
X175253885Y-74724085D01*
X175253885Y-74724085D02*
X175206266Y-74747895D01*
X175206266Y-74747895D02*
X175182456Y-74771704D01*
X175182456Y-74771704D02*
X175158647Y-74819323D01*
X175420551Y-71933609D02*
X175182456Y-71933609D01*
X175182456Y-71933609D02*
X175158647Y-72171704D01*
X175158647Y-72171704D02*
X175182456Y-72147895D01*
X175182456Y-72147895D02*
X175230075Y-72124085D01*
X175230075Y-72124085D02*
X175349123Y-72124085D01*
X175349123Y-72124085D02*
X175396742Y-72147895D01*
X175396742Y-72147895D02*
X175420551Y-72171704D01*
X175420551Y-72171704D02*
X175444361Y-72219323D01*
X175444361Y-72219323D02*
X175444361Y-72338371D01*
X175444361Y-72338371D02*
X175420551Y-72385990D01*
X175420551Y-72385990D02*
X175396742Y-72409800D01*
X175396742Y-72409800D02*
X175349123Y-72433609D01*
X175349123Y-72433609D02*
X175230075Y-72433609D01*
X175230075Y-72433609D02*
X175182456Y-72409800D01*
X175182456Y-72409800D02*
X175158647Y-72385990D01*
X162863408Y-53683609D02*
X163030074Y-54183609D01*
X163030074Y-54183609D02*
X163196741Y-53683609D01*
X163649121Y-54135990D02*
X163625312Y-54159800D01*
X163625312Y-54159800D02*
X163553883Y-54183609D01*
X163553883Y-54183609D02*
X163506264Y-54183609D01*
X163506264Y-54183609D02*
X163434836Y-54159800D01*
X163434836Y-54159800D02*
X163387217Y-54112180D01*
X163387217Y-54112180D02*
X163363407Y-54064561D01*
X163363407Y-54064561D02*
X163339598Y-53969323D01*
X163339598Y-53969323D02*
X163339598Y-53897895D01*
X163339598Y-53897895D02*
X163363407Y-53802657D01*
X163363407Y-53802657D02*
X163387217Y-53755038D01*
X163387217Y-53755038D02*
X163434836Y-53707419D01*
X163434836Y-53707419D02*
X163506264Y-53683609D01*
X163506264Y-53683609D02*
X163553883Y-53683609D01*
X163553883Y-53683609D02*
X163625312Y-53707419D01*
X163625312Y-53707419D02*
X163649121Y-53731228D01*
X164149121Y-54135990D02*
X164125312Y-54159800D01*
X164125312Y-54159800D02*
X164053883Y-54183609D01*
X164053883Y-54183609D02*
X164006264Y-54183609D01*
X164006264Y-54183609D02*
X163934836Y-54159800D01*
X163934836Y-54159800D02*
X163887217Y-54112180D01*
X163887217Y-54112180D02*
X163863407Y-54064561D01*
X163863407Y-54064561D02*
X163839598Y-53969323D01*
X163839598Y-53969323D02*
X163839598Y-53897895D01*
X163839598Y-53897895D02*
X163863407Y-53802657D01*
X163863407Y-53802657D02*
X163887217Y-53755038D01*
X163887217Y-53755038D02*
X163934836Y-53707419D01*
X163934836Y-53707419D02*
X164006264Y-53683609D01*
X164006264Y-53683609D02*
X164053883Y-53683609D01*
X164053883Y-53683609D02*
X164125312Y-53707419D01*
X164125312Y-53707419D02*
X164149121Y-53731228D01*
D13*
X140272054Y-83569600D02*
X140414911Y-83617219D01*
X140414911Y-83617219D02*
X140653006Y-83617219D01*
X140653006Y-83617219D02*
X140748244Y-83569600D01*
X140748244Y-83569600D02*
X140795863Y-83521980D01*
X140795863Y-83521980D02*
X140843482Y-83426742D01*
X140843482Y-83426742D02*
X140843482Y-83331504D01*
X140843482Y-83331504D02*
X140795863Y-83236266D01*
X140795863Y-83236266D02*
X140748244Y-83188647D01*
X140748244Y-83188647D02*
X140653006Y-83141028D01*
X140653006Y-83141028D02*
X140462530Y-83093409D01*
X140462530Y-83093409D02*
X140367292Y-83045790D01*
X140367292Y-83045790D02*
X140319673Y-82998171D01*
X140319673Y-82998171D02*
X140272054Y-82902933D01*
X140272054Y-82902933D02*
X140272054Y-82807695D01*
X140272054Y-82807695D02*
X140319673Y-82712457D01*
X140319673Y-82712457D02*
X140367292Y-82664838D01*
X140367292Y-82664838D02*
X140462530Y-82617219D01*
X140462530Y-82617219D02*
X140700625Y-82617219D01*
X140700625Y-82617219D02*
X140843482Y-82664838D01*
X141272054Y-83617219D02*
X141272054Y-82950552D01*
X141272054Y-83045790D02*
X141319673Y-82998171D01*
X141319673Y-82998171D02*
X141414911Y-82950552D01*
X141414911Y-82950552D02*
X141557768Y-82950552D01*
X141557768Y-82950552D02*
X141653006Y-82998171D01*
X141653006Y-82998171D02*
X141700625Y-83093409D01*
X141700625Y-83093409D02*
X141700625Y-83617219D01*
X141700625Y-83093409D02*
X141748244Y-82998171D01*
X141748244Y-82998171D02*
X141843482Y-82950552D01*
X141843482Y-82950552D02*
X141986339Y-82950552D01*
X141986339Y-82950552D02*
X142081578Y-82998171D01*
X142081578Y-82998171D02*
X142129197Y-83093409D01*
X142129197Y-83093409D02*
X142129197Y-83617219D01*
X143033958Y-83617219D02*
X143033958Y-83093409D01*
X143033958Y-83093409D02*
X142986339Y-82998171D01*
X142986339Y-82998171D02*
X142891101Y-82950552D01*
X142891101Y-82950552D02*
X142700625Y-82950552D01*
X142700625Y-82950552D02*
X142605387Y-82998171D01*
X143033958Y-83569600D02*
X142938720Y-83617219D01*
X142938720Y-83617219D02*
X142700625Y-83617219D01*
X142700625Y-83617219D02*
X142605387Y-83569600D01*
X142605387Y-83569600D02*
X142557768Y-83474361D01*
X142557768Y-83474361D02*
X142557768Y-83379123D01*
X142557768Y-83379123D02*
X142605387Y-83283885D01*
X142605387Y-83283885D02*
X142700625Y-83236266D01*
X142700625Y-83236266D02*
X142938720Y-83236266D01*
X142938720Y-83236266D02*
X143033958Y-83188647D01*
X143510149Y-83617219D02*
X143510149Y-82950552D01*
X143510149Y-83141028D02*
X143557768Y-83045790D01*
X143557768Y-83045790D02*
X143605387Y-82998171D01*
X143605387Y-82998171D02*
X143700625Y-82950552D01*
X143700625Y-82950552D02*
X143795863Y-82950552D01*
X143986340Y-82950552D02*
X144367292Y-82950552D01*
X144129197Y-82617219D02*
X144129197Y-83474361D01*
X144129197Y-83474361D02*
X144176816Y-83569600D01*
X144176816Y-83569600D02*
X144272054Y-83617219D01*
X144272054Y-83617219D02*
X144367292Y-83617219D01*
X144462531Y-83712457D02*
X145224435Y-83712457D01*
X145891102Y-83569600D02*
X145795864Y-83617219D01*
X145795864Y-83617219D02*
X145605388Y-83617219D01*
X145605388Y-83617219D02*
X145510150Y-83569600D01*
X145510150Y-83569600D02*
X145462531Y-83521980D01*
X145462531Y-83521980D02*
X145414912Y-83426742D01*
X145414912Y-83426742D02*
X145414912Y-83141028D01*
X145414912Y-83141028D02*
X145462531Y-83045790D01*
X145462531Y-83045790D02*
X145510150Y-82998171D01*
X145510150Y-82998171D02*
X145605388Y-82950552D01*
X145605388Y-82950552D02*
X145795864Y-82950552D01*
X145795864Y-82950552D02*
X145891102Y-82998171D01*
X146319674Y-83617219D02*
X146319674Y-82617219D01*
X146748245Y-83617219D02*
X146748245Y-83093409D01*
X146748245Y-83093409D02*
X146700626Y-82998171D01*
X146700626Y-82998171D02*
X146605388Y-82950552D01*
X146605388Y-82950552D02*
X146462531Y-82950552D01*
X146462531Y-82950552D02*
X146367293Y-82998171D01*
X146367293Y-82998171D02*
X146319674Y-83045790D01*
X147653007Y-83617219D02*
X147653007Y-83093409D01*
X147653007Y-83093409D02*
X147605388Y-82998171D01*
X147605388Y-82998171D02*
X147510150Y-82950552D01*
X147510150Y-82950552D02*
X147319674Y-82950552D01*
X147319674Y-82950552D02*
X147224436Y-82998171D01*
X147653007Y-83569600D02*
X147557769Y-83617219D01*
X147557769Y-83617219D02*
X147319674Y-83617219D01*
X147319674Y-83617219D02*
X147224436Y-83569600D01*
X147224436Y-83569600D02*
X147176817Y-83474361D01*
X147176817Y-83474361D02*
X147176817Y-83379123D01*
X147176817Y-83379123D02*
X147224436Y-83283885D01*
X147224436Y-83283885D02*
X147319674Y-83236266D01*
X147319674Y-83236266D02*
X147557769Y-83236266D01*
X147557769Y-83236266D02*
X147653007Y-83188647D01*
X148129198Y-83617219D02*
X148129198Y-82950552D01*
X148129198Y-83141028D02*
X148176817Y-83045790D01*
X148176817Y-83045790D02*
X148224436Y-82998171D01*
X148224436Y-82998171D02*
X148319674Y-82950552D01*
X148319674Y-82950552D02*
X148414912Y-82950552D01*
X149176817Y-82950552D02*
X149176817Y-83760076D01*
X149176817Y-83760076D02*
X149129198Y-83855314D01*
X149129198Y-83855314D02*
X149081579Y-83902933D01*
X149081579Y-83902933D02*
X148986341Y-83950552D01*
X148986341Y-83950552D02*
X148843484Y-83950552D01*
X148843484Y-83950552D02*
X148748246Y-83902933D01*
X149176817Y-83569600D02*
X149081579Y-83617219D01*
X149081579Y-83617219D02*
X148891103Y-83617219D01*
X148891103Y-83617219D02*
X148795865Y-83569600D01*
X148795865Y-83569600D02*
X148748246Y-83521980D01*
X148748246Y-83521980D02*
X148700627Y-83426742D01*
X148700627Y-83426742D02*
X148700627Y-83141028D01*
X148700627Y-83141028D02*
X148748246Y-83045790D01*
X148748246Y-83045790D02*
X148795865Y-82998171D01*
X148795865Y-82998171D02*
X148891103Y-82950552D01*
X148891103Y-82950552D02*
X149081579Y-82950552D01*
X149081579Y-82950552D02*
X149176817Y-82998171D01*
X149653008Y-83617219D02*
X149653008Y-82950552D01*
X149653008Y-82617219D02*
X149605389Y-82664838D01*
X149605389Y-82664838D02*
X149653008Y-82712457D01*
X149653008Y-82712457D02*
X149700627Y-82664838D01*
X149700627Y-82664838D02*
X149653008Y-82617219D01*
X149653008Y-82617219D02*
X149653008Y-82712457D01*
X150129198Y-82950552D02*
X150129198Y-83617219D01*
X150129198Y-83045790D02*
X150176817Y-82998171D01*
X150176817Y-82998171D02*
X150272055Y-82950552D01*
X150272055Y-82950552D02*
X150414912Y-82950552D01*
X150414912Y-82950552D02*
X150510150Y-82998171D01*
X150510150Y-82998171D02*
X150557769Y-83093409D01*
X150557769Y-83093409D02*
X150557769Y-83617219D01*
X151462531Y-82950552D02*
X151462531Y-83760076D01*
X151462531Y-83760076D02*
X151414912Y-83855314D01*
X151414912Y-83855314D02*
X151367293Y-83902933D01*
X151367293Y-83902933D02*
X151272055Y-83950552D01*
X151272055Y-83950552D02*
X151129198Y-83950552D01*
X151129198Y-83950552D02*
X151033960Y-83902933D01*
X151462531Y-83569600D02*
X151367293Y-83617219D01*
X151367293Y-83617219D02*
X151176817Y-83617219D01*
X151176817Y-83617219D02*
X151081579Y-83569600D01*
X151081579Y-83569600D02*
X151033960Y-83521980D01*
X151033960Y-83521980D02*
X150986341Y-83426742D01*
X150986341Y-83426742D02*
X150986341Y-83141028D01*
X150986341Y-83141028D02*
X151033960Y-83045790D01*
X151033960Y-83045790D02*
X151081579Y-82998171D01*
X151081579Y-82998171D02*
X151176817Y-82950552D01*
X151176817Y-82950552D02*
X151367293Y-82950552D01*
X151367293Y-82950552D02*
X151462531Y-82998171D01*
X151700627Y-83712457D02*
X152462531Y-83712457D01*
X152700627Y-83617219D02*
X152700627Y-82617219D01*
X152700627Y-82998171D02*
X152795865Y-82950552D01*
X152795865Y-82950552D02*
X152986341Y-82950552D01*
X152986341Y-82950552D02*
X153081579Y-82998171D01*
X153081579Y-82998171D02*
X153129198Y-83045790D01*
X153129198Y-83045790D02*
X153176817Y-83141028D01*
X153176817Y-83141028D02*
X153176817Y-83426742D01*
X153176817Y-83426742D02*
X153129198Y-83521980D01*
X153129198Y-83521980D02*
X153081579Y-83569600D01*
X153081579Y-83569600D02*
X152986341Y-83617219D01*
X152986341Y-83617219D02*
X152795865Y-83617219D01*
X152795865Y-83617219D02*
X152700627Y-83569600D01*
X153748246Y-83617219D02*
X153653008Y-83569600D01*
X153653008Y-83569600D02*
X153605389Y-83521980D01*
X153605389Y-83521980D02*
X153557770Y-83426742D01*
X153557770Y-83426742D02*
X153557770Y-83141028D01*
X153557770Y-83141028D02*
X153605389Y-83045790D01*
X153605389Y-83045790D02*
X153653008Y-82998171D01*
X153653008Y-82998171D02*
X153748246Y-82950552D01*
X153748246Y-82950552D02*
X153891103Y-82950552D01*
X153891103Y-82950552D02*
X153986341Y-82998171D01*
X153986341Y-82998171D02*
X154033960Y-83045790D01*
X154033960Y-83045790D02*
X154081579Y-83141028D01*
X154081579Y-83141028D02*
X154081579Y-83426742D01*
X154081579Y-83426742D02*
X154033960Y-83521980D01*
X154033960Y-83521980D02*
X153986341Y-83569600D01*
X153986341Y-83569600D02*
X153891103Y-83617219D01*
X153891103Y-83617219D02*
X153748246Y-83617219D01*
X154938722Y-83617219D02*
X154938722Y-83093409D01*
X154938722Y-83093409D02*
X154891103Y-82998171D01*
X154891103Y-82998171D02*
X154795865Y-82950552D01*
X154795865Y-82950552D02*
X154605389Y-82950552D01*
X154605389Y-82950552D02*
X154510151Y-82998171D01*
X154938722Y-83569600D02*
X154843484Y-83617219D01*
X154843484Y-83617219D02*
X154605389Y-83617219D01*
X154605389Y-83617219D02*
X154510151Y-83569600D01*
X154510151Y-83569600D02*
X154462532Y-83474361D01*
X154462532Y-83474361D02*
X154462532Y-83379123D01*
X154462532Y-83379123D02*
X154510151Y-83283885D01*
X154510151Y-83283885D02*
X154605389Y-83236266D01*
X154605389Y-83236266D02*
X154843484Y-83236266D01*
X154843484Y-83236266D02*
X154938722Y-83188647D01*
X155414913Y-83617219D02*
X155414913Y-82950552D01*
X155414913Y-83141028D02*
X155462532Y-83045790D01*
X155462532Y-83045790D02*
X155510151Y-82998171D01*
X155510151Y-82998171D02*
X155605389Y-82950552D01*
X155605389Y-82950552D02*
X155700627Y-82950552D01*
X156462532Y-83617219D02*
X156462532Y-82617219D01*
X156462532Y-83569600D02*
X156367294Y-83617219D01*
X156367294Y-83617219D02*
X156176818Y-83617219D01*
X156176818Y-83617219D02*
X156081580Y-83569600D01*
X156081580Y-83569600D02*
X156033961Y-83521980D01*
X156033961Y-83521980D02*
X155986342Y-83426742D01*
X155986342Y-83426742D02*
X155986342Y-83141028D01*
X155986342Y-83141028D02*
X156033961Y-83045790D01*
X156033961Y-83045790D02*
X156081580Y-82998171D01*
X156081580Y-82998171D02*
X156176818Y-82950552D01*
X156176818Y-82950552D02*
X156367294Y-82950552D01*
X156367294Y-82950552D02*
X156462532Y-82998171D01*
D12*
X175134837Y-77283609D02*
X175468170Y-77283609D01*
X175468170Y-77283609D02*
X175253885Y-77783609D01*
X175134837Y-66633609D02*
X175444361Y-66633609D01*
X175444361Y-66633609D02*
X175277694Y-66824085D01*
X175277694Y-66824085D02*
X175349123Y-66824085D01*
X175349123Y-66824085D02*
X175396742Y-66847895D01*
X175396742Y-66847895D02*
X175420551Y-66871704D01*
X175420551Y-66871704D02*
X175444361Y-66919323D01*
X175444361Y-66919323D02*
X175444361Y-67038371D01*
X175444361Y-67038371D02*
X175420551Y-67085990D01*
X175420551Y-67085990D02*
X175396742Y-67109800D01*
X175396742Y-67109800D02*
X175349123Y-67133609D01*
X175349123Y-67133609D02*
X175206266Y-67133609D01*
X175206266Y-67133609D02*
X175158647Y-67109800D01*
X175158647Y-67109800D02*
X175134837Y-67085990D01*
D10*
X118338866Y-85113220D02*
X118338866Y-84351316D01*
D12*
X130153884Y-79941466D02*
X130915789Y-79941466D01*
X130534836Y-80322419D02*
X130534836Y-79560514D01*
X131249122Y-79322419D02*
X131582455Y-80322419D01*
X131582455Y-80322419D02*
X131915788Y-79322419D01*
X132249122Y-80322419D02*
X132249122Y-79655752D01*
X132249122Y-79322419D02*
X132201503Y-79370038D01*
X132201503Y-79370038D02*
X132249122Y-79417657D01*
X132249122Y-79417657D02*
X132296741Y-79370038D01*
X132296741Y-79370038D02*
X132249122Y-79322419D01*
X132249122Y-79322419D02*
X132249122Y-79417657D01*
X132725312Y-79655752D02*
X132725312Y-80322419D01*
X132725312Y-79750990D02*
X132772931Y-79703371D01*
X132772931Y-79703371D02*
X132868169Y-79655752D01*
X132868169Y-79655752D02*
X133011026Y-79655752D01*
X133011026Y-79655752D02*
X133106264Y-79703371D01*
X133106264Y-79703371D02*
X133153883Y-79798609D01*
X133153883Y-79798609D02*
X133153883Y-80322419D01*
X175396742Y-69700276D02*
X175396742Y-70033609D01*
X175277694Y-69509800D02*
X175158647Y-69866942D01*
X175158647Y-69866942D02*
X175468170Y-69866942D01*
X174511027Y-64481228D02*
X174534836Y-64457419D01*
X174534836Y-64457419D02*
X174582455Y-64433609D01*
X174582455Y-64433609D02*
X174701503Y-64433609D01*
X174701503Y-64433609D02*
X174749122Y-64457419D01*
X174749122Y-64457419D02*
X174772931Y-64481228D01*
X174772931Y-64481228D02*
X174796741Y-64528847D01*
X174796741Y-64528847D02*
X174796741Y-64576466D01*
X174796741Y-64576466D02*
X174772931Y-64647895D01*
X174772931Y-64647895D02*
X174487217Y-64933609D01*
X174487217Y-64933609D02*
X174796741Y-64933609D01*
X175011026Y-64933609D02*
X175011026Y-64433609D01*
X175534835Y-64933609D02*
X175368169Y-64695514D01*
X175249121Y-64933609D02*
X175249121Y-64433609D01*
X175249121Y-64433609D02*
X175439597Y-64433609D01*
X175439597Y-64433609D02*
X175487216Y-64457419D01*
X175487216Y-64457419D02*
X175511026Y-64481228D01*
X175511026Y-64481228D02*
X175534835Y-64528847D01*
X175534835Y-64528847D02*
X175534835Y-64600276D01*
X175534835Y-64600276D02*
X175511026Y-64647895D01*
X175511026Y-64647895D02*
X175487216Y-64671704D01*
X175487216Y-64671704D02*
X175439597Y-64695514D01*
X175439597Y-64695514D02*
X175249121Y-64695514D01*
X162903884Y-80691466D02*
X163665789Y-80691466D01*
X163284836Y-81072419D02*
X163284836Y-80310514D01*
X163999122Y-80072419D02*
X164332455Y-81072419D01*
X164332455Y-81072419D02*
X164665788Y-80072419D01*
X165141979Y-81072419D02*
X165046741Y-81024800D01*
X165046741Y-81024800D02*
X164999122Y-80977180D01*
X164999122Y-80977180D02*
X164951503Y-80881942D01*
X164951503Y-80881942D02*
X164951503Y-80596228D01*
X164951503Y-80596228D02*
X164999122Y-80500990D01*
X164999122Y-80500990D02*
X165046741Y-80453371D01*
X165046741Y-80453371D02*
X165141979Y-80405752D01*
X165141979Y-80405752D02*
X165284836Y-80405752D01*
X165284836Y-80405752D02*
X165380074Y-80453371D01*
X165380074Y-80453371D02*
X165427693Y-80500990D01*
X165427693Y-80500990D02*
X165475312Y-80596228D01*
X165475312Y-80596228D02*
X165475312Y-80881942D01*
X165475312Y-80881942D02*
X165427693Y-80977180D01*
X165427693Y-80977180D02*
X165380074Y-81024800D01*
X165380074Y-81024800D02*
X165284836Y-81072419D01*
X165284836Y-81072419D02*
X165141979Y-81072419D01*
X166332455Y-80405752D02*
X166332455Y-81072419D01*
X165903884Y-80405752D02*
X165903884Y-80929561D01*
X165903884Y-80929561D02*
X165951503Y-81024800D01*
X165951503Y-81024800D02*
X166046741Y-81072419D01*
X166046741Y-81072419D02*
X166189598Y-81072419D01*
X166189598Y-81072419D02*
X166284836Y-81024800D01*
X166284836Y-81024800D02*
X166332455Y-80977180D01*
X166665789Y-80405752D02*
X167046741Y-80405752D01*
X166808646Y-80072419D02*
X166808646Y-80929561D01*
X166808646Y-80929561D02*
X166856265Y-81024800D01*
X166856265Y-81024800D02*
X166951503Y-81072419D01*
X166951503Y-81072419D02*
X167046741Y-81072419D01*
X162803884Y-97791466D02*
X163565789Y-97791466D01*
X163899122Y-97172419D02*
X164232455Y-98172419D01*
X164232455Y-98172419D02*
X164565788Y-97172419D01*
X165041979Y-98172419D02*
X164946741Y-98124800D01*
X164946741Y-98124800D02*
X164899122Y-98077180D01*
X164899122Y-98077180D02*
X164851503Y-97981942D01*
X164851503Y-97981942D02*
X164851503Y-97696228D01*
X164851503Y-97696228D02*
X164899122Y-97600990D01*
X164899122Y-97600990D02*
X164946741Y-97553371D01*
X164946741Y-97553371D02*
X165041979Y-97505752D01*
X165041979Y-97505752D02*
X165184836Y-97505752D01*
X165184836Y-97505752D02*
X165280074Y-97553371D01*
X165280074Y-97553371D02*
X165327693Y-97600990D01*
X165327693Y-97600990D02*
X165375312Y-97696228D01*
X165375312Y-97696228D02*
X165375312Y-97981942D01*
X165375312Y-97981942D02*
X165327693Y-98077180D01*
X165327693Y-98077180D02*
X165280074Y-98124800D01*
X165280074Y-98124800D02*
X165184836Y-98172419D01*
X165184836Y-98172419D02*
X165041979Y-98172419D01*
X166232455Y-97505752D02*
X166232455Y-98172419D01*
X165803884Y-97505752D02*
X165803884Y-98029561D01*
X165803884Y-98029561D02*
X165851503Y-98124800D01*
X165851503Y-98124800D02*
X165946741Y-98172419D01*
X165946741Y-98172419D02*
X166089598Y-98172419D01*
X166089598Y-98172419D02*
X166184836Y-98124800D01*
X166184836Y-98124800D02*
X166232455Y-98077180D01*
X166565789Y-97505752D02*
X166946741Y-97505752D01*
X166708646Y-97172419D02*
X166708646Y-98029561D01*
X166708646Y-98029561D02*
X166756265Y-98124800D01*
X166756265Y-98124800D02*
X166851503Y-98172419D01*
X166851503Y-98172419D02*
X166946741Y-98172419D01*
X174396741Y-79557419D02*
X174349122Y-79533609D01*
X174349122Y-79533609D02*
X174277693Y-79533609D01*
X174277693Y-79533609D02*
X174206265Y-79557419D01*
X174206265Y-79557419D02*
X174158646Y-79605038D01*
X174158646Y-79605038D02*
X174134836Y-79652657D01*
X174134836Y-79652657D02*
X174111027Y-79747895D01*
X174111027Y-79747895D02*
X174111027Y-79819323D01*
X174111027Y-79819323D02*
X174134836Y-79914561D01*
X174134836Y-79914561D02*
X174158646Y-79962180D01*
X174158646Y-79962180D02*
X174206265Y-80009800D01*
X174206265Y-80009800D02*
X174277693Y-80033609D01*
X174277693Y-80033609D02*
X174325312Y-80033609D01*
X174325312Y-80033609D02*
X174396741Y-80009800D01*
X174396741Y-80009800D02*
X174420550Y-79985990D01*
X174420550Y-79985990D02*
X174420550Y-79819323D01*
X174420550Y-79819323D02*
X174325312Y-79819323D01*
X174634836Y-80033609D02*
X174634836Y-79533609D01*
X174634836Y-79533609D02*
X174920550Y-80033609D01*
X174920550Y-80033609D02*
X174920550Y-79533609D01*
X175158646Y-80033609D02*
X175158646Y-79533609D01*
X175158646Y-79533609D02*
X175277694Y-79533609D01*
X175277694Y-79533609D02*
X175349122Y-79557419D01*
X175349122Y-79557419D02*
X175396741Y-79605038D01*
X175396741Y-79605038D02*
X175420551Y-79652657D01*
X175420551Y-79652657D02*
X175444360Y-79747895D01*
X175444360Y-79747895D02*
X175444360Y-79819323D01*
X175444360Y-79819323D02*
X175420551Y-79914561D01*
X175420551Y-79914561D02*
X175396741Y-79962180D01*
X175396741Y-79962180D02*
X175349122Y-80009800D01*
X175349122Y-80009800D02*
X175277694Y-80033609D01*
X175277694Y-80033609D02*
X175158646Y-80033609D01*
D10*
X118188866Y-91213220D02*
X118188866Y-90451316D01*
X118569819Y-90832268D02*
X117807914Y-90832268D01*
D12*
X131103884Y-97891466D02*
X131865789Y-97891466D01*
X132199122Y-97272419D02*
X132532455Y-98272419D01*
X132532455Y-98272419D02*
X132865788Y-97272419D01*
X133199122Y-98272419D02*
X133199122Y-97605752D01*
X133199122Y-97272419D02*
X133151503Y-97320038D01*
X133151503Y-97320038D02*
X133199122Y-97367657D01*
X133199122Y-97367657D02*
X133246741Y-97320038D01*
X133246741Y-97320038D02*
X133199122Y-97272419D01*
X133199122Y-97272419D02*
X133199122Y-97367657D01*
X133675312Y-97605752D02*
X133675312Y-98272419D01*
X133675312Y-97700990D02*
X133722931Y-97653371D01*
X133722931Y-97653371D02*
X133818169Y-97605752D01*
X133818169Y-97605752D02*
X133961026Y-97605752D01*
X133961026Y-97605752D02*
X134056264Y-97653371D01*
X134056264Y-97653371D02*
X134103883Y-97748609D01*
X134103883Y-97748609D02*
X134103883Y-98272419D01*
D14*
X116291476Y-62714285D02*
X116791476Y-62714285D01*
X116315285Y-62714285D02*
X116291476Y-62666666D01*
X116291476Y-62666666D02*
X116291476Y-62571428D01*
X116291476Y-62571428D02*
X116315285Y-62523809D01*
X116315285Y-62523809D02*
X116339095Y-62499999D01*
X116339095Y-62499999D02*
X116386714Y-62476190D01*
X116386714Y-62476190D02*
X116529571Y-62476190D01*
X116529571Y-62476190D02*
X116577190Y-62499999D01*
X116577190Y-62499999D02*
X116601000Y-62523809D01*
X116601000Y-62523809D02*
X116624809Y-62571428D01*
X116624809Y-62571428D02*
X116624809Y-62666666D01*
X116624809Y-62666666D02*
X116601000Y-62714285D01*
X116624809Y-62190475D02*
X116601000Y-62238094D01*
X116601000Y-62238094D02*
X116577190Y-62261904D01*
X116577190Y-62261904D02*
X116529571Y-62285713D01*
X116529571Y-62285713D02*
X116386714Y-62285713D01*
X116386714Y-62285713D02*
X116339095Y-62261904D01*
X116339095Y-62261904D02*
X116315285Y-62238094D01*
X116315285Y-62238094D02*
X116291476Y-62190475D01*
X116291476Y-62190475D02*
X116291476Y-62119047D01*
X116291476Y-62119047D02*
X116315285Y-62071428D01*
X116315285Y-62071428D02*
X116339095Y-62047618D01*
X116339095Y-62047618D02*
X116386714Y-62023809D01*
X116386714Y-62023809D02*
X116529571Y-62023809D01*
X116529571Y-62023809D02*
X116577190Y-62047618D01*
X116577190Y-62047618D02*
X116601000Y-62071428D01*
X116601000Y-62071428D02*
X116624809Y-62119047D01*
X116624809Y-62119047D02*
X116624809Y-62190475D01*
X116291476Y-61857142D02*
X116624809Y-61761904D01*
X116624809Y-61761904D02*
X116386714Y-61666666D01*
X116386714Y-61666666D02*
X116624809Y-61571428D01*
X116624809Y-61571428D02*
X116291476Y-61476190D01*
X116601000Y-61095237D02*
X116624809Y-61142856D01*
X116624809Y-61142856D02*
X116624809Y-61238094D01*
X116624809Y-61238094D02*
X116601000Y-61285713D01*
X116601000Y-61285713D02*
X116553380Y-61309522D01*
X116553380Y-61309522D02*
X116362904Y-61309522D01*
X116362904Y-61309522D02*
X116315285Y-61285713D01*
X116315285Y-61285713D02*
X116291476Y-61238094D01*
X116291476Y-61238094D02*
X116291476Y-61142856D01*
X116291476Y-61142856D02*
X116315285Y-61095237D01*
X116315285Y-61095237D02*
X116362904Y-61071427D01*
X116362904Y-61071427D02*
X116410523Y-61071427D01*
X116410523Y-61071427D02*
X116458142Y-61309522D01*
X116624809Y-60857142D02*
X116291476Y-60857142D01*
X116386714Y-60857142D02*
X116339095Y-60833332D01*
X116339095Y-60833332D02*
X116315285Y-60809523D01*
X116315285Y-60809523D02*
X116291476Y-60761904D01*
X116291476Y-60761904D02*
X116291476Y-60714285D01*
D12*
X116629847Y-70571428D02*
X116439371Y-70704761D01*
X116629847Y-70799999D02*
X116229847Y-70799999D01*
X116229847Y-70799999D02*
X116229847Y-70647618D01*
X116229847Y-70647618D02*
X116248895Y-70609523D01*
X116248895Y-70609523D02*
X116267942Y-70590476D01*
X116267942Y-70590476D02*
X116306038Y-70571428D01*
X116306038Y-70571428D02*
X116363180Y-70571428D01*
X116363180Y-70571428D02*
X116401276Y-70590476D01*
X116401276Y-70590476D02*
X116420323Y-70609523D01*
X116420323Y-70609523D02*
X116439371Y-70647618D01*
X116439371Y-70647618D02*
X116439371Y-70799999D01*
X116629847Y-70209523D02*
X116629847Y-70399999D01*
X116629847Y-70399999D02*
X116229847Y-70399999D01*
X116667942Y-70171428D02*
X116667942Y-69866666D01*
X116610800Y-69790475D02*
X116629847Y-69733332D01*
X116629847Y-69733332D02*
X116629847Y-69638094D01*
X116629847Y-69638094D02*
X116610800Y-69599999D01*
X116610800Y-69599999D02*
X116591752Y-69580951D01*
X116591752Y-69580951D02*
X116553657Y-69561904D01*
X116553657Y-69561904D02*
X116515561Y-69561904D01*
X116515561Y-69561904D02*
X116477466Y-69580951D01*
X116477466Y-69580951D02*
X116458419Y-69599999D01*
X116458419Y-69599999D02*
X116439371Y-69638094D01*
X116439371Y-69638094D02*
X116420323Y-69714285D01*
X116420323Y-69714285D02*
X116401276Y-69752380D01*
X116401276Y-69752380D02*
X116382228Y-69771427D01*
X116382228Y-69771427D02*
X116344133Y-69790475D01*
X116344133Y-69790475D02*
X116306038Y-69790475D01*
X116306038Y-69790475D02*
X116267942Y-69771427D01*
X116267942Y-69771427D02*
X116248895Y-69752380D01*
X116248895Y-69752380D02*
X116229847Y-69714285D01*
X116229847Y-69714285D02*
X116229847Y-69619046D01*
X116229847Y-69619046D02*
X116248895Y-69561904D01*
X116210800Y-69104761D02*
X116725085Y-69447618D01*
X116363180Y-68799999D02*
X116686990Y-68799999D01*
X116686990Y-68799999D02*
X116725085Y-68819046D01*
X116725085Y-68819046D02*
X116744133Y-68838094D01*
X116744133Y-68838094D02*
X116763180Y-68876189D01*
X116763180Y-68876189D02*
X116763180Y-68933332D01*
X116763180Y-68933332D02*
X116744133Y-68971427D01*
X116610800Y-68799999D02*
X116629847Y-68838094D01*
X116629847Y-68838094D02*
X116629847Y-68914285D01*
X116629847Y-68914285D02*
X116610800Y-68952380D01*
X116610800Y-68952380D02*
X116591752Y-68971427D01*
X116591752Y-68971427D02*
X116553657Y-68990475D01*
X116553657Y-68990475D02*
X116439371Y-68990475D01*
X116439371Y-68990475D02*
X116401276Y-68971427D01*
X116401276Y-68971427D02*
X116382228Y-68952380D01*
X116382228Y-68952380D02*
X116363180Y-68914285D01*
X116363180Y-68914285D02*
X116363180Y-68838094D01*
X116363180Y-68838094D02*
X116382228Y-68799999D01*
D10*
X133835833Y-76454819D02*
X133502500Y-75978628D01*
X133264405Y-76454819D02*
X133264405Y-75454819D01*
X133264405Y-75454819D02*
X133645357Y-75454819D01*
X133645357Y-75454819D02*
X133740595Y-75502438D01*
X133740595Y-75502438D02*
X133788214Y-75550057D01*
X133788214Y-75550057D02*
X133835833Y-75645295D01*
X133835833Y-75645295D02*
X133835833Y-75788152D01*
X133835833Y-75788152D02*
X133788214Y-75883390D01*
X133788214Y-75883390D02*
X133740595Y-75931009D01*
X133740595Y-75931009D02*
X133645357Y-75978628D01*
X133645357Y-75978628D02*
X133264405Y-75978628D01*
X134216786Y-75550057D02*
X134264405Y-75502438D01*
X134264405Y-75502438D02*
X134359643Y-75454819D01*
X134359643Y-75454819D02*
X134597738Y-75454819D01*
X134597738Y-75454819D02*
X134692976Y-75502438D01*
X134692976Y-75502438D02*
X134740595Y-75550057D01*
X134740595Y-75550057D02*
X134788214Y-75645295D01*
X134788214Y-75645295D02*
X134788214Y-75740533D01*
X134788214Y-75740533D02*
X134740595Y-75883390D01*
X134740595Y-75883390D02*
X134169167Y-76454819D01*
X134169167Y-76454819D02*
X134788214Y-76454819D01*
X137158214Y-78344819D02*
X136586786Y-78344819D01*
X136872500Y-78344819D02*
X136872500Y-77344819D01*
X136872500Y-77344819D02*
X136777262Y-77487676D01*
X136777262Y-77487676D02*
X136682024Y-77582914D01*
X136682024Y-77582914D02*
X136586786Y-77630533D01*
X137586786Y-78344819D02*
X137586786Y-77344819D01*
X138158214Y-78344819D02*
X137729643Y-77773390D01*
X138158214Y-77344819D02*
X137586786Y-77916247D01*
X163598095Y-61679819D02*
X163598095Y-62489342D01*
X163598095Y-62489342D02*
X163645714Y-62584580D01*
X163645714Y-62584580D02*
X163693333Y-62632200D01*
X163693333Y-62632200D02*
X163788571Y-62679819D01*
X163788571Y-62679819D02*
X163979047Y-62679819D01*
X163979047Y-62679819D02*
X164074285Y-62632200D01*
X164074285Y-62632200D02*
X164121904Y-62584580D01*
X164121904Y-62584580D02*
X164169523Y-62489342D01*
X164169523Y-62489342D02*
X164169523Y-61679819D01*
X164598095Y-61775057D02*
X164645714Y-61727438D01*
X164645714Y-61727438D02*
X164740952Y-61679819D01*
X164740952Y-61679819D02*
X164979047Y-61679819D01*
X164979047Y-61679819D02*
X165074285Y-61727438D01*
X165074285Y-61727438D02*
X165121904Y-61775057D01*
X165121904Y-61775057D02*
X165169523Y-61870295D01*
X165169523Y-61870295D02*
X165169523Y-61965533D01*
X165169523Y-61965533D02*
X165121904Y-62108390D01*
X165121904Y-62108390D02*
X164550476Y-62679819D01*
X164550476Y-62679819D02*
X165169523Y-62679819D01*
X137135833Y-71334819D02*
X136802500Y-70858628D01*
X136564405Y-71334819D02*
X136564405Y-70334819D01*
X136564405Y-70334819D02*
X136945357Y-70334819D01*
X136945357Y-70334819D02*
X137040595Y-70382438D01*
X137040595Y-70382438D02*
X137088214Y-70430057D01*
X137088214Y-70430057D02*
X137135833Y-70525295D01*
X137135833Y-70525295D02*
X137135833Y-70668152D01*
X137135833Y-70668152D02*
X137088214Y-70763390D01*
X137088214Y-70763390D02*
X137040595Y-70811009D01*
X137040595Y-70811009D02*
X136945357Y-70858628D01*
X136945357Y-70858628D02*
X136564405Y-70858628D01*
X138088214Y-71334819D02*
X137516786Y-71334819D01*
X137802500Y-71334819D02*
X137802500Y-70334819D01*
X137802500Y-70334819D02*
X137707262Y-70477676D01*
X137707262Y-70477676D02*
X137612024Y-70572914D01*
X137612024Y-70572914D02*
X137516786Y-70620533D01*
X137183452Y-74974819D02*
X136612024Y-74974819D01*
X136897738Y-74974819D02*
X136897738Y-73974819D01*
X136897738Y-73974819D02*
X136802500Y-74117676D01*
X136802500Y-74117676D02*
X136707262Y-74212914D01*
X136707262Y-74212914D02*
X136612024Y-74260533D01*
X137612024Y-74974819D02*
X137612024Y-73974819D01*
X137707262Y-74593866D02*
X137992976Y-74974819D01*
X137992976Y-74308152D02*
X137612024Y-74689104D01*
X148977319Y-71436666D02*
X148501128Y-71769999D01*
X148977319Y-72008094D02*
X147977319Y-72008094D01*
X147977319Y-72008094D02*
X147977319Y-71627142D01*
X147977319Y-71627142D02*
X148024938Y-71531904D01*
X148024938Y-71531904D02*
X148072557Y-71484285D01*
X148072557Y-71484285D02*
X148167795Y-71436666D01*
X148167795Y-71436666D02*
X148310652Y-71436666D01*
X148310652Y-71436666D02*
X148405890Y-71484285D01*
X148405890Y-71484285D02*
X148453509Y-71531904D01*
X148453509Y-71531904D02*
X148501128Y-71627142D01*
X148501128Y-71627142D02*
X148501128Y-72008094D01*
X147977319Y-71103332D02*
X147977319Y-70484285D01*
X147977319Y-70484285D02*
X148358271Y-70817618D01*
X148358271Y-70817618D02*
X148358271Y-70674761D01*
X148358271Y-70674761D02*
X148405890Y-70579523D01*
X148405890Y-70579523D02*
X148453509Y-70531904D01*
X148453509Y-70531904D02*
X148548747Y-70484285D01*
X148548747Y-70484285D02*
X148786842Y-70484285D01*
X148786842Y-70484285D02*
X148882080Y-70531904D01*
X148882080Y-70531904D02*
X148929700Y-70579523D01*
X148929700Y-70579523D02*
X148977319Y-70674761D01*
X148977319Y-70674761D02*
X148977319Y-70960475D01*
X148977319Y-70960475D02*
X148929700Y-71055713D01*
X148929700Y-71055713D02*
X148882080Y-71103332D01*
X148547319Y-77449047D02*
X148547319Y-78020475D01*
X148547319Y-77734761D02*
X147547319Y-77734761D01*
X147547319Y-77734761D02*
X147690176Y-77829999D01*
X147690176Y-77829999D02*
X147785414Y-77925237D01*
X147785414Y-77925237D02*
X147833033Y-78020475D01*
X148547319Y-77020475D02*
X147547319Y-77020475D01*
X148166366Y-76925237D02*
X148547319Y-76639523D01*
X147880652Y-76639523D02*
X148261604Y-77020475D01*
X159840476Y-60554819D02*
X159840476Y-59554819D01*
X160888094Y-60554819D02*
X160554761Y-60078628D01*
X160316666Y-60554819D02*
X160316666Y-59554819D01*
X160316666Y-59554819D02*
X160697618Y-59554819D01*
X160697618Y-59554819D02*
X160792856Y-59602438D01*
X160792856Y-59602438D02*
X160840475Y-59650057D01*
X160840475Y-59650057D02*
X160888094Y-59745295D01*
X160888094Y-59745295D02*
X160888094Y-59888152D01*
X160888094Y-59888152D02*
X160840475Y-59983390D01*
X160840475Y-59983390D02*
X160792856Y-60031009D01*
X160792856Y-60031009D02*
X160697618Y-60078628D01*
X160697618Y-60078628D02*
X160316666Y-60078628D01*
X161078571Y-60650057D02*
X161840475Y-60650057D01*
X162030952Y-60507200D02*
X162126190Y-60554819D01*
X162126190Y-60554819D02*
X162316666Y-60554819D01*
X162316666Y-60554819D02*
X162411904Y-60507200D01*
X162411904Y-60507200D02*
X162459523Y-60411961D01*
X162459523Y-60411961D02*
X162459523Y-60364342D01*
X162459523Y-60364342D02*
X162411904Y-60269104D01*
X162411904Y-60269104D02*
X162316666Y-60221485D01*
X162316666Y-60221485D02*
X162173809Y-60221485D01*
X162173809Y-60221485D02*
X162078571Y-60173866D01*
X162078571Y-60173866D02*
X162030952Y-60078628D01*
X162030952Y-60078628D02*
X162030952Y-60031009D01*
X162030952Y-60031009D02*
X162078571Y-59935771D01*
X162078571Y-59935771D02*
X162173809Y-59888152D01*
X162173809Y-59888152D02*
X162316666Y-59888152D01*
X162316666Y-59888152D02*
X162411904Y-59935771D01*
X163269047Y-60507200D02*
X163173809Y-60554819D01*
X163173809Y-60554819D02*
X162983333Y-60554819D01*
X162983333Y-60554819D02*
X162888095Y-60507200D01*
X162888095Y-60507200D02*
X162840476Y-60411961D01*
X162840476Y-60411961D02*
X162840476Y-60031009D01*
X162840476Y-60031009D02*
X162888095Y-59935771D01*
X162888095Y-59935771D02*
X162983333Y-59888152D01*
X162983333Y-59888152D02*
X163173809Y-59888152D01*
X163173809Y-59888152D02*
X163269047Y-59935771D01*
X163269047Y-59935771D02*
X163316666Y-60031009D01*
X163316666Y-60031009D02*
X163316666Y-60126247D01*
X163316666Y-60126247D02*
X162840476Y-60221485D01*
X163745238Y-59888152D02*
X163745238Y-60554819D01*
X163745238Y-59983390D02*
X163792857Y-59935771D01*
X163792857Y-59935771D02*
X163888095Y-59888152D01*
X163888095Y-59888152D02*
X164030952Y-59888152D01*
X164030952Y-59888152D02*
X164126190Y-59935771D01*
X164126190Y-59935771D02*
X164173809Y-60031009D01*
X164173809Y-60031009D02*
X164173809Y-60554819D01*
X164602381Y-60507200D02*
X164697619Y-60554819D01*
X164697619Y-60554819D02*
X164888095Y-60554819D01*
X164888095Y-60554819D02*
X164983333Y-60507200D01*
X164983333Y-60507200D02*
X165030952Y-60411961D01*
X165030952Y-60411961D02*
X165030952Y-60364342D01*
X165030952Y-60364342D02*
X164983333Y-60269104D01*
X164983333Y-60269104D02*
X164888095Y-60221485D01*
X164888095Y-60221485D02*
X164745238Y-60221485D01*
X164745238Y-60221485D02*
X164650000Y-60173866D01*
X164650000Y-60173866D02*
X164602381Y-60078628D01*
X164602381Y-60078628D02*
X164602381Y-60031009D01*
X164602381Y-60031009D02*
X164650000Y-59935771D01*
X164650000Y-59935771D02*
X164745238Y-59888152D01*
X164745238Y-59888152D02*
X164888095Y-59888152D01*
X164888095Y-59888152D02*
X164983333Y-59935771D01*
X165602381Y-60554819D02*
X165507143Y-60507200D01*
X165507143Y-60507200D02*
X165459524Y-60459580D01*
X165459524Y-60459580D02*
X165411905Y-60364342D01*
X165411905Y-60364342D02*
X165411905Y-60078628D01*
X165411905Y-60078628D02*
X165459524Y-59983390D01*
X165459524Y-59983390D02*
X165507143Y-59935771D01*
X165507143Y-59935771D02*
X165602381Y-59888152D01*
X165602381Y-59888152D02*
X165745238Y-59888152D01*
X165745238Y-59888152D02*
X165840476Y-59935771D01*
X165840476Y-59935771D02*
X165888095Y-59983390D01*
X165888095Y-59983390D02*
X165935714Y-60078628D01*
X165935714Y-60078628D02*
X165935714Y-60364342D01*
X165935714Y-60364342D02*
X165888095Y-60459580D01*
X165888095Y-60459580D02*
X165840476Y-60507200D01*
X165840476Y-60507200D02*
X165745238Y-60554819D01*
X165745238Y-60554819D02*
X165602381Y-60554819D01*
X166364286Y-60554819D02*
X166364286Y-59888152D01*
X166364286Y-60078628D02*
X166411905Y-59983390D01*
X166411905Y-59983390D02*
X166459524Y-59935771D01*
X166459524Y-59935771D02*
X166554762Y-59888152D01*
X166554762Y-59888152D02*
X166650000Y-59888152D01*
X167507143Y-60554819D02*
X166935715Y-60554819D01*
X167221429Y-60554819D02*
X167221429Y-59554819D01*
X167221429Y-59554819D02*
X167126191Y-59697676D01*
X167126191Y-59697676D02*
X167030953Y-59792914D01*
X167030953Y-59792914D02*
X166935715Y-59840533D01*
X159011905Y-75854819D02*
X159011905Y-74854819D01*
X159011905Y-74854819D02*
X159250000Y-74854819D01*
X159250000Y-74854819D02*
X159392857Y-74902438D01*
X159392857Y-74902438D02*
X159488095Y-74997676D01*
X159488095Y-74997676D02*
X159535714Y-75092914D01*
X159535714Y-75092914D02*
X159583333Y-75283390D01*
X159583333Y-75283390D02*
X159583333Y-75426247D01*
X159583333Y-75426247D02*
X159535714Y-75616723D01*
X159535714Y-75616723D02*
X159488095Y-75711961D01*
X159488095Y-75711961D02*
X159392857Y-75807200D01*
X159392857Y-75807200D02*
X159250000Y-75854819D01*
X159250000Y-75854819D02*
X159011905Y-75854819D01*
X160535714Y-75854819D02*
X159964286Y-75854819D01*
X160250000Y-75854819D02*
X160250000Y-74854819D01*
X160250000Y-74854819D02*
X160154762Y-74997676D01*
X160154762Y-74997676D02*
X160059524Y-75092914D01*
X160059524Y-75092914D02*
X159964286Y-75140533D01*
X157237142Y-73814819D02*
X156665714Y-73814819D01*
X156951428Y-73814819D02*
X156951428Y-72814819D01*
X156951428Y-72814819D02*
X156856190Y-72957676D01*
X156856190Y-72957676D02*
X156760952Y-73052914D01*
X156760952Y-73052914D02*
X156665714Y-73100533D01*
X157665714Y-73814819D02*
X157665714Y-72814819D01*
X157665714Y-72814819D02*
X158237142Y-73814819D01*
X158237142Y-73814819D02*
X158237142Y-72814819D01*
X159141904Y-73148152D02*
X159141904Y-73814819D01*
X158903809Y-72767200D02*
X158665714Y-73481485D01*
X158665714Y-73481485D02*
X159284761Y-73481485D01*
X159856190Y-72814819D02*
X159951428Y-72814819D01*
X159951428Y-72814819D02*
X160046666Y-72862438D01*
X160046666Y-72862438D02*
X160094285Y-72910057D01*
X160094285Y-72910057D02*
X160141904Y-73005295D01*
X160141904Y-73005295D02*
X160189523Y-73195771D01*
X160189523Y-73195771D02*
X160189523Y-73433866D01*
X160189523Y-73433866D02*
X160141904Y-73624342D01*
X160141904Y-73624342D02*
X160094285Y-73719580D01*
X160094285Y-73719580D02*
X160046666Y-73767200D01*
X160046666Y-73767200D02*
X159951428Y-73814819D01*
X159951428Y-73814819D02*
X159856190Y-73814819D01*
X159856190Y-73814819D02*
X159760952Y-73767200D01*
X159760952Y-73767200D02*
X159713333Y-73719580D01*
X159713333Y-73719580D02*
X159665714Y-73624342D01*
X159665714Y-73624342D02*
X159618095Y-73433866D01*
X159618095Y-73433866D02*
X159618095Y-73195771D01*
X159618095Y-73195771D02*
X159665714Y-73005295D01*
X159665714Y-73005295D02*
X159713333Y-72910057D01*
X159713333Y-72910057D02*
X159760952Y-72862438D01*
X159760952Y-72862438D02*
X159856190Y-72814819D01*
X160808571Y-72814819D02*
X160903809Y-72814819D01*
X160903809Y-72814819D02*
X160999047Y-72862438D01*
X160999047Y-72862438D02*
X161046666Y-72910057D01*
X161046666Y-72910057D02*
X161094285Y-73005295D01*
X161094285Y-73005295D02*
X161141904Y-73195771D01*
X161141904Y-73195771D02*
X161141904Y-73433866D01*
X161141904Y-73433866D02*
X161094285Y-73624342D01*
X161094285Y-73624342D02*
X161046666Y-73719580D01*
X161046666Y-73719580D02*
X160999047Y-73767200D01*
X160999047Y-73767200D02*
X160903809Y-73814819D01*
X160903809Y-73814819D02*
X160808571Y-73814819D01*
X160808571Y-73814819D02*
X160713333Y-73767200D01*
X160713333Y-73767200D02*
X160665714Y-73719580D01*
X160665714Y-73719580D02*
X160618095Y-73624342D01*
X160618095Y-73624342D02*
X160570476Y-73433866D01*
X160570476Y-73433866D02*
X160570476Y-73195771D01*
X160570476Y-73195771D02*
X160618095Y-73005295D01*
X160618095Y-73005295D02*
X160665714Y-72910057D01*
X160665714Y-72910057D02*
X160713333Y-72862438D01*
X160713333Y-72862438D02*
X160808571Y-72814819D01*
X161475238Y-72814819D02*
X162141904Y-72814819D01*
X162141904Y-72814819D02*
X161713333Y-73814819D01*
X166228095Y-76594819D02*
X166228095Y-75594819D01*
X166799523Y-76594819D02*
X166370952Y-76023390D01*
X166799523Y-75594819D02*
X166228095Y-76166247D01*
X130128095Y-64099819D02*
X130128095Y-64909342D01*
X130128095Y-64909342D02*
X130175714Y-65004580D01*
X130175714Y-65004580D02*
X130223333Y-65052200D01*
X130223333Y-65052200D02*
X130318571Y-65099819D01*
X130318571Y-65099819D02*
X130509047Y-65099819D01*
X130509047Y-65099819D02*
X130604285Y-65052200D01*
X130604285Y-65052200D02*
X130651904Y-65004580D01*
X130651904Y-65004580D02*
X130699523Y-64909342D01*
X130699523Y-64909342D02*
X130699523Y-64099819D01*
X131080476Y-64099819D02*
X131699523Y-64099819D01*
X131699523Y-64099819D02*
X131366190Y-64480771D01*
X131366190Y-64480771D02*
X131509047Y-64480771D01*
X131509047Y-64480771D02*
X131604285Y-64528390D01*
X131604285Y-64528390D02*
X131651904Y-64576009D01*
X131651904Y-64576009D02*
X131699523Y-64671247D01*
X131699523Y-64671247D02*
X131699523Y-64909342D01*
X131699523Y-64909342D02*
X131651904Y-65004580D01*
X131651904Y-65004580D02*
X131604285Y-65052200D01*
X131604285Y-65052200D02*
X131509047Y-65099819D01*
X131509047Y-65099819D02*
X131223333Y-65099819D01*
X131223333Y-65099819D02*
X131128095Y-65052200D01*
X131128095Y-65052200D02*
X131080476Y-65004580D01*
X128982381Y-68061009D02*
X129315714Y-68061009D01*
X129458571Y-68584819D02*
X128982381Y-68584819D01*
X128982381Y-68584819D02*
X128982381Y-67584819D01*
X128982381Y-67584819D02*
X129458571Y-67584819D01*
X130363333Y-68584819D02*
X129887143Y-68584819D01*
X129887143Y-68584819D02*
X129887143Y-67584819D01*
X130839524Y-68013390D02*
X130744286Y-67965771D01*
X130744286Y-67965771D02*
X130696667Y-67918152D01*
X130696667Y-67918152D02*
X130649048Y-67822914D01*
X130649048Y-67822914D02*
X130649048Y-67775295D01*
X130649048Y-67775295D02*
X130696667Y-67680057D01*
X130696667Y-67680057D02*
X130744286Y-67632438D01*
X130744286Y-67632438D02*
X130839524Y-67584819D01*
X130839524Y-67584819D02*
X131030000Y-67584819D01*
X131030000Y-67584819D02*
X131125238Y-67632438D01*
X131125238Y-67632438D02*
X131172857Y-67680057D01*
X131172857Y-67680057D02*
X131220476Y-67775295D01*
X131220476Y-67775295D02*
X131220476Y-67822914D01*
X131220476Y-67822914D02*
X131172857Y-67918152D01*
X131172857Y-67918152D02*
X131125238Y-67965771D01*
X131125238Y-67965771D02*
X131030000Y-68013390D01*
X131030000Y-68013390D02*
X130839524Y-68013390D01*
X130839524Y-68013390D02*
X130744286Y-68061009D01*
X130744286Y-68061009D02*
X130696667Y-68108628D01*
X130696667Y-68108628D02*
X130649048Y-68203866D01*
X130649048Y-68203866D02*
X130649048Y-68394342D01*
X130649048Y-68394342D02*
X130696667Y-68489580D01*
X130696667Y-68489580D02*
X130744286Y-68537200D01*
X130744286Y-68537200D02*
X130839524Y-68584819D01*
X130839524Y-68584819D02*
X131030000Y-68584819D01*
X131030000Y-68584819D02*
X131125238Y-68537200D01*
X131125238Y-68537200D02*
X131172857Y-68489580D01*
X131172857Y-68489580D02*
X131220476Y-68394342D01*
X131220476Y-68394342D02*
X131220476Y-68203866D01*
X131220476Y-68203866D02*
X131172857Y-68108628D01*
X131172857Y-68108628D02*
X131125238Y-68061009D01*
X131125238Y-68061009D02*
X131030000Y-68013390D01*
X132172857Y-68584819D02*
X131601429Y-68584819D01*
X131887143Y-68584819D02*
X131887143Y-67584819D01*
X131887143Y-67584819D02*
X131791905Y-67727676D01*
X131791905Y-67727676D02*
X131696667Y-67822914D01*
X131696667Y-67822914D02*
X131601429Y-67870533D01*
X132506191Y-67584819D02*
X133172857Y-67584819D01*
X133172857Y-67584819D02*
X132744286Y-68584819D01*
X144250057Y-70545238D02*
X144202438Y-70640476D01*
X144202438Y-70640476D02*
X144107200Y-70735714D01*
X144107200Y-70735714D02*
X143964342Y-70878571D01*
X143964342Y-70878571D02*
X143916723Y-70973809D01*
X143916723Y-70973809D02*
X143916723Y-71069047D01*
X144154819Y-71021428D02*
X144107200Y-71116666D01*
X144107200Y-71116666D02*
X144011961Y-71211904D01*
X144011961Y-71211904D02*
X143821485Y-71259523D01*
X143821485Y-71259523D02*
X143488152Y-71259523D01*
X143488152Y-71259523D02*
X143297676Y-71211904D01*
X143297676Y-71211904D02*
X143202438Y-71116666D01*
X143202438Y-71116666D02*
X143154819Y-71021428D01*
X143154819Y-71021428D02*
X143154819Y-70830952D01*
X143154819Y-70830952D02*
X143202438Y-70735714D01*
X143202438Y-70735714D02*
X143297676Y-70640476D01*
X143297676Y-70640476D02*
X143488152Y-70592857D01*
X143488152Y-70592857D02*
X143821485Y-70592857D01*
X143821485Y-70592857D02*
X144011961Y-70640476D01*
X144011961Y-70640476D02*
X144107200Y-70735714D01*
X144107200Y-70735714D02*
X144154819Y-70830952D01*
X144154819Y-70830952D02*
X144154819Y-71021428D01*
X144154819Y-69640476D02*
X144154819Y-70211904D01*
X144154819Y-69926190D02*
X143154819Y-69926190D01*
X143154819Y-69926190D02*
X143297676Y-70021428D01*
X143297676Y-70021428D02*
X143392914Y-70116666D01*
X143392914Y-70116666D02*
X143440533Y-70211904D01*
X146281009Y-76017142D02*
X146328628Y-75874285D01*
X146328628Y-75874285D02*
X146376247Y-75826666D01*
X146376247Y-75826666D02*
X146471485Y-75779047D01*
X146471485Y-75779047D02*
X146614342Y-75779047D01*
X146614342Y-75779047D02*
X146709580Y-75826666D01*
X146709580Y-75826666D02*
X146757200Y-75874285D01*
X146757200Y-75874285D02*
X146804819Y-75969523D01*
X146804819Y-75969523D02*
X146804819Y-76350475D01*
X146804819Y-76350475D02*
X145804819Y-76350475D01*
X145804819Y-76350475D02*
X145804819Y-76017142D01*
X145804819Y-76017142D02*
X145852438Y-75921904D01*
X145852438Y-75921904D02*
X145900057Y-75874285D01*
X145900057Y-75874285D02*
X145995295Y-75826666D01*
X145995295Y-75826666D02*
X146090533Y-75826666D01*
X146090533Y-75826666D02*
X146185771Y-75874285D01*
X146185771Y-75874285D02*
X146233390Y-75921904D01*
X146233390Y-75921904D02*
X146281009Y-76017142D01*
X146281009Y-76017142D02*
X146281009Y-76350475D01*
X146709580Y-74779047D02*
X146757200Y-74826666D01*
X146757200Y-74826666D02*
X146804819Y-74969523D01*
X146804819Y-74969523D02*
X146804819Y-75064761D01*
X146804819Y-75064761D02*
X146757200Y-75207618D01*
X146757200Y-75207618D02*
X146661961Y-75302856D01*
X146661961Y-75302856D02*
X146566723Y-75350475D01*
X146566723Y-75350475D02*
X146376247Y-75398094D01*
X146376247Y-75398094D02*
X146233390Y-75398094D01*
X146233390Y-75398094D02*
X146042914Y-75350475D01*
X146042914Y-75350475D02*
X145947676Y-75302856D01*
X145947676Y-75302856D02*
X145852438Y-75207618D01*
X145852438Y-75207618D02*
X145804819Y-75064761D01*
X145804819Y-75064761D02*
X145804819Y-74969523D01*
X145804819Y-74969523D02*
X145852438Y-74826666D01*
X145852438Y-74826666D02*
X145900057Y-74779047D01*
X145804819Y-73874285D02*
X145804819Y-74350475D01*
X145804819Y-74350475D02*
X146281009Y-74398094D01*
X146281009Y-74398094D02*
X146233390Y-74350475D01*
X146233390Y-74350475D02*
X146185771Y-74255237D01*
X146185771Y-74255237D02*
X146185771Y-74017142D01*
X146185771Y-74017142D02*
X146233390Y-73921904D01*
X146233390Y-73921904D02*
X146281009Y-73874285D01*
X146281009Y-73874285D02*
X146376247Y-73826666D01*
X146376247Y-73826666D02*
X146614342Y-73826666D01*
X146614342Y-73826666D02*
X146709580Y-73874285D01*
X146709580Y-73874285D02*
X146757200Y-73921904D01*
X146757200Y-73921904D02*
X146804819Y-74017142D01*
X146804819Y-74017142D02*
X146804819Y-74255237D01*
X146804819Y-74255237D02*
X146757200Y-74350475D01*
X146757200Y-74350475D02*
X146709580Y-74398094D01*
X146138152Y-72969523D02*
X146804819Y-72969523D01*
X145757200Y-73207618D02*
X146471485Y-73445713D01*
X146471485Y-73445713D02*
X146471485Y-72826666D01*
X145804819Y-72540951D02*
X145804819Y-71874285D01*
X145804819Y-71874285D02*
X146804819Y-72302856D01*
X172216666Y-58849819D02*
X172216666Y-59564104D01*
X172216666Y-59564104D02*
X172169047Y-59706961D01*
X172169047Y-59706961D02*
X172073809Y-59802200D01*
X172073809Y-59802200D02*
X171930952Y-59849819D01*
X171930952Y-59849819D02*
X171835714Y-59849819D01*
X173216666Y-59849819D02*
X172645238Y-59849819D01*
X172930952Y-59849819D02*
X172930952Y-58849819D01*
X172930952Y-58849819D02*
X172835714Y-58992676D01*
X172835714Y-58992676D02*
X172740476Y-59087914D01*
X172740476Y-59087914D02*
X172645238Y-59135533D01*
X116504819Y-90491428D02*
X117504819Y-90158095D01*
X117504819Y-90158095D02*
X116504819Y-89824762D01*
X117600057Y-89729524D02*
X117600057Y-88967619D01*
X117504819Y-88729523D02*
X116838152Y-88729523D01*
X116504819Y-88729523D02*
X116552438Y-88777142D01*
X116552438Y-88777142D02*
X116600057Y-88729523D01*
X116600057Y-88729523D02*
X116552438Y-88681904D01*
X116552438Y-88681904D02*
X116504819Y-88729523D01*
X116504819Y-88729523D02*
X116600057Y-88729523D01*
X116838152Y-88253333D02*
X117504819Y-88253333D01*
X116933390Y-88253333D02*
X116885771Y-88205714D01*
X116885771Y-88205714D02*
X116838152Y-88110476D01*
X116838152Y-88110476D02*
X116838152Y-87967619D01*
X116838152Y-87967619D02*
X116885771Y-87872381D01*
X116885771Y-87872381D02*
X116981009Y-87824762D01*
X116981009Y-87824762D02*
X117504819Y-87824762D01*
X116838152Y-87348571D02*
X117838152Y-87348571D01*
X116885771Y-87348571D02*
X116838152Y-87253333D01*
X116838152Y-87253333D02*
X116838152Y-87062857D01*
X116838152Y-87062857D02*
X116885771Y-86967619D01*
X116885771Y-86967619D02*
X116933390Y-86920000D01*
X116933390Y-86920000D02*
X117028628Y-86872381D01*
X117028628Y-86872381D02*
X117314342Y-86872381D01*
X117314342Y-86872381D02*
X117409580Y-86920000D01*
X117409580Y-86920000D02*
X117457200Y-86967619D01*
X117457200Y-86967619D02*
X117504819Y-87062857D01*
X117504819Y-87062857D02*
X117504819Y-87253333D01*
X117504819Y-87253333D02*
X117457200Y-87348571D01*
X116838152Y-86015238D02*
X117504819Y-86015238D01*
X116838152Y-86443809D02*
X117361961Y-86443809D01*
X117361961Y-86443809D02*
X117457200Y-86396190D01*
X117457200Y-86396190D02*
X117504819Y-86300952D01*
X117504819Y-86300952D02*
X117504819Y-86158095D01*
X117504819Y-86158095D02*
X117457200Y-86062857D01*
X117457200Y-86062857D02*
X117409580Y-86015238D01*
X116838152Y-85681904D02*
X116838152Y-85300952D01*
X116504819Y-85539047D02*
X117361961Y-85539047D01*
X117361961Y-85539047D02*
X117457200Y-85491428D01*
X117457200Y-85491428D02*
X117504819Y-85396190D01*
X117504819Y-85396190D02*
X117504819Y-85300952D01*
X117504819Y-84443809D02*
X117504819Y-85015237D01*
X117504819Y-84729523D02*
X116504819Y-84729523D01*
X116504819Y-84729523D02*
X116647676Y-84824761D01*
X116647676Y-84824761D02*
X116742914Y-84919999D01*
X116742914Y-84919999D02*
X116790533Y-85015237D01*
%TO.C,U1*%
D12*
X127795000Y-78795000D02*
X169795000Y-78795000D01*
X169795000Y-98795000D01*
X127795000Y-98795000D01*
X127795000Y-78795000D01*
D15*
%TO.C,power*%
X118605000Y-64630000D02*
X121695000Y-64630000D01*
X118605170Y-64630000D02*
G75*
G02*
X120150462Y-59080000I1544830J2560000D01*
G01*
X120149538Y-59080000D02*
G75*
G02*
X121694830Y-64630000I462J-2990000D01*
G01*
X122650000Y-62070000D02*
G75*
G02*
X117650000Y-62070000I-2500000J0D01*
G01*
X117650000Y-62070000D02*
G75*
G02*
X122650000Y-62070000I2500000J0D01*
G01*
%TO.C,RL_S/g*%
X118605000Y-72130000D02*
X121695000Y-72130000D01*
X118605170Y-72130000D02*
G75*
G02*
X120150462Y-66580000I1544830J2560000D01*
G01*
X120149538Y-66580000D02*
G75*
G02*
X121694830Y-72130000I462J-2990000D01*
G01*
X122650000Y-69570000D02*
G75*
G02*
X117650000Y-69570000I-2500000J0D01*
G01*
X117650000Y-69570000D02*
G75*
G02*
X122650000Y-69570000I2500000J0D01*
G01*
%TO.C,Output_16v1*%
X126760000Y-55190000D02*
X126760000Y-62810000D01*
X126760000Y-56460000D02*
X136920000Y-56460000D01*
X126760000Y-62810000D02*
X136920000Y-62810000D01*
X136920000Y-55190000D02*
X126760000Y-55190000D01*
X136920000Y-62810000D02*
X136920000Y-55190000D01*
%TO.C,R2*%
X136645436Y-75160000D02*
X138099564Y-75160000D01*
X136645436Y-76980000D02*
X138099564Y-76980000D01*
%TO.C,U2*%
X164360000Y-63065000D02*
X162410000Y-63065000D01*
X164360000Y-63065000D02*
X166310000Y-63065000D01*
X164360000Y-68185000D02*
X162410000Y-68185000D01*
X164360000Y-68185000D02*
X166310000Y-68185000D01*
X161660000Y-63160000D02*
X161420000Y-62830000D01*
X161900000Y-62830000D01*
X161660000Y-63160000D01*
G36*
X161660000Y-63160000D02*
G01*
X161420000Y-62830000D01*
X161900000Y-62830000D01*
X161660000Y-63160000D01*
G37*
%TO.C,R1*%
X136575436Y-71790000D02*
X138029564Y-71790000D01*
X136575436Y-73610000D02*
X138029564Y-73610000D01*
%TO.C,R3*%
X147382500Y-75027064D02*
X147382500Y-73572936D01*
X149202500Y-75027064D02*
X149202500Y-73572936D01*
%TO.C,K1*%
X137560000Y-52920000D02*
X157360000Y-52920000D01*
X137560000Y-68520000D02*
X137560000Y-52920000D01*
X141810000Y-56520000D02*
X141810000Y-58970000D01*
X141810000Y-64920000D02*
X141810000Y-62420000D01*
X145010000Y-60670000D02*
X140410000Y-63170000D01*
X146510000Y-57070000D02*
X153310000Y-57070000D01*
X146510000Y-60670000D02*
X145010000Y-60670000D01*
X146510000Y-60670000D02*
X146510000Y-57070000D01*
X147910000Y-58870000D02*
X151910000Y-58870000D01*
X147910000Y-58870000D02*
X151910000Y-62470000D01*
X147910000Y-62470000D02*
X147910000Y-58870000D01*
X149910000Y-58870000D02*
X149910000Y-54670000D01*
X149910000Y-66670000D02*
X149910000Y-62470000D01*
X149910000Y-66670000D02*
X152410000Y-66670000D01*
X151910000Y-58870000D02*
X151910000Y-62470000D01*
X151910000Y-62470000D02*
X147910000Y-62470000D01*
X152410000Y-54670000D02*
X149910000Y-54670000D01*
X153310000Y-60670000D02*
X153310000Y-57070000D01*
X153310000Y-60670000D02*
X154110000Y-60670000D01*
X157360000Y-59520000D02*
X157360000Y-52920000D01*
X157360000Y-68520000D02*
X137560000Y-68520000D01*
X157360000Y-68520000D02*
X157360000Y-61920000D01*
%TO.C,IR_sensor1*%
X158190000Y-56740000D02*
X158190000Y-59240000D01*
X158190000Y-59240000D02*
X160690000Y-59240000D01*
X158490000Y-54920000D02*
X158490000Y-58940000D01*
X158490000Y-56630000D02*
X158990000Y-56630000D01*
X158490000Y-57440000D02*
X159490000Y-57440000D01*
X158490000Y-58940000D02*
X168710000Y-58940000D01*
X158990000Y-55420000D02*
X168210000Y-55420000D01*
X158990000Y-56630000D02*
X158990000Y-55420000D01*
X159490000Y-57440000D02*
X159490000Y-58940000D01*
X167710000Y-57440000D02*
X167710000Y-58940000D01*
X168210000Y-55420000D02*
X168210000Y-56630000D01*
X168210000Y-56630000D02*
X168710000Y-56630000D01*
X168710000Y-54920000D02*
X158490000Y-54920000D01*
X168710000Y-57440000D02*
X167710000Y-57440000D01*
X168710000Y-58940000D02*
X168710000Y-54920000D01*
%TO.C,D1*%
X155520000Y-69420000D02*
X155520000Y-71700000D01*
X155520000Y-77660000D02*
X155520000Y-75380000D01*
X163170000Y-77660000D02*
X163170000Y-69420000D01*
X163290000Y-77660000D02*
X163290000Y-69420000D01*
X163410000Y-77660000D02*
X163410000Y-69420000D01*
X164760000Y-69420000D02*
X155520000Y-69420000D01*
X164760000Y-71700000D02*
X164760000Y-69420000D01*
X164760000Y-75380000D02*
X164760000Y-77660000D01*
X164760000Y-77660000D02*
X155520000Y-77660000D01*
%TO.C,U3*%
X128240000Y-65645000D02*
X128240000Y-70845000D01*
X128240000Y-70845000D02*
X133540000Y-70845000D01*
X129890000Y-65645000D02*
X128240000Y-65645000D01*
X133540000Y-65645000D02*
X131890000Y-65645000D01*
X133540000Y-70845000D02*
X133540000Y-65645000D01*
X131890000Y-65645000D02*
G75*
G02*
X129890000Y-65645000I-1000000J0D01*
G01*
%TO.C,Q1*%
X145332500Y-75920000D02*
X145332500Y-72320000D01*
X140882500Y-74120000D02*
G75*
G02*
X145320978Y-72281522I2600000J0D01*
G01*
X145320978Y-75958478D02*
G75*
G02*
X140882499Y-74120000I-1838478J1838478D01*
G01*
%TO.C,J1*%
X171220000Y-60395000D02*
X172550000Y-60395000D01*
X171220000Y-61725000D02*
X171220000Y-60395000D01*
X171220000Y-62995000D02*
X171220000Y-80835000D01*
X171220000Y-62995000D02*
X173880000Y-62995000D01*
X171220000Y-80835000D02*
X173880000Y-80835000D01*
X173880000Y-62995000D02*
X173880000Y-80835000D01*
%TO.C,V_input1*%
X119000000Y-82720000D02*
X119000000Y-92880000D01*
X119000000Y-92880000D02*
X126620000Y-92880000D01*
X120270000Y-92880000D02*
X120270000Y-82720000D01*
X126620000Y-82720000D02*
X119000000Y-82720000D01*
X126620000Y-92880000D02*
X126620000Y-82720000D01*
%TD*%
M02*
