%TF.GenerationSoftware,KiCad,Pcbnew,8.0.4*%
%TF.CreationDate,2024-11-13T12:07:51+05:30*%
%TF.ProjectId,cccccccc,63636363-6363-4636-932e-6b696361645f,rev?*%
%TF.SameCoordinates,Original*%
%TF.FileFunction,Copper,L1,Top*%
%TF.FilePolarity,Positive*%
%FSLAX46Y46*%
G04 Gerber Fmt 4.6, Leading zero omitted, Abs format (unit mm)*
G04 Created by KiCad (PCBNEW 8.0.4) date 2024-11-13 12:07:51*
%MOMM*%
%LPD*%
G01*
G04 APERTURE LIST*
G04 Aperture macros list*
%AMRoundRect*
0 Rectangle with rounded corners*
0 $1 Rounding radius*
0 $2 $3 $4 $5 $6 $7 $8 $9 X,Y pos of 4 corners*
0 Add a 4 corners polygon primitive as box body*
4,1,4,$2,$3,$4,$5,$6,$7,$8,$9,$2,$3,0*
0 Add four circle primitives for the rounded corners*
1,1,$1+$1,$2,$3*
1,1,$1+$1,$4,$5*
1,1,$1+$1,$6,$7*
1,1,$1+$1,$8,$9*
0 Add four rect primitives between the rounded corners*
20,1,$1+$1,$2,$3,$4,$5,0*
20,1,$1+$1,$4,$5,$6,$7,0*
20,1,$1+$1,$6,$7,$8,$9,0*
20,1,$1+$1,$8,$9,$2,$3,0*%
G04 Aperture macros list end*
%TA.AperFunction,ComponentPad*%
%ADD10R,2.000000X2.000000*%
%TD*%
%TA.AperFunction,ComponentPad*%
%ADD11R,1.800000X1.800000*%
%TD*%
%TA.AperFunction,ComponentPad*%
%ADD12C,1.800000*%
%TD*%
%TA.AperFunction,ComponentPad*%
%ADD13R,3.000000X3.000000*%
%TD*%
%TA.AperFunction,ComponentPad*%
%ADD14C,3.000000*%
%TD*%
%TA.AperFunction,SMDPad,CuDef*%
%ADD15RoundRect,0.250000X-0.312500X-0.625000X0.312500X-0.625000X0.312500X0.625000X-0.312500X0.625000X0*%
%TD*%
%TA.AperFunction,SMDPad,CuDef*%
%ADD16RoundRect,0.150000X-0.825000X-0.150000X0.825000X-0.150000X0.825000X0.150000X-0.825000X0.150000X0*%
%TD*%
%TA.AperFunction,SMDPad,CuDef*%
%ADD17RoundRect,0.250000X0.625000X-0.312500X0.625000X0.312500X-0.625000X0.312500X-0.625000X-0.312500X0*%
%TD*%
%TA.AperFunction,ComponentPad*%
%ADD18C,2.500000*%
%TD*%
%TA.AperFunction,ComponentPad*%
%ADD19RoundRect,0.250000X-0.600000X-0.725000X0.600000X-0.725000X0.600000X0.725000X-0.600000X0.725000X0*%
%TD*%
%TA.AperFunction,ComponentPad*%
%ADD20O,1.700000X1.950000*%
%TD*%
%TA.AperFunction,ComponentPad*%
%ADD21R,3.200000X3.200000*%
%TD*%
%TA.AperFunction,ComponentPad*%
%ADD22O,3.200000X3.200000*%
%TD*%
%TA.AperFunction,ComponentPad*%
%ADD23R,1.600000X1.600000*%
%TD*%
%TA.AperFunction,ComponentPad*%
%ADD24O,1.600000X1.600000*%
%TD*%
%TA.AperFunction,ComponentPad*%
%ADD25R,1.500000X1.050000*%
%TD*%
%TA.AperFunction,ComponentPad*%
%ADD26O,1.500000X1.050000*%
%TD*%
%TA.AperFunction,ComponentPad*%
%ADD27R,1.700000X1.700000*%
%TD*%
%TA.AperFunction,ComponentPad*%
%ADD28O,1.700000X1.700000*%
%TD*%
%TA.AperFunction,ViaPad*%
%ADD29C,0.600000*%
%TD*%
%TA.AperFunction,Conductor*%
%ADD30C,0.200000*%
%TD*%
%TA.AperFunction,Conductor*%
%ADD31C,0.300000*%
%TD*%
%TA.AperFunction,Conductor*%
%ADD32C,4.000000*%
%TD*%
G04 APERTURE END LIST*
D10*
%TO.P,U1,4,-Vout*%
%TO.N,/GND_S*%
X168795000Y-97795000D03*
%TO.P,U1,3,+Vout*%
%TO.N,/VCC*%
X168795000Y-79795000D03*
%TO.P,U1,2,-Vin*%
%TO.N,/GND_S*%
X128795000Y-97795000D03*
%TO.P,U1,1,+Vin*%
%TO.N,/16V*%
X128795000Y-79795000D03*
%TD*%
D11*
%TO.P,power,1,K*%
%TO.N,/GND_S*%
X120150000Y-63340000D03*
D12*
%TO.P,power,2,A*%
%TO.N,Net-(Red1-A)*%
X120150000Y-60800000D03*
%TD*%
D11*
%TO.P,RL_S/g,1,K*%
%TO.N,/GND_S*%
X120150000Y-70840000D03*
D12*
%TO.P,RL_S/g,2,A*%
%TO.N,Net-(Green1-A)*%
X120150000Y-68300000D03*
%TD*%
D13*
%TO.P,Output_16v1,1,Pin_1*%
%TO.N,/GND_S*%
X134380000Y-59000000D03*
D14*
%TO.P,Output_16v1,2,Pin_2*%
%TO.N,Net-(Output_16v1-Pin_2)*%
X129300000Y-59000000D03*
%TD*%
D15*
%TO.P,R2,1*%
%TO.N,/VCC*%
X135910000Y-76070000D03*
%TO.P,R2,2*%
%TO.N,Net-(Red1-A)*%
X138835000Y-76070000D03*
%TD*%
D16*
%TO.P,U2,1,VCC*%
%TO.N,/VCC*%
X161885000Y-63720000D03*
%TO.P,U2,2,PA6*%
%TO.N,/pin_2_IR*%
X161885000Y-64990000D03*
%TO.P,U2,3,PA7*%
%TO.N,/pin3*%
X161885000Y-66260000D03*
%TO.P,U2,4,PA1*%
%TO.N,/pin_4*%
X161885000Y-67530000D03*
%TO.P,U2,5,PA2*%
%TO.N,/Relay_Signal_5*%
X166835000Y-67530000D03*
%TO.P,U2,6,~{RESET}/PA0*%
%TO.N,/pin_6*%
X166835000Y-66260000D03*
%TO.P,U2,7,PA3*%
%TO.N,/pin_7*%
X166835000Y-64990000D03*
%TO.P,U2,8,GND*%
%TO.N,/GND_S*%
X166835000Y-63720000D03*
%TD*%
D15*
%TO.P,R1,1*%
%TO.N,/Relay_Signal_5*%
X135840000Y-72700000D03*
%TO.P,R1,2*%
%TO.N,Net-(R1-Pad2)*%
X138765000Y-72700000D03*
%TD*%
D17*
%TO.P,R3,1*%
%TO.N,Net-(R3-Pad1)*%
X148292500Y-75762500D03*
%TO.P,R3,2*%
%TO.N,Net-(Q1-B)*%
X148292500Y-72837500D03*
%TD*%
D14*
%TO.P,K1,1*%
%TO.N,/16V*%
X155960000Y-60720000D03*
D18*
%TO.P,K1,2*%
%TO.N,Net-(D1-A)*%
X154010000Y-54670000D03*
D14*
%TO.P,K1,3*%
%TO.N,Net-(Output_16v1-Pin_2)*%
X141810000Y-54670000D03*
%TO.P,K1,4*%
%TO.N,unconnected-(K1-Pad4)*%
X141760000Y-66720000D03*
D18*
%TO.P,K1,5*%
%TO.N,/VCC*%
X154010000Y-66670000D03*
%TD*%
D19*
%TO.P,IR_sensor1,1,Pin_1*%
%TO.N,/pin_2_IR*%
X161100000Y-56630000D03*
D20*
%TO.P,IR_sensor1,2,Pin_2*%
%TO.N,/VCC*%
X163600000Y-56630000D03*
%TO.P,IR_sensor1,3,Pin_3*%
%TO.N,/GND_S*%
X166100000Y-56630000D03*
%TD*%
D21*
%TO.P,D1,1,K*%
%TO.N,/VCC*%
X166490000Y-73540000D03*
D22*
%TO.P,D1,2,A*%
%TO.N,Net-(D1-A)*%
X153790000Y-73540000D03*
%TD*%
D23*
%TO.P,U3,1*%
%TO.N,Net-(R1-Pad2)*%
X127080000Y-66975000D03*
D24*
%TO.P,U3,2*%
%TO.N,Net-(Green1-A)*%
X127080000Y-69515000D03*
%TO.P,U3,3*%
%TO.N,Net-(R3-Pad1)*%
X134700000Y-69515000D03*
%TO.P,U3,4*%
%TO.N,/VCC*%
X134700000Y-66975000D03*
%TD*%
D25*
%TO.P,Q1,1,C*%
%TO.N,Net-(D1-A)*%
X143482500Y-75390000D03*
D26*
%TO.P,Q1,2,B*%
%TO.N,Net-(Q1-B)*%
X143482500Y-74120000D03*
%TO.P,Q1,3,E*%
%TO.N,/GND_S*%
X143482500Y-72850000D03*
%TD*%
D27*
%TO.P,J1,1,Pin_1*%
%TO.N,/VCC*%
X172550000Y-61725000D03*
D28*
%TO.P,J1,2,Pin_2*%
%TO.N,/pin_2_IR*%
X172550000Y-64265000D03*
%TO.P,J1,3,Pin_3*%
%TO.N,/pin3*%
X172550000Y-66805000D03*
%TO.P,J1,4,Pin_4*%
%TO.N,/pin_4*%
X172550000Y-69345000D03*
%TO.P,J1,5,Pin_5*%
%TO.N,/Relay_Signal_5*%
X172550000Y-71885000D03*
%TO.P,J1,6,Pin_6*%
%TO.N,/pin_6*%
X172550000Y-74425000D03*
%TO.P,J1,7,Pin_7*%
%TO.N,/pin_7*%
X172550000Y-76965000D03*
%TO.P,J1,8,Pin_8*%
%TO.N,/GND_S*%
X172550000Y-79505000D03*
%TD*%
D13*
%TO.P,V_input1,1,Pin_1*%
%TO.N,/GND_S*%
X122810000Y-85260000D03*
D14*
%TO.P,V_input1,2,Pin_2*%
%TO.N,/16V*%
X122810000Y-90340000D03*
%TD*%
D29*
%TO.N,/VCC*%
X135920000Y-76160000D03*
X161740000Y-63740000D03*
%TO.N,/GND_S*%
X167350000Y-63700000D03*
%TO.N,/pin_7*%
X166800000Y-64950000D03*
%TO.N,/pin_6*%
X166970000Y-66290000D03*
%TO.N,/pin3*%
X166590000Y-62390000D03*
%TO.N,/Relay_Signal_5*%
X135790000Y-72690000D03*
X169180000Y-66780000D03*
X164640000Y-67510000D03*
%TO.N,Net-(R1-Pad2)*%
X138852500Y-72680000D03*
%TD*%
D30*
%TO.N,Net-(Red1-A)*%
X136640000Y-73875000D02*
X138835000Y-76070000D01*
X128270000Y-66852244D02*
X135292756Y-73875000D01*
X135292756Y-73875000D02*
X136640000Y-73875000D01*
X128270000Y-65792208D02*
X128270000Y-66852244D01*
X123277792Y-60800000D02*
X128270000Y-65792208D01*
X120150000Y-60800000D02*
X123277792Y-60800000D01*
D31*
%TO.N,Net-(Green1-A)*%
X121365000Y-69515000D02*
X120150000Y-68300000D01*
X127080000Y-69515000D02*
X121365000Y-69515000D01*
%TO.N,Net-(D1-A)*%
X151935610Y-56744390D02*
X151935610Y-71685610D01*
X154010000Y-54670000D02*
X151935610Y-56744390D01*
X151935610Y-71685610D02*
X153790000Y-73540000D01*
D32*
%TO.N,/16V*%
X159176701Y-71476701D02*
X157950000Y-70250000D01*
X157950000Y-70250000D02*
X157950000Y-62710000D01*
X159176701Y-73527311D02*
X159176701Y-71476701D01*
X128795000Y-79795000D02*
X152909012Y-79795000D01*
X152909012Y-79795000D02*
X159176701Y-73527311D01*
X157950000Y-62710000D02*
X155960000Y-60720000D01*
D31*
%TO.N,Net-(D1-A)*%
X153790000Y-73540000D02*
X150655000Y-76675000D01*
X144767500Y-76675000D02*
X143482500Y-75390000D01*
X150655000Y-76675000D02*
X144767500Y-76675000D01*
%TO.N,/pin_2_IR*%
X160560000Y-57170000D02*
X160560000Y-64639999D01*
X172550000Y-64265000D02*
X173750000Y-63065000D01*
X173750000Y-60525000D02*
X172975000Y-59750000D01*
X172975000Y-59750000D02*
X164220000Y-59750000D01*
X160560000Y-64639999D02*
X160910001Y-64990000D01*
X160910001Y-64990000D02*
X161885000Y-64990000D01*
X161100000Y-56630000D02*
X160560000Y-57170000D01*
X173750000Y-63065000D02*
X173750000Y-60525000D01*
X164220000Y-59750000D02*
X161100000Y-56630000D01*
%TO.N,/pin3*%
X166590000Y-62278738D02*
X166578738Y-62290000D01*
X166590000Y-62390000D02*
X166590000Y-62278738D01*
X162608738Y-66260000D02*
X166478738Y-62390000D01*
X166478738Y-62390000D02*
X166590000Y-62390000D01*
X161885000Y-66260000D02*
X162608738Y-66260000D01*
%TO.N,/pin_4*%
X161885000Y-67530000D02*
X162535000Y-68180000D01*
X172550000Y-69345000D02*
X169495000Y-69345000D01*
X168750000Y-68600000D02*
X168150000Y-68600000D01*
X162535000Y-68180000D02*
X167730000Y-68180000D01*
X169495000Y-69345000D02*
X168750000Y-68600000D01*
X167730000Y-68180000D02*
X168150000Y-68600000D01*
%TO.N,/Relay_Signal_5*%
X164530000Y-67530000D02*
X164510000Y-67550000D01*
X169130000Y-66780000D02*
X169180000Y-66780000D01*
X169180000Y-66780000D02*
X168380000Y-67580000D01*
X164640000Y-67510000D02*
X164620000Y-67530000D01*
X169150000Y-66810000D02*
X169130000Y-66830000D01*
X168380000Y-67580000D02*
X166885000Y-67580000D01*
X164620000Y-67530000D02*
X164530000Y-67530000D01*
X164660000Y-67530000D02*
X164640000Y-67510000D01*
X169180000Y-66780000D02*
X169150000Y-66810000D01*
X166885000Y-67580000D02*
X166835000Y-67530000D01*
X169130000Y-66830000D02*
X169130000Y-66780000D01*
X166835000Y-67530000D02*
X164660000Y-67530000D01*
D32*
%TO.N,Net-(Output_16v1-Pin_2)*%
X131310000Y-54670000D02*
X141810000Y-54670000D01*
X129300000Y-56680000D02*
X131310000Y-54670000D01*
X129300000Y-59000000D02*
X129300000Y-56680000D01*
D31*
%TO.N,Net-(Q1-B)*%
X143482500Y-74120000D02*
X147010000Y-74120000D01*
X147010000Y-74120000D02*
X148292500Y-72837500D01*
%TO.N,Net-(R3-Pad1)*%
X149227500Y-75762500D02*
X148292500Y-75762500D01*
X134700000Y-69515000D02*
X149335000Y-69515000D01*
X149335000Y-69515000D02*
X150250000Y-70430000D01*
X150250000Y-70430000D02*
X150250000Y-74740000D01*
X150250000Y-74740000D02*
X149227500Y-75762500D01*
D32*
%TO.N,/16V*%
X125130000Y-90340000D02*
X128795000Y-86675000D01*
X122810000Y-90340000D02*
X125130000Y-90340000D01*
X128795000Y-86675000D02*
X128795000Y-79795000D01*
%TD*%
%TA.AperFunction,Conductor*%
%TO.N,/GND_S*%
G36*
X161671230Y-58125184D02*
G01*
X161691872Y-58141818D01*
X163805324Y-60255271D01*
X163805327Y-60255274D01*
X163873020Y-60300505D01*
X163892312Y-60313395D01*
X163892313Y-60313396D01*
X163892312Y-60313396D01*
X163911871Y-60326464D01*
X163911872Y-60326464D01*
X163911873Y-60326465D01*
X164030256Y-60375501D01*
X164030260Y-60375501D01*
X164030261Y-60375502D01*
X164155928Y-60400500D01*
X164155931Y-60400500D01*
X171182283Y-60400500D01*
X171249322Y-60420185D01*
X171295077Y-60472989D01*
X171305021Y-60542147D01*
X171281550Y-60598811D01*
X171256204Y-60632668D01*
X171256202Y-60632671D01*
X171205908Y-60767517D01*
X171199501Y-60827116D01*
X171199500Y-60827135D01*
X171199500Y-62622870D01*
X171199501Y-62622876D01*
X171205908Y-62682483D01*
X171256202Y-62817328D01*
X171256206Y-62817335D01*
X171342452Y-62932544D01*
X171342455Y-62932547D01*
X171457664Y-63018793D01*
X171457671Y-63018797D01*
X171589081Y-63067810D01*
X171645015Y-63109681D01*
X171669432Y-63175145D01*
X171654580Y-63243418D01*
X171633430Y-63271673D01*
X171511503Y-63393600D01*
X171375965Y-63587169D01*
X171375964Y-63587171D01*
X171276098Y-63801335D01*
X171276094Y-63801344D01*
X171214938Y-64029586D01*
X171214936Y-64029596D01*
X171194341Y-64264999D01*
X171194341Y-64265000D01*
X171214936Y-64500403D01*
X171214938Y-64500413D01*
X171276094Y-64728655D01*
X171276096Y-64728659D01*
X171276097Y-64728663D01*
X171307325Y-64795631D01*
X171375965Y-64942830D01*
X171375967Y-64942834D01*
X171511501Y-65136395D01*
X171511506Y-65136402D01*
X171678597Y-65303493D01*
X171678603Y-65303498D01*
X171864158Y-65433425D01*
X171907783Y-65488002D01*
X171914977Y-65557500D01*
X171883454Y-65619855D01*
X171864158Y-65636575D01*
X171678597Y-65766505D01*
X171511505Y-65933597D01*
X171375965Y-66127169D01*
X171375964Y-66127171D01*
X171276098Y-66341335D01*
X171276094Y-66341344D01*
X171214938Y-66569586D01*
X171214936Y-66569596D01*
X171194341Y-66804999D01*
X171194341Y-66805000D01*
X171214936Y-67040403D01*
X171214938Y-67040413D01*
X171276094Y-67268655D01*
X171276096Y-67268659D01*
X171276097Y-67268663D01*
X171347365Y-67421497D01*
X171375965Y-67482830D01*
X171375967Y-67482834D01*
X171437731Y-67571041D01*
X171508778Y-67672507D01*
X171511501Y-67676395D01*
X171511506Y-67676402D01*
X171678597Y-67843493D01*
X171678603Y-67843498D01*
X171864158Y-67973425D01*
X171907783Y-68028002D01*
X171914977Y-68097500D01*
X171883454Y-68159855D01*
X171864158Y-68176575D01*
X171678597Y-68306505D01*
X171511506Y-68473596D01*
X171393854Y-68641623D01*
X171339277Y-68685248D01*
X171292279Y-68694500D01*
X169815808Y-68694500D01*
X169748769Y-68674815D01*
X169728127Y-68658181D01*
X169164674Y-68094727D01*
X169164671Y-68094724D01*
X169062836Y-68026681D01*
X169018031Y-67973069D01*
X169009324Y-67903744D01*
X169039478Y-67840717D01*
X169044027Y-67835917D01*
X169278224Y-67601720D01*
X169339545Y-67568237D01*
X169352019Y-67566183D01*
X169359255Y-67565368D01*
X169529522Y-67505789D01*
X169682262Y-67409816D01*
X169809816Y-67282262D01*
X169905789Y-67129522D01*
X169965368Y-66959255D01*
X169965369Y-66959249D01*
X169985565Y-66780003D01*
X169985565Y-66779996D01*
X169965369Y-66600750D01*
X169965368Y-66600745D01*
X169905789Y-66430478D01*
X169809816Y-66277738D01*
X169682262Y-66150184D01*
X169645550Y-66127116D01*
X169529523Y-66054211D01*
X169359254Y-65994631D01*
X169359249Y-65994630D01*
X169180004Y-65974435D01*
X169179996Y-65974435D01*
X169000750Y-65994630D01*
X169000745Y-65994631D01*
X168830476Y-66054211D01*
X168677737Y-66150184D01*
X168550184Y-66277737D01*
X168550182Y-66277740D01*
X168539493Y-66294752D01*
X168487158Y-66341043D01*
X168418105Y-66351690D01*
X168354256Y-66323315D01*
X168315885Y-66264924D01*
X168310500Y-66228779D01*
X168310500Y-66044313D01*
X168310499Y-66044298D01*
X168307598Y-66007432D01*
X168307597Y-66007426D01*
X168261745Y-65849606D01*
X168261744Y-65849603D01*
X168261744Y-65849602D01*
X168178081Y-65708135D01*
X168178078Y-65708132D01*
X168173298Y-65701969D01*
X168175750Y-65700066D01*
X168149155Y-65651421D01*
X168154104Y-65581726D01*
X168174940Y-65549304D01*
X168173298Y-65548031D01*
X168178075Y-65541870D01*
X168178081Y-65541865D01*
X168261744Y-65400398D01*
X168307598Y-65242569D01*
X168310500Y-65205694D01*
X168310500Y-64774306D01*
X168307598Y-64737431D01*
X168306484Y-64733598D01*
X168261745Y-64579606D01*
X168261744Y-64579603D01*
X168261744Y-64579602D01*
X168178081Y-64438135D01*
X168178078Y-64438132D01*
X168173298Y-64431969D01*
X168175635Y-64430155D01*
X168148798Y-64381050D01*
X168153756Y-64311356D01*
X168174554Y-64278998D01*
X168172903Y-64277717D01*
X168177686Y-64271550D01*
X168261281Y-64130198D01*
X168307100Y-63972486D01*
X168307295Y-63970001D01*
X168307295Y-63970000D01*
X166709000Y-63970000D01*
X166641961Y-63950315D01*
X166596206Y-63897511D01*
X166585000Y-63846000D01*
X166585000Y-63594000D01*
X166604685Y-63526961D01*
X166657489Y-63481206D01*
X166709000Y-63470000D01*
X168307295Y-63470000D01*
X168307295Y-63469998D01*
X168307100Y-63467513D01*
X168261281Y-63309801D01*
X168177685Y-63168447D01*
X168177678Y-63168438D01*
X168061561Y-63052321D01*
X168061552Y-63052314D01*
X167920196Y-62968717D01*
X167920193Y-62968716D01*
X167762495Y-62922900D01*
X167762489Y-62922899D01*
X167725649Y-62920000D01*
X167426221Y-62920000D01*
X167359182Y-62900315D01*
X167313427Y-62847511D01*
X167303483Y-62778353D01*
X167314500Y-62742199D01*
X167315788Y-62739523D01*
X167315789Y-62739522D01*
X167375368Y-62569255D01*
X167375369Y-62569249D01*
X167395565Y-62390003D01*
X167395565Y-62389996D01*
X167375369Y-62210750D01*
X167375368Y-62210745D01*
X167370875Y-62197906D01*
X167315789Y-62040478D01*
X167315786Y-62040474D01*
X167247277Y-61931442D01*
X167219816Y-61887738D01*
X167092262Y-61760184D01*
X166939523Y-61664211D01*
X166769254Y-61604631D01*
X166769249Y-61604630D01*
X166590004Y-61584435D01*
X166589996Y-61584435D01*
X166410750Y-61604630D01*
X166410745Y-61604631D01*
X166240476Y-61664211D01*
X166087737Y-61760184D01*
X165960184Y-61887737D01*
X165864212Y-62040474D01*
X165849819Y-62081607D01*
X165820459Y-62128331D01*
X163446129Y-64502661D01*
X163384806Y-64536146D01*
X163315114Y-64531162D01*
X163259181Y-64489290D01*
X163251719Y-64478106D01*
X163228081Y-64438135D01*
X163228079Y-64438133D01*
X163223298Y-64431969D01*
X163225750Y-64430066D01*
X163199155Y-64381421D01*
X163204104Y-64311726D01*
X163224940Y-64279304D01*
X163223298Y-64278031D01*
X163228075Y-64271870D01*
X163228081Y-64271865D01*
X163311744Y-64130398D01*
X163357598Y-63972569D01*
X163360500Y-63935694D01*
X163360500Y-63504306D01*
X163357598Y-63467431D01*
X163330200Y-63373129D01*
X163311745Y-63309606D01*
X163311744Y-63309603D01*
X163311744Y-63309602D01*
X163228081Y-63168135D01*
X163228079Y-63168133D01*
X163228076Y-63168129D01*
X163111870Y-63051923D01*
X163111862Y-63051917D01*
X162990104Y-62979910D01*
X162970398Y-62968256D01*
X162970397Y-62968255D01*
X162970396Y-62968255D01*
X162970393Y-62968254D01*
X162812573Y-62922402D01*
X162812567Y-62922401D01*
X162775701Y-62919500D01*
X162775694Y-62919500D01*
X161334500Y-62919500D01*
X161267461Y-62899815D01*
X161221706Y-62847011D01*
X161210500Y-62795500D01*
X161210500Y-58229499D01*
X161230185Y-58162460D01*
X161282989Y-58116705D01*
X161334500Y-58105499D01*
X161604191Y-58105499D01*
X161671230Y-58125184D01*
G37*
%TD.AperFunction*%
%TA.AperFunction,Conductor*%
G36*
X171426355Y-51050185D02*
G01*
X171472110Y-51102989D01*
X171482054Y-51172147D01*
X171453029Y-51235703D01*
X171403755Y-51270262D01*
X171394601Y-51273776D01*
X171384260Y-51277746D01*
X171057343Y-51444320D01*
X170749635Y-51644147D01*
X170464498Y-51875047D01*
X170464490Y-51875054D01*
X170205054Y-52134490D01*
X170205047Y-52134498D01*
X169974147Y-52419635D01*
X169774320Y-52727343D01*
X169607746Y-53054260D01*
X169476260Y-53396793D01*
X169381294Y-53751209D01*
X169381294Y-53751211D01*
X169323898Y-54113594D01*
X169304696Y-54479999D01*
X169304696Y-54480000D01*
X169323898Y-54846405D01*
X169379711Y-55198794D01*
X169381295Y-55208794D01*
X169473578Y-55553199D01*
X169476260Y-55563206D01*
X169607746Y-55905739D01*
X169774320Y-56232656D01*
X169974147Y-56540364D01*
X170137117Y-56741615D01*
X170205051Y-56825506D01*
X170464494Y-57084949D01*
X170464498Y-57084952D01*
X170749635Y-57315852D01*
X171045206Y-57507797D01*
X171057348Y-57515682D01*
X171384264Y-57682255D01*
X171726801Y-57813742D01*
X172081206Y-57908705D01*
X172443596Y-57966102D01*
X172789734Y-57984241D01*
X172809999Y-57985304D01*
X172810000Y-57985304D01*
X172810001Y-57985304D01*
X172829203Y-57984297D01*
X173176404Y-57966102D01*
X173538794Y-57908705D01*
X173893199Y-57813742D01*
X174235736Y-57682255D01*
X174562652Y-57515682D01*
X174870366Y-57315851D01*
X175155506Y-57084949D01*
X175414949Y-56825506D01*
X175459134Y-56770941D01*
X175516621Y-56731231D01*
X175586452Y-56728903D01*
X175646456Y-56764698D01*
X175677582Y-56827252D01*
X175679500Y-56848978D01*
X175679500Y-97729683D01*
X175659815Y-97796722D01*
X175607011Y-97842477D01*
X175537853Y-97852421D01*
X175474297Y-97823396D01*
X175467819Y-97817364D01*
X175345509Y-97695054D01*
X175345501Y-97695047D01*
X175060364Y-97464147D01*
X174752656Y-97264320D01*
X174425739Y-97097746D01*
X174083206Y-96966260D01*
X174083199Y-96966258D01*
X173728794Y-96871295D01*
X173728790Y-96871294D01*
X173728789Y-96871294D01*
X173366405Y-96813898D01*
X173000001Y-96794696D01*
X172999999Y-96794696D01*
X172633594Y-96813898D01*
X172271211Y-96871294D01*
X172271209Y-96871294D01*
X171916793Y-96966260D01*
X171574260Y-97097746D01*
X171247343Y-97264320D01*
X170939635Y-97464147D01*
X170654498Y-97695047D01*
X170654490Y-97695054D01*
X170395059Y-97954485D01*
X170395052Y-97954493D01*
X170358982Y-97999036D01*
X170301494Y-98038748D01*
X170262616Y-98045000D01*
X169083816Y-98045000D01*
X169099876Y-98028940D01*
X169150036Y-97942061D01*
X169176000Y-97845160D01*
X169176000Y-97744840D01*
X169150036Y-97647939D01*
X169099876Y-97561060D01*
X169083816Y-97545000D01*
X170295000Y-97545000D01*
X170295000Y-96747172D01*
X170294999Y-96747155D01*
X170288598Y-96687627D01*
X170288596Y-96687620D01*
X170238354Y-96552913D01*
X170238350Y-96552906D01*
X170152190Y-96437812D01*
X170152187Y-96437809D01*
X170037093Y-96351649D01*
X170037086Y-96351645D01*
X169902379Y-96301403D01*
X169902372Y-96301401D01*
X169842844Y-96295000D01*
X169045000Y-96295000D01*
X169045000Y-97506184D01*
X169028940Y-97490124D01*
X168942061Y-97439964D01*
X168845160Y-97414000D01*
X168744840Y-97414000D01*
X168647939Y-97439964D01*
X168561060Y-97490124D01*
X168545000Y-97506184D01*
X168545000Y-96295000D01*
X167747155Y-96295000D01*
X167687627Y-96301401D01*
X167687620Y-96301403D01*
X167552913Y-96351645D01*
X167552906Y-96351649D01*
X167437812Y-96437809D01*
X167437809Y-96437812D01*
X167351649Y-96552906D01*
X167351645Y-96552913D01*
X167301403Y-96687620D01*
X167301401Y-96687627D01*
X167295000Y-96747155D01*
X167295000Y-97545000D01*
X168506184Y-97545000D01*
X168490124Y-97561060D01*
X168439964Y-97647939D01*
X168414000Y-97744840D01*
X168414000Y-97845160D01*
X168439964Y-97942061D01*
X168490124Y-98028940D01*
X168506184Y-98045000D01*
X167295000Y-98045000D01*
X167295000Y-98842844D01*
X167301401Y-98902372D01*
X167301403Y-98902379D01*
X167351645Y-99037086D01*
X167351649Y-99037093D01*
X167437809Y-99152187D01*
X167437812Y-99152190D01*
X167552906Y-99238350D01*
X167552913Y-99238354D01*
X167687620Y-99288596D01*
X167687627Y-99288598D01*
X167747155Y-99294999D01*
X167747172Y-99295000D01*
X168545000Y-99295000D01*
X168545000Y-98083816D01*
X168561060Y-98099876D01*
X168647939Y-98150036D01*
X168744840Y-98176000D01*
X168845160Y-98176000D01*
X168942061Y-98150036D01*
X169028940Y-98099876D01*
X169045000Y-98083816D01*
X169045000Y-99295000D01*
X169483705Y-99295000D01*
X169550744Y-99314685D01*
X169596499Y-99367489D01*
X169606443Y-99436647D01*
X169603483Y-99451079D01*
X169576907Y-99550260D01*
X169571294Y-99571209D01*
X169571294Y-99571211D01*
X169513898Y-99933594D01*
X169494696Y-100299999D01*
X169494696Y-100300000D01*
X169513898Y-100666405D01*
X169571294Y-101028788D01*
X169571294Y-101028790D01*
X169666260Y-101383206D01*
X169797746Y-101725739D01*
X169964320Y-102052656D01*
X170164147Y-102360364D01*
X170395047Y-102645501D01*
X170395054Y-102645509D01*
X170457364Y-102707819D01*
X170490849Y-102769142D01*
X170485865Y-102838834D01*
X170443993Y-102894767D01*
X170378529Y-102919184D01*
X170369683Y-102919500D01*
X116244500Y-102919500D01*
X116177461Y-102899815D01*
X116131706Y-102847011D01*
X116120500Y-102795500D01*
X116120500Y-98799999D01*
X117964696Y-98799999D01*
X117964696Y-98800000D01*
X117983898Y-99166405D01*
X118041294Y-99528788D01*
X118041294Y-99528790D01*
X118136260Y-99883206D01*
X118267746Y-100225739D01*
X118434320Y-100552656D01*
X118634147Y-100860364D01*
X118770536Y-101028790D01*
X118865051Y-101145506D01*
X119124494Y-101404949D01*
X119124498Y-101404952D01*
X119409635Y-101635852D01*
X119717343Y-101835679D01*
X119717348Y-101835682D01*
X120044264Y-102002255D01*
X120386801Y-102133742D01*
X120741206Y-102228705D01*
X121103596Y-102286102D01*
X121449734Y-102304241D01*
X121469999Y-102305304D01*
X121470000Y-102305304D01*
X121470001Y-102305304D01*
X121489203Y-102304297D01*
X121836404Y-102286102D01*
X122198794Y-102228705D01*
X122553199Y-102133742D01*
X122895736Y-102002255D01*
X123222652Y-101835682D01*
X123530366Y-101635851D01*
X123815506Y-101404949D01*
X124074949Y-101145506D01*
X124305851Y-100860366D01*
X124505682Y-100552652D01*
X124672255Y-100225736D01*
X124803742Y-99883199D01*
X124898705Y-99528794D01*
X124956102Y-99166404D01*
X124975304Y-98800000D01*
X124956102Y-98433596D01*
X124898705Y-98071206D01*
X124803742Y-97716801D01*
X124672255Y-97374264D01*
X124505682Y-97047348D01*
X124393175Y-96874102D01*
X124310735Y-96747155D01*
X127295000Y-96747155D01*
X127295000Y-97545000D01*
X128506184Y-97545000D01*
X128490124Y-97561060D01*
X128439964Y-97647939D01*
X128414000Y-97744840D01*
X128414000Y-97845160D01*
X128439964Y-97942061D01*
X128490124Y-98028940D01*
X128506184Y-98045000D01*
X127295000Y-98045000D01*
X127295000Y-98842844D01*
X127301401Y-98902372D01*
X127301403Y-98902379D01*
X127351645Y-99037086D01*
X127351649Y-99037093D01*
X127437809Y-99152187D01*
X127437812Y-99152190D01*
X127552906Y-99238350D01*
X127552913Y-99238354D01*
X127687620Y-99288596D01*
X127687627Y-99288598D01*
X127747155Y-99294999D01*
X127747172Y-99295000D01*
X128545000Y-99295000D01*
X128545000Y-98083816D01*
X128561060Y-98099876D01*
X128647939Y-98150036D01*
X128744840Y-98176000D01*
X128845160Y-98176000D01*
X128942061Y-98150036D01*
X129028940Y-98099876D01*
X129045000Y-98083816D01*
X129045000Y-99295000D01*
X129842828Y-99295000D01*
X129842844Y-99294999D01*
X129902372Y-99288598D01*
X129902379Y-99288596D01*
X130037086Y-99238354D01*
X130037093Y-99238350D01*
X130152187Y-99152190D01*
X130152190Y-99152187D01*
X130238350Y-99037093D01*
X130238354Y-99037086D01*
X130288596Y-98902379D01*
X130288598Y-98902372D01*
X130294999Y-98842844D01*
X130295000Y-98842827D01*
X130295000Y-98045000D01*
X129083816Y-98045000D01*
X129099876Y-98028940D01*
X129150036Y-97942061D01*
X129176000Y-97845160D01*
X129176000Y-97744840D01*
X129150036Y-97647939D01*
X129099876Y-97561060D01*
X129083816Y-97545000D01*
X130295000Y-97545000D01*
X130295000Y-96747172D01*
X130294999Y-96747155D01*
X130288598Y-96687627D01*
X130288596Y-96687620D01*
X130238354Y-96552913D01*
X130238350Y-96552906D01*
X130152190Y-96437812D01*
X130152187Y-96437809D01*
X130037093Y-96351649D01*
X130037086Y-96351645D01*
X129902379Y-96301403D01*
X129902372Y-96301401D01*
X129842844Y-96295000D01*
X129045000Y-96295000D01*
X129045000Y-97506184D01*
X129028940Y-97490124D01*
X128942061Y-97439964D01*
X128845160Y-97414000D01*
X128744840Y-97414000D01*
X128647939Y-97439964D01*
X128561060Y-97490124D01*
X128545000Y-97506184D01*
X128545000Y-96295000D01*
X127747155Y-96295000D01*
X127687627Y-96301401D01*
X127687620Y-96301403D01*
X127552913Y-96351645D01*
X127552906Y-96351649D01*
X127437812Y-96437809D01*
X127437809Y-96437812D01*
X127351649Y-96552906D01*
X127351645Y-96552913D01*
X127301403Y-96687620D01*
X127301401Y-96687627D01*
X127295000Y-96747155D01*
X124310735Y-96747155D01*
X124305852Y-96739635D01*
X124154647Y-96552913D01*
X124074949Y-96454494D01*
X123815506Y-96195051D01*
X123530366Y-95964149D01*
X123530364Y-95964147D01*
X123222656Y-95764320D01*
X122895739Y-95597746D01*
X122553206Y-95466260D01*
X122553199Y-95466258D01*
X122198794Y-95371295D01*
X122198790Y-95371294D01*
X122198789Y-95371294D01*
X121836405Y-95313898D01*
X121470001Y-95294696D01*
X121469999Y-95294696D01*
X121103594Y-95313898D01*
X120741211Y-95371294D01*
X120741209Y-95371294D01*
X120386793Y-95466260D01*
X120044260Y-95597746D01*
X119717343Y-95764320D01*
X119409635Y-95964147D01*
X119124498Y-96195047D01*
X119124490Y-96195054D01*
X118865054Y-96454490D01*
X118865047Y-96454498D01*
X118634147Y-96739635D01*
X118434320Y-97047343D01*
X118267746Y-97374260D01*
X118136260Y-97716793D01*
X118041294Y-98071209D01*
X118041294Y-98071211D01*
X117983898Y-98433594D01*
X117964696Y-98799999D01*
X116120500Y-98799999D01*
X116120500Y-60799993D01*
X118744700Y-60799993D01*
X118744700Y-60800006D01*
X118763864Y-61031297D01*
X118763866Y-61031308D01*
X118820842Y-61256300D01*
X118914075Y-61468848D01*
X119041018Y-61663150D01*
X119136167Y-61766510D01*
X119167089Y-61829164D01*
X119159228Y-61898590D01*
X119115081Y-61952746D01*
X119088271Y-61966674D01*
X119007911Y-61996646D01*
X119007906Y-61996649D01*
X118892812Y-62082809D01*
X118892809Y-62082812D01*
X118806649Y-62197906D01*
X118806645Y-62197913D01*
X118756403Y-62332620D01*
X118756401Y-62332627D01*
X118750000Y-62392155D01*
X118750000Y-63090000D01*
X119774722Y-63090000D01*
X119730667Y-63166306D01*
X119700000Y-63280756D01*
X119700000Y-63399244D01*
X119730667Y-63513694D01*
X119774722Y-63590000D01*
X118750000Y-63590000D01*
X118750000Y-64287844D01*
X118756401Y-64347372D01*
X118756403Y-64347379D01*
X118806645Y-64482086D01*
X118806649Y-64482093D01*
X118892809Y-64597187D01*
X118892812Y-64597190D01*
X119007906Y-64683350D01*
X119007913Y-64683354D01*
X119142620Y-64733596D01*
X119142627Y-64733598D01*
X119202155Y-64739999D01*
X119202172Y-64740000D01*
X119900000Y-64740000D01*
X119900000Y-63715277D01*
X119976306Y-63759333D01*
X120090756Y-63790000D01*
X120209244Y-63790000D01*
X120323694Y-63759333D01*
X120400000Y-63715277D01*
X120400000Y-64740000D01*
X121097828Y-64740000D01*
X121097844Y-64739999D01*
X121157372Y-64733598D01*
X121157379Y-64733596D01*
X121292086Y-64683354D01*
X121292093Y-64683350D01*
X121407187Y-64597190D01*
X121407190Y-64597187D01*
X121493350Y-64482093D01*
X121493354Y-64482086D01*
X121543596Y-64347379D01*
X121543598Y-64347372D01*
X121549999Y-64287844D01*
X121550000Y-64287827D01*
X121550000Y-63590000D01*
X120525278Y-63590000D01*
X120569333Y-63513694D01*
X120600000Y-63399244D01*
X120600000Y-63280756D01*
X120569333Y-63166306D01*
X120525278Y-63090000D01*
X121550000Y-63090000D01*
X121550000Y-62392172D01*
X121549999Y-62392155D01*
X121543598Y-62332627D01*
X121543596Y-62332620D01*
X121493354Y-62197913D01*
X121493350Y-62197906D01*
X121407190Y-62082812D01*
X121407187Y-62082809D01*
X121292093Y-61996649D01*
X121292086Y-61996645D01*
X121211729Y-61966674D01*
X121155795Y-61924803D01*
X121131378Y-61859338D01*
X121146230Y-61791065D01*
X121163826Y-61766516D01*
X121258979Y-61663153D01*
X121385924Y-61468849D01*
X121385926Y-61468843D01*
X121387747Y-61465481D01*
X121436967Y-61415891D01*
X121496801Y-61400500D01*
X122977695Y-61400500D01*
X123044734Y-61420185D01*
X123065376Y-61436819D01*
X127091376Y-65462819D01*
X127124861Y-65524142D01*
X127119877Y-65593834D01*
X127078005Y-65649767D01*
X127012541Y-65674184D01*
X127003695Y-65674500D01*
X126232129Y-65674500D01*
X126232123Y-65674501D01*
X126172516Y-65680908D01*
X126037671Y-65731202D01*
X126037664Y-65731206D01*
X125922455Y-65817452D01*
X125922452Y-65817455D01*
X125836206Y-65932664D01*
X125836202Y-65932671D01*
X125785908Y-66067517D01*
X125779501Y-66127116D01*
X125779500Y-66127135D01*
X125779500Y-67822870D01*
X125779501Y-67822876D01*
X125785908Y-67882483D01*
X125836202Y-68017328D01*
X125836206Y-68017335D01*
X125922452Y-68132544D01*
X125922455Y-68132547D01*
X126037664Y-68218793D01*
X126037671Y-68218797D01*
X126082618Y-68235561D01*
X126172517Y-68269091D01*
X126207596Y-68272862D01*
X126272144Y-68299599D01*
X126311993Y-68356991D01*
X126314488Y-68426816D01*
X126278836Y-68486905D01*
X126265464Y-68497725D01*
X126240858Y-68514954D01*
X126079954Y-68675858D01*
X125984892Y-68811623D01*
X125930315Y-68855248D01*
X125883317Y-68864500D01*
X121685808Y-68864500D01*
X121618769Y-68844815D01*
X121598127Y-68828181D01*
X121538493Y-68768547D01*
X121505008Y-68707224D01*
X121505969Y-68650425D01*
X121536131Y-68531317D01*
X121536133Y-68531308D01*
X121536134Y-68531305D01*
X121537489Y-68514953D01*
X121555300Y-68300006D01*
X121555300Y-68299993D01*
X121536135Y-68068702D01*
X121536133Y-68068691D01*
X121479157Y-67843699D01*
X121385924Y-67631151D01*
X121258983Y-67436852D01*
X121258980Y-67436849D01*
X121258979Y-67436847D01*
X121101784Y-67266087D01*
X121101779Y-67266083D01*
X121101777Y-67266081D01*
X120918634Y-67123535D01*
X120918628Y-67123531D01*
X120714504Y-67013064D01*
X120714495Y-67013061D01*
X120494984Y-66937702D01*
X120323282Y-66909050D01*
X120266049Y-66899500D01*
X120033951Y-66899500D01*
X119988164Y-66907140D01*
X119805015Y-66937702D01*
X119585504Y-67013061D01*
X119585495Y-67013064D01*
X119381371Y-67123531D01*
X119381365Y-67123535D01*
X119198222Y-67266081D01*
X119198219Y-67266084D01*
X119198216Y-67266086D01*
X119198216Y-67266087D01*
X119153821Y-67314313D01*
X119041016Y-67436852D01*
X118914075Y-67631151D01*
X118820842Y-67843699D01*
X118763866Y-68068691D01*
X118763864Y-68068702D01*
X118744700Y-68299993D01*
X118744700Y-68300006D01*
X118763864Y-68531297D01*
X118763866Y-68531308D01*
X118820842Y-68756300D01*
X118914075Y-68968848D01*
X119041018Y-69163150D01*
X119136167Y-69266510D01*
X119167089Y-69329164D01*
X119159228Y-69398590D01*
X119115081Y-69452746D01*
X119088271Y-69466674D01*
X119007911Y-69496646D01*
X119007906Y-69496649D01*
X118892812Y-69582809D01*
X118892809Y-69582812D01*
X118806649Y-69697906D01*
X118806645Y-69697913D01*
X118756403Y-69832620D01*
X118756401Y-69832627D01*
X118750000Y-69892155D01*
X118750000Y-70590000D01*
X119774722Y-70590000D01*
X119730667Y-70666306D01*
X119700000Y-70780756D01*
X119700000Y-70899244D01*
X119730667Y-71013694D01*
X119774722Y-71090000D01*
X118750000Y-71090000D01*
X118750000Y-71787844D01*
X118756401Y-71847372D01*
X118756403Y-71847379D01*
X118806645Y-71982086D01*
X118806649Y-71982093D01*
X118892809Y-72097187D01*
X118892812Y-72097190D01*
X119007906Y-72183350D01*
X119007913Y-72183354D01*
X119142620Y-72233596D01*
X119142627Y-72233598D01*
X119202155Y-72239999D01*
X119202172Y-72240000D01*
X119900000Y-72240000D01*
X119900000Y-71215277D01*
X119976306Y-71259333D01*
X120090756Y-71290000D01*
X120209244Y-71290000D01*
X120323694Y-71259333D01*
X120400000Y-71215277D01*
X120400000Y-72240000D01*
X121097828Y-72240000D01*
X121097844Y-72239999D01*
X121157372Y-72233598D01*
X121157379Y-72233596D01*
X121292086Y-72183354D01*
X121292093Y-72183350D01*
X121407187Y-72097190D01*
X121407190Y-72097187D01*
X121493350Y-71982093D01*
X121493354Y-71982086D01*
X121543596Y-71847379D01*
X121543598Y-71847372D01*
X121549999Y-71787844D01*
X121550000Y-71787827D01*
X121550000Y-71090000D01*
X120525278Y-71090000D01*
X120569333Y-71013694D01*
X120600000Y-70899244D01*
X120600000Y-70780756D01*
X120569333Y-70666306D01*
X120525278Y-70590000D01*
X121550000Y-70590000D01*
X121550000Y-70289500D01*
X121569685Y-70222461D01*
X121622489Y-70176706D01*
X121674000Y-70165500D01*
X125883317Y-70165500D01*
X125950356Y-70185185D01*
X125984892Y-70218377D01*
X126079954Y-70354141D01*
X126240858Y-70515045D01*
X126262423Y-70530145D01*
X126427266Y-70645568D01*
X126633504Y-70741739D01*
X126853308Y-70800635D01*
X127015230Y-70814801D01*
X127079998Y-70820468D01*
X127080000Y-70820468D01*
X127080002Y-70820468D01*
X127136673Y-70815509D01*
X127306692Y-70800635D01*
X127526496Y-70741739D01*
X127732734Y-70645568D01*
X127919139Y-70515047D01*
X128080047Y-70354139D01*
X128210568Y-70167734D01*
X128306739Y-69961496D01*
X128365635Y-69741692D01*
X128385468Y-69515000D01*
X128383862Y-69496649D01*
X128365635Y-69288313D01*
X128365635Y-69288308D01*
X128306739Y-69068504D01*
X128210568Y-68862266D01*
X128080047Y-68675861D01*
X128080045Y-68675858D01*
X127919143Y-68514956D01*
X127894536Y-68497726D01*
X127850912Y-68443149D01*
X127843719Y-68373650D01*
X127875241Y-68311296D01*
X127935471Y-68275882D01*
X127952404Y-68272861D01*
X127987483Y-68269091D01*
X128122331Y-68218796D01*
X128237546Y-68132546D01*
X128323796Y-68017331D01*
X128323798Y-68017326D01*
X128327557Y-68007249D01*
X128369427Y-67951315D01*
X128434892Y-67926897D01*
X128503165Y-67941748D01*
X128531420Y-67962900D01*
X134924040Y-74355520D01*
X134924042Y-74355521D01*
X134924046Y-74355524D01*
X135034322Y-74419191D01*
X135060972Y-74434577D01*
X135213699Y-74475501D01*
X135213701Y-74475501D01*
X135368863Y-74475501D01*
X135435902Y-74495186D01*
X135481657Y-74547990D01*
X135491601Y-74617148D01*
X135462576Y-74680704D01*
X135407868Y-74717206D01*
X135284579Y-74758061D01*
X135278166Y-74760186D01*
X135278163Y-74760187D01*
X135128842Y-74852289D01*
X135004789Y-74976342D01*
X134912687Y-75125663D01*
X134912685Y-75125668D01*
X134884849Y-75209670D01*
X134857501Y-75292203D01*
X134857501Y-75292204D01*
X134857500Y-75292204D01*
X134847000Y-75394983D01*
X134847000Y-76745001D01*
X134847001Y-76745018D01*
X134857500Y-76847796D01*
X134857501Y-76847799D01*
X134896338Y-76964999D01*
X134912686Y-77014334D01*
X134968858Y-77105404D01*
X134987298Y-77172796D01*
X134966375Y-77239459D01*
X134912733Y-77284229D01*
X134863319Y-77294500D01*
X128654568Y-77294500D01*
X128375505Y-77325942D01*
X128375487Y-77325945D01*
X128101682Y-77388439D01*
X128101670Y-77388443D01*
X127836588Y-77481200D01*
X127583557Y-77603053D01*
X127345753Y-77752476D01*
X127126175Y-77927583D01*
X126927583Y-78126175D01*
X126752476Y-78345753D01*
X126603053Y-78583557D01*
X126481200Y-78836588D01*
X126388443Y-79101670D01*
X126388439Y-79101682D01*
X126325945Y-79375487D01*
X126325942Y-79375505D01*
X126294500Y-79654568D01*
X126294500Y-85587897D01*
X126274815Y-85654936D01*
X126258181Y-85675578D01*
X125020486Y-86913272D01*
X124959163Y-86946757D01*
X124889471Y-86941773D01*
X124833538Y-86899901D01*
X124809121Y-86834437D01*
X124809516Y-86812331D01*
X124809999Y-86807834D01*
X124810000Y-86807827D01*
X124810000Y-85510000D01*
X123529064Y-85510000D01*
X123540793Y-85481684D01*
X123570000Y-85334853D01*
X123570000Y-85185147D01*
X123540793Y-85038316D01*
X123529064Y-85010000D01*
X124810000Y-85010000D01*
X124810000Y-83712172D01*
X124809999Y-83712155D01*
X124803598Y-83652627D01*
X124803596Y-83652620D01*
X124753354Y-83517913D01*
X124753350Y-83517906D01*
X124667190Y-83402812D01*
X124667187Y-83402809D01*
X124552093Y-83316649D01*
X124552086Y-83316645D01*
X124417379Y-83266403D01*
X124417372Y-83266401D01*
X124357844Y-83260000D01*
X123060000Y-83260000D01*
X123060000Y-84540935D01*
X123031684Y-84529207D01*
X122884853Y-84500000D01*
X122735147Y-84500000D01*
X122588316Y-84529207D01*
X122560000Y-84540935D01*
X122560000Y-83260000D01*
X121262155Y-83260000D01*
X121202627Y-83266401D01*
X121202620Y-83266403D01*
X121067913Y-83316645D01*
X121067906Y-83316649D01*
X120952812Y-83402809D01*
X120952809Y-83402812D01*
X120866649Y-83517906D01*
X120866645Y-83517913D01*
X120816403Y-83652620D01*
X120816401Y-83652627D01*
X120810000Y-83712155D01*
X120810000Y-85010000D01*
X122090936Y-85010000D01*
X122079207Y-85038316D01*
X122050000Y-85185147D01*
X122050000Y-85334853D01*
X122079207Y-85481684D01*
X122090936Y-85510000D01*
X120810000Y-85510000D01*
X120810000Y-86807844D01*
X120816401Y-86867372D01*
X120816403Y-86867379D01*
X120866645Y-87002086D01*
X120866649Y-87002093D01*
X120952809Y-87117187D01*
X120952812Y-87117190D01*
X121067906Y-87203350D01*
X121067913Y-87203354D01*
X121202620Y-87253596D01*
X121202627Y-87253598D01*
X121262155Y-87259999D01*
X121262172Y-87260000D01*
X122560000Y-87260000D01*
X122560000Y-85979064D01*
X122588316Y-85990793D01*
X122735147Y-86020000D01*
X122884853Y-86020000D01*
X123031684Y-85990793D01*
X123060000Y-85979064D01*
X123060000Y-87260000D01*
X124357828Y-87260000D01*
X124357834Y-87259999D01*
X124362331Y-87259516D01*
X124431091Y-87271919D01*
X124482230Y-87319527D01*
X124499512Y-87387226D01*
X124477450Y-87453521D01*
X124463272Y-87470486D01*
X124130578Y-87803181D01*
X124069255Y-87836666D01*
X124042897Y-87839500D01*
X122669568Y-87839500D01*
X122390505Y-87870942D01*
X122390487Y-87870945D01*
X122116682Y-87933439D01*
X122116670Y-87933443D01*
X121851588Y-88026200D01*
X121598557Y-88148053D01*
X121360753Y-88297476D01*
X121141175Y-88472583D01*
X120942583Y-88671175D01*
X120767476Y-88890753D01*
X120618053Y-89128557D01*
X120496200Y-89381588D01*
X120403443Y-89646670D01*
X120403439Y-89646682D01*
X120340945Y-89920487D01*
X120340942Y-89920505D01*
X120309500Y-90199568D01*
X120309500Y-90480431D01*
X120340942Y-90759494D01*
X120340945Y-90759512D01*
X120403439Y-91033317D01*
X120403443Y-91033329D01*
X120496200Y-91298411D01*
X120618053Y-91551442D01*
X120618055Y-91551445D01*
X120767477Y-91789248D01*
X120942584Y-92008825D01*
X121141175Y-92207416D01*
X121360752Y-92382523D01*
X121598555Y-92531945D01*
X121851592Y-92653801D01*
X122050680Y-92723465D01*
X122116670Y-92746556D01*
X122116682Y-92746560D01*
X122390491Y-92809055D01*
X122390497Y-92809055D01*
X122390505Y-92809057D01*
X122576547Y-92830018D01*
X122669569Y-92840499D01*
X122669572Y-92840500D01*
X122669575Y-92840500D01*
X125270428Y-92840500D01*
X125270429Y-92840499D01*
X125413055Y-92824429D01*
X125549494Y-92809057D01*
X125549499Y-92809056D01*
X125549509Y-92809055D01*
X125823318Y-92746560D01*
X126088408Y-92653801D01*
X126341445Y-92531945D01*
X126579248Y-92382523D01*
X126798825Y-92207416D01*
X130662416Y-88343825D01*
X130837523Y-88124248D01*
X130986945Y-87886445D01*
X130994411Y-87870942D01*
X131108794Y-87633422D01*
X131108795Y-87633418D01*
X131108801Y-87633407D01*
X131201560Y-87368318D01*
X131264055Y-87094509D01*
X131295500Y-86815425D01*
X131295500Y-86534575D01*
X131295500Y-82419500D01*
X131315185Y-82352461D01*
X131367989Y-82306706D01*
X131419500Y-82295500D01*
X153049440Y-82295500D01*
X153049441Y-82295499D01*
X153192067Y-82279429D01*
X153328506Y-82264057D01*
X153328511Y-82264056D01*
X153328521Y-82264055D01*
X153602330Y-82201560D01*
X153867420Y-82108801D01*
X154120457Y-81986945D01*
X154358260Y-81837523D01*
X154577837Y-81662416D01*
X157493118Y-78747135D01*
X167294500Y-78747135D01*
X167294500Y-80842870D01*
X167294501Y-80842876D01*
X167300908Y-80902483D01*
X167351202Y-81037328D01*
X167351206Y-81037335D01*
X167437452Y-81152544D01*
X167437455Y-81152547D01*
X167552664Y-81238793D01*
X167552671Y-81238797D01*
X167687517Y-81289091D01*
X167687516Y-81289091D01*
X167694444Y-81289835D01*
X167747127Y-81295500D01*
X169842872Y-81295499D01*
X169902483Y-81289091D01*
X170037331Y-81238796D01*
X170152546Y-81152546D01*
X170238796Y-81037331D01*
X170289091Y-80902483D01*
X170295500Y-80842873D01*
X170295499Y-78747128D01*
X170289091Y-78687517D01*
X170250316Y-78583557D01*
X170238797Y-78552671D01*
X170238793Y-78552664D01*
X170152547Y-78437455D01*
X170152544Y-78437452D01*
X170037335Y-78351206D01*
X170037328Y-78351202D01*
X169902482Y-78300908D01*
X169902483Y-78300908D01*
X169842883Y-78294501D01*
X169842881Y-78294500D01*
X169842873Y-78294500D01*
X169842864Y-78294500D01*
X167747129Y-78294500D01*
X167747123Y-78294501D01*
X167687516Y-78300908D01*
X167552671Y-78351202D01*
X167552664Y-78351206D01*
X167437455Y-78437452D01*
X167437452Y-78437455D01*
X167351206Y-78552664D01*
X167351202Y-78552671D01*
X167300908Y-78687517D01*
X167294501Y-78747116D01*
X167294501Y-78747123D01*
X167294500Y-78747135D01*
X157493118Y-78747135D01*
X161044117Y-75196136D01*
X161219224Y-74976559D01*
X161368646Y-74738756D01*
X161382516Y-74709955D01*
X161490502Y-74485719D01*
X161583261Y-74220629D01*
X161645756Y-73946820D01*
X161677201Y-73667736D01*
X161677201Y-71892135D01*
X164389500Y-71892135D01*
X164389500Y-75187870D01*
X164389501Y-75187876D01*
X164395908Y-75247483D01*
X164446202Y-75382328D01*
X164446206Y-75382335D01*
X164532452Y-75497544D01*
X164532455Y-75497547D01*
X164647664Y-75583793D01*
X164647671Y-75583797D01*
X164782517Y-75634091D01*
X164782516Y-75634091D01*
X164789444Y-75634835D01*
X164842127Y-75640500D01*
X168137872Y-75640499D01*
X168197483Y-75634091D01*
X168332331Y-75583796D01*
X168447546Y-75497546D01*
X168533796Y-75382331D01*
X168584091Y-75247483D01*
X168590500Y-75187873D01*
X168590499Y-71892128D01*
X168584091Y-71832517D01*
X168581287Y-71825000D01*
X168533797Y-71697671D01*
X168533793Y-71697664D01*
X168447547Y-71582455D01*
X168447544Y-71582452D01*
X168332335Y-71496206D01*
X168332328Y-71496202D01*
X168197482Y-71445908D01*
X168197483Y-71445908D01*
X168137883Y-71439501D01*
X168137881Y-71439500D01*
X168137873Y-71439500D01*
X168137864Y-71439500D01*
X164842129Y-71439500D01*
X164842123Y-71439501D01*
X164782516Y-71445908D01*
X164647671Y-71496202D01*
X164647664Y-71496206D01*
X164532455Y-71582452D01*
X164532452Y-71582455D01*
X164446206Y-71697664D01*
X164446202Y-71697671D01*
X164395908Y-71832517D01*
X164392482Y-71864387D01*
X164389501Y-71892123D01*
X164389500Y-71892135D01*
X161677201Y-71892135D01*
X161677201Y-71336276D01*
X161662794Y-71208408D01*
X161645758Y-71057206D01*
X161645755Y-71057188D01*
X161583261Y-70783383D01*
X161583257Y-70783371D01*
X161543415Y-70669509D01*
X161490502Y-70518293D01*
X161368646Y-70265256D01*
X161219224Y-70027453D01*
X161044117Y-69807876D01*
X160845526Y-69609285D01*
X160486819Y-69250578D01*
X160453334Y-69189255D01*
X160450500Y-69162897D01*
X160450500Y-68289809D01*
X160470185Y-68222770D01*
X160522989Y-68177015D01*
X160592147Y-68167071D01*
X160651343Y-68194104D01*
X160651969Y-68193298D01*
X160655394Y-68195955D01*
X160655703Y-68196096D01*
X160656335Y-68196684D01*
X160658132Y-68198078D01*
X160658135Y-68198081D01*
X160799602Y-68281744D01*
X160827362Y-68289809D01*
X160957426Y-68327597D01*
X160957429Y-68327597D01*
X160957431Y-68327598D01*
X160994306Y-68330500D01*
X161714192Y-68330500D01*
X161781231Y-68350185D01*
X161801873Y-68366819D01*
X162120325Y-68685272D01*
X162120328Y-68685275D01*
X162120331Y-68685277D01*
X162171549Y-68719499D01*
X162226873Y-68756465D01*
X162345256Y-68805501D01*
X162345260Y-68805501D01*
X162345261Y-68805502D01*
X162470928Y-68830500D01*
X162470931Y-68830500D01*
X167409192Y-68830500D01*
X167476231Y-68850185D01*
X167496873Y-68866819D01*
X167735325Y-69105272D01*
X167735332Y-69105278D01*
X167821949Y-69163153D01*
X167835261Y-69172047D01*
X167841873Y-69176465D01*
X167960256Y-69225501D01*
X167960260Y-69225501D01*
X167960261Y-69225502D01*
X168085928Y-69250500D01*
X168085931Y-69250500D01*
X168214069Y-69250500D01*
X168429192Y-69250500D01*
X168496231Y-69270185D01*
X168516873Y-69286819D01*
X169080325Y-69850272D01*
X169080326Y-69850273D01*
X169080329Y-69850275D01*
X169080331Y-69850277D01*
X169186873Y-69921465D01*
X169305256Y-69970501D01*
X169305260Y-69970501D01*
X169305261Y-69970502D01*
X169430928Y-69995500D01*
X169430931Y-69995500D01*
X171292278Y-69995500D01*
X171359317Y-70015185D01*
X171393853Y-70048377D01*
X171511501Y-70216396D01*
X171511506Y-70216402D01*
X171678597Y-70383493D01*
X171678603Y-70383498D01*
X171864158Y-70513425D01*
X171907783Y-70568002D01*
X171914977Y-70637500D01*
X171883454Y-70699855D01*
X171864158Y-70716575D01*
X171678597Y-70846505D01*
X171511505Y-71013597D01*
X171375965Y-71207169D01*
X171375964Y-71207171D01*
X171276098Y-71421335D01*
X171276094Y-71421344D01*
X171214938Y-71649586D01*
X171214936Y-71649596D01*
X171194341Y-71884999D01*
X171194341Y-71885000D01*
X171214936Y-72120403D01*
X171214938Y-72120413D01*
X171276094Y-72348655D01*
X171276096Y-72348659D01*
X171276097Y-72348663D01*
X171321516Y-72446064D01*
X171375965Y-72562830D01*
X171375967Y-72562834D01*
X171511501Y-72756395D01*
X171511506Y-72756402D01*
X171678597Y-72923493D01*
X171678603Y-72923498D01*
X171864158Y-73053425D01*
X171907783Y-73108002D01*
X171914977Y-73177500D01*
X171883454Y-73239855D01*
X171864158Y-73256575D01*
X171678597Y-73386505D01*
X171511505Y-73553597D01*
X171375965Y-73747169D01*
X171375964Y-73747171D01*
X171276098Y-73961335D01*
X171276094Y-73961344D01*
X171214938Y-74189586D01*
X171214936Y-74189596D01*
X171194341Y-74424999D01*
X171194341Y-74425000D01*
X171214936Y-74660403D01*
X171214938Y-74660413D01*
X171276094Y-74888655D01*
X171276096Y-74888659D01*
X171276097Y-74888663D01*
X171375965Y-75102830D01*
X171375967Y-75102834D01*
X171477252Y-75247483D01*
X171508563Y-75292200D01*
X171511501Y-75296395D01*
X171511506Y-75296402D01*
X171678597Y-75463493D01*
X171678603Y-75463498D01*
X171864158Y-75593425D01*
X171907783Y-75648002D01*
X171914977Y-75717500D01*
X171883454Y-75779855D01*
X171864158Y-75796575D01*
X171678597Y-75926505D01*
X171511505Y-76093597D01*
X171375965Y-76287169D01*
X171375964Y-76287171D01*
X171276098Y-76501335D01*
X171276094Y-76501344D01*
X171214938Y-76729586D01*
X171214936Y-76729596D01*
X171194341Y-76964999D01*
X171194341Y-76965000D01*
X171214936Y-77200403D01*
X171214938Y-77200413D01*
X171276094Y-77428655D01*
X171276096Y-77428659D01*
X171276097Y-77428663D01*
X171357417Y-77603053D01*
X171375965Y-77642830D01*
X171375967Y-77642834D01*
X171511501Y-77836395D01*
X171511506Y-77836402D01*
X171678597Y-78003493D01*
X171678603Y-78003498D01*
X171864594Y-78133730D01*
X171908219Y-78188307D01*
X171915413Y-78257805D01*
X171883890Y-78320160D01*
X171864595Y-78336880D01*
X171678922Y-78466890D01*
X171678920Y-78466891D01*
X171511891Y-78633920D01*
X171511886Y-78633926D01*
X171376400Y-78827420D01*
X171376399Y-78827422D01*
X171276570Y-79041507D01*
X171276567Y-79041513D01*
X171219364Y-79254999D01*
X171219364Y-79255000D01*
X172116988Y-79255000D01*
X172084075Y-79312007D01*
X172050000Y-79439174D01*
X172050000Y-79570826D01*
X172084075Y-79697993D01*
X172116988Y-79755000D01*
X171219364Y-79755000D01*
X171276567Y-79968486D01*
X171276570Y-79968492D01*
X171376399Y-80182578D01*
X171511894Y-80376082D01*
X171678917Y-80543105D01*
X171872421Y-80678600D01*
X172086507Y-80778429D01*
X172086516Y-80778433D01*
X172300000Y-80835634D01*
X172300000Y-79938012D01*
X172357007Y-79970925D01*
X172484174Y-80005000D01*
X172615826Y-80005000D01*
X172742993Y-79970925D01*
X172800000Y-79938012D01*
X172800000Y-80835633D01*
X173013483Y-80778433D01*
X173013492Y-80778429D01*
X173227578Y-80678600D01*
X173421082Y-80543105D01*
X173588105Y-80376082D01*
X173723600Y-80182578D01*
X173823429Y-79968492D01*
X173823432Y-79968486D01*
X173880636Y-79755000D01*
X172983012Y-79755000D01*
X173015925Y-79697993D01*
X173050000Y-79570826D01*
X173050000Y-79439174D01*
X173015925Y-79312007D01*
X172983012Y-79255000D01*
X173880636Y-79255000D01*
X173880635Y-79254999D01*
X173823432Y-79041513D01*
X173823429Y-79041507D01*
X173723600Y-78827422D01*
X173723599Y-78827420D01*
X173588113Y-78633926D01*
X173588108Y-78633920D01*
X173421078Y-78466890D01*
X173235405Y-78336879D01*
X173191780Y-78282302D01*
X173184588Y-78212804D01*
X173216110Y-78150449D01*
X173235406Y-78133730D01*
X173246196Y-78126175D01*
X173421401Y-78003495D01*
X173588495Y-77836401D01*
X173724035Y-77642830D01*
X173823903Y-77428663D01*
X173885063Y-77200408D01*
X173905659Y-76965000D01*
X173885063Y-76729592D01*
X173823903Y-76501337D01*
X173724035Y-76287171D01*
X173713796Y-76272547D01*
X173588494Y-76093597D01*
X173421402Y-75926506D01*
X173421396Y-75926501D01*
X173235842Y-75796575D01*
X173192217Y-75741998D01*
X173185023Y-75672500D01*
X173216546Y-75610145D01*
X173235842Y-75593425D01*
X173258026Y-75577891D01*
X173421401Y-75463495D01*
X173588495Y-75296401D01*
X173724035Y-75102830D01*
X173823903Y-74888663D01*
X173885063Y-74660408D01*
X173905659Y-74425000D01*
X173905144Y-74419119D01*
X173899580Y-74355518D01*
X173885063Y-74189592D01*
X173823903Y-73961337D01*
X173724035Y-73747171D01*
X173720912Y-73742710D01*
X173588494Y-73553597D01*
X173421402Y-73386506D01*
X173421396Y-73386501D01*
X173235842Y-73256575D01*
X173192217Y-73201998D01*
X173185023Y-73132500D01*
X173216546Y-73070145D01*
X173235842Y-73053425D01*
X173258026Y-73037891D01*
X173421401Y-72923495D01*
X173588495Y-72756401D01*
X173724035Y-72562830D01*
X173823903Y-72348663D01*
X173885063Y-72120408D01*
X173905659Y-71885000D01*
X173902270Y-71846270D01*
X173885063Y-71649596D01*
X173885063Y-71649592D01*
X173823903Y-71421337D01*
X173724035Y-71207171D01*
X173641992Y-71090000D01*
X173588494Y-71013597D01*
X173421402Y-70846506D01*
X173421396Y-70846501D01*
X173235842Y-70716575D01*
X173192217Y-70661998D01*
X173185023Y-70592500D01*
X173216546Y-70530145D01*
X173235842Y-70513425D01*
X173283706Y-70479910D01*
X173421401Y-70383495D01*
X173588495Y-70216401D01*
X173724035Y-70022830D01*
X173823903Y-69808663D01*
X173885063Y-69580408D01*
X173905659Y-69345000D01*
X173904273Y-69329164D01*
X173890914Y-69176465D01*
X173885063Y-69109592D01*
X173854483Y-68995464D01*
X173823905Y-68881344D01*
X173823904Y-68881343D01*
X173823903Y-68881337D01*
X173724035Y-68667171D01*
X173717741Y-68658181D01*
X173588494Y-68473597D01*
X173421402Y-68306506D01*
X173421396Y-68306501D01*
X173235842Y-68176575D01*
X173192217Y-68121998D01*
X173185023Y-68052500D01*
X173216546Y-67990145D01*
X173235842Y-67973425D01*
X173318406Y-67915613D01*
X173421401Y-67843495D01*
X173588495Y-67676401D01*
X173724035Y-67482830D01*
X173823903Y-67268663D01*
X173885063Y-67040408D01*
X173905659Y-66805000D01*
X173885063Y-66569592D01*
X173823903Y-66341337D01*
X173724035Y-66127171D01*
X173724005Y-66127127D01*
X173588494Y-65933597D01*
X173421402Y-65766506D01*
X173421396Y-65766501D01*
X173235842Y-65636575D01*
X173192217Y-65581998D01*
X173185023Y-65512500D01*
X173216546Y-65450145D01*
X173235842Y-65433425D01*
X173274145Y-65406605D01*
X173421401Y-65303495D01*
X173588495Y-65136401D01*
X173724035Y-64942830D01*
X173823903Y-64728663D01*
X173885063Y-64500408D01*
X173905659Y-64265000D01*
X173885063Y-64029592D01*
X173865614Y-63957007D01*
X173867277Y-63887162D01*
X173897704Y-63837240D01*
X174255276Y-63479670D01*
X174290870Y-63426398D01*
X174326464Y-63373129D01*
X174326465Y-63373127D01*
X174375501Y-63254744D01*
X174386248Y-63200717D01*
X174400500Y-63129069D01*
X174400500Y-60460931D01*
X174400500Y-60460928D01*
X174375502Y-60335261D01*
X174375501Y-60335260D01*
X174375501Y-60335256D01*
X174331680Y-60229463D01*
X174326466Y-60216874D01*
X174255277Y-60110331D01*
X174255275Y-60110329D01*
X174255273Y-60110326D01*
X173389673Y-59244726D01*
X173355188Y-59221684D01*
X173283127Y-59173535D01*
X173203197Y-59140427D01*
X173164744Y-59124499D01*
X173164738Y-59124497D01*
X173039071Y-59099500D01*
X173039069Y-59099500D01*
X164540808Y-59099500D01*
X164473769Y-59079815D01*
X164453127Y-59063181D01*
X163696357Y-58306411D01*
X163662872Y-58245088D01*
X163667856Y-58175396D01*
X163709728Y-58119463D01*
X163764638Y-58096257D01*
X163875627Y-58078678D01*
X163916238Y-58072247D01*
X163916238Y-58072246D01*
X163916243Y-58072246D01*
X164118412Y-58006557D01*
X164307816Y-57910051D01*
X164329789Y-57894086D01*
X164479786Y-57785109D01*
X164479788Y-57785106D01*
X164479792Y-57785104D01*
X164630104Y-57634792D01*
X164749991Y-57469779D01*
X164805320Y-57427115D01*
X164874933Y-57421136D01*
X164936729Y-57453741D01*
X164950627Y-57469781D01*
X165070272Y-57634459D01*
X165070276Y-57634464D01*
X165220535Y-57784723D01*
X165220540Y-57784727D01*
X165392442Y-57909620D01*
X165581782Y-58006095D01*
X165783871Y-58071757D01*
X165850000Y-58082231D01*
X165850000Y-57034145D01*
X165916657Y-57072630D01*
X166037465Y-57105000D01*
X166162535Y-57105000D01*
X166283343Y-57072630D01*
X166350000Y-57034145D01*
X166350000Y-58082230D01*
X166416126Y-58071757D01*
X166416129Y-58071757D01*
X166618217Y-58006095D01*
X166807557Y-57909620D01*
X166979459Y-57784727D01*
X166979464Y-57784723D01*
X167129723Y-57634464D01*
X167129727Y-57634459D01*
X167254620Y-57462557D01*
X167351095Y-57273217D01*
X167416757Y-57071130D01*
X167416757Y-57071127D01*
X167447030Y-56880000D01*
X166504146Y-56880000D01*
X166542630Y-56813343D01*
X166575000Y-56692535D01*
X166575000Y-56567465D01*
X166542630Y-56446657D01*
X166504146Y-56380000D01*
X167447030Y-56380000D01*
X167416757Y-56188872D01*
X167416757Y-56188869D01*
X167351095Y-55986782D01*
X167254620Y-55797442D01*
X167129727Y-55625540D01*
X167129723Y-55625535D01*
X166979464Y-55475276D01*
X166979459Y-55475272D01*
X166807557Y-55350379D01*
X166618215Y-55253903D01*
X166416124Y-55188241D01*
X166350000Y-55177768D01*
X166350000Y-56225854D01*
X166283343Y-56187370D01*
X166162535Y-56155000D01*
X166037465Y-56155000D01*
X165916657Y-56187370D01*
X165850000Y-56225854D01*
X165850000Y-55177768D01*
X165849999Y-55177768D01*
X165783875Y-55188241D01*
X165581784Y-55253903D01*
X165392442Y-55350379D01*
X165220540Y-55475272D01*
X165220535Y-55475276D01*
X165070276Y-55625535D01*
X165070272Y-55625540D01*
X164950627Y-55790218D01*
X164895297Y-55832884D01*
X164825684Y-55838863D01*
X164763889Y-55806257D01*
X164749991Y-55790218D01*
X164630109Y-55625214D01*
X164630104Y-55625208D01*
X164479786Y-55474890D01*
X164307820Y-55349951D01*
X164118414Y-55253444D01*
X164118413Y-55253443D01*
X164118412Y-55253443D01*
X163916243Y-55187754D01*
X163916241Y-55187753D01*
X163916240Y-55187753D01*
X163754957Y-55162208D01*
X163706287Y-55154500D01*
X163493713Y-55154500D01*
X163445042Y-55162208D01*
X163283760Y-55187753D01*
X163081585Y-55253444D01*
X162892179Y-55349951D01*
X162720215Y-55474889D01*
X162581398Y-55613706D01*
X162520075Y-55647190D01*
X162450383Y-55642206D01*
X162394450Y-55600334D01*
X162388178Y-55591120D01*
X162292712Y-55436344D01*
X162168657Y-55312289D01*
X162168656Y-55312288D01*
X162036466Y-55230753D01*
X162019336Y-55220187D01*
X162019331Y-55220185D01*
X161954765Y-55198790D01*
X161852797Y-55165001D01*
X161852795Y-55165000D01*
X161750010Y-55154500D01*
X160449998Y-55154500D01*
X160449981Y-55154501D01*
X160347203Y-55165000D01*
X160347200Y-55165001D01*
X160180668Y-55220185D01*
X160180663Y-55220187D01*
X160031342Y-55312289D01*
X159907289Y-55436342D01*
X159815187Y-55585663D01*
X159815185Y-55585668D01*
X159810325Y-55600334D01*
X159760001Y-55752203D01*
X159760001Y-55752204D01*
X159760000Y-55752204D01*
X159749500Y-55854983D01*
X159749500Y-57405001D01*
X159749501Y-57405018D01*
X159760000Y-57507796D01*
X159760001Y-57507799D01*
X159801973Y-57634459D01*
X159815186Y-57674334D01*
X159891039Y-57797312D01*
X159909500Y-57862408D01*
X159909500Y-60833897D01*
X159889815Y-60900936D01*
X159837011Y-60946691D01*
X159767853Y-60956635D01*
X159704297Y-60927610D01*
X159697819Y-60921578D01*
X157628824Y-58852583D01*
X157500189Y-58750000D01*
X157409248Y-58677477D01*
X157171445Y-58528055D01*
X157171442Y-58528053D01*
X156918411Y-58406200D01*
X156653329Y-58313443D01*
X156653317Y-58313439D01*
X156379512Y-58250945D01*
X156379494Y-58250942D01*
X156100431Y-58219500D01*
X156100425Y-58219500D01*
X155819575Y-58219500D01*
X155819568Y-58219500D01*
X155540505Y-58250942D01*
X155540487Y-58250945D01*
X155266682Y-58313439D01*
X155266670Y-58313443D01*
X155001588Y-58406200D01*
X154748557Y-58528053D01*
X154510753Y-58677476D01*
X154291175Y-58852583D01*
X154092583Y-59051175D01*
X153917476Y-59270753D01*
X153768053Y-59508557D01*
X153646200Y-59761588D01*
X153553443Y-60026670D01*
X153553439Y-60026682D01*
X153490945Y-60300487D01*
X153490942Y-60300505D01*
X153459500Y-60579568D01*
X153459500Y-60860431D01*
X153490942Y-61139494D01*
X153490945Y-61139512D01*
X153553439Y-61413317D01*
X153553443Y-61413329D01*
X153646200Y-61678411D01*
X153768053Y-61931442D01*
X153768055Y-61931445D01*
X153917477Y-62169248D01*
X153940337Y-62197913D01*
X154092583Y-62388824D01*
X155413181Y-63709422D01*
X155446666Y-63770745D01*
X155449500Y-63797103D01*
X155449500Y-65333488D01*
X155429815Y-65400527D01*
X155377011Y-65446282D01*
X155307853Y-65456226D01*
X155244297Y-65427201D01*
X155241159Y-65424387D01*
X155104479Y-65297567D01*
X154887704Y-65149772D01*
X154887700Y-65149770D01*
X154887697Y-65149768D01*
X154887696Y-65149767D01*
X154651325Y-65035938D01*
X154651327Y-65035938D01*
X154400623Y-64958606D01*
X154400619Y-64958605D01*
X154400615Y-64958604D01*
X154275823Y-64939794D01*
X154141187Y-64919500D01*
X154141182Y-64919500D01*
X153878818Y-64919500D01*
X153878812Y-64919500D01*
X153724010Y-64942834D01*
X153619385Y-64958604D01*
X153619382Y-64958605D01*
X153619376Y-64958606D01*
X153368673Y-65035938D01*
X153132303Y-65149767D01*
X153132302Y-65149768D01*
X152915520Y-65297567D01*
X152794451Y-65409903D01*
X152731918Y-65441071D01*
X152662462Y-65433484D01*
X152608133Y-65389550D01*
X152586182Y-65323219D01*
X152586110Y-65319004D01*
X152586110Y-57065197D01*
X152605795Y-56998158D01*
X152622425Y-56977520D01*
X153260211Y-56339733D01*
X153321532Y-56306250D01*
X153384439Y-56308924D01*
X153619385Y-56381396D01*
X153878818Y-56420500D01*
X154141182Y-56420500D01*
X154400615Y-56381396D01*
X154651323Y-56304063D01*
X154887704Y-56190228D01*
X155104479Y-56042433D01*
X155277983Y-55881445D01*
X155296801Y-55863985D01*
X155296801Y-55863983D01*
X155296805Y-55863981D01*
X155460386Y-55658857D01*
X155591568Y-55431643D01*
X155687420Y-55187416D01*
X155745802Y-54931630D01*
X155754723Y-54812584D01*
X155765408Y-54670004D01*
X155765408Y-54669995D01*
X155745803Y-54408379D01*
X155745802Y-54408374D01*
X155745802Y-54408370D01*
X155687420Y-54152584D01*
X155591568Y-53908357D01*
X155460386Y-53681143D01*
X155296805Y-53476019D01*
X155296804Y-53476018D01*
X155296801Y-53476014D01*
X155104479Y-53297567D01*
X155057969Y-53265857D01*
X154887704Y-53149772D01*
X154887700Y-53149770D01*
X154887697Y-53149768D01*
X154887696Y-53149767D01*
X154651325Y-53035938D01*
X154651327Y-53035938D01*
X154400623Y-52958606D01*
X154400619Y-52958605D01*
X154400615Y-52958604D01*
X154275823Y-52939794D01*
X154141187Y-52919500D01*
X154141182Y-52919500D01*
X153878818Y-52919500D01*
X153878812Y-52919500D01*
X153717247Y-52943853D01*
X153619385Y-52958604D01*
X153619382Y-52958605D01*
X153619376Y-52958606D01*
X153368673Y-53035938D01*
X153132303Y-53149767D01*
X153132302Y-53149768D01*
X152915520Y-53297567D01*
X152723198Y-53476014D01*
X152559614Y-53681143D01*
X152428432Y-53908356D01*
X152332582Y-54152578D01*
X152332576Y-54152597D01*
X152274197Y-54408374D01*
X152274196Y-54408379D01*
X152254592Y-54669995D01*
X152254592Y-54670004D01*
X152274196Y-54931620D01*
X152274197Y-54931625D01*
X152332579Y-55187414D01*
X152370579Y-55284239D01*
X152376747Y-55353836D01*
X152344308Y-55415719D01*
X152342831Y-55417221D01*
X151430335Y-56329718D01*
X151430334Y-56329719D01*
X151424250Y-56338825D01*
X151386116Y-56395898D01*
X151372630Y-56416080D01*
X151359145Y-56436262D01*
X151359143Y-56436265D01*
X151310109Y-56554645D01*
X151310107Y-56554651D01*
X151285110Y-56680318D01*
X151285110Y-71749681D01*
X151306753Y-71858482D01*
X151306753Y-71858484D01*
X151310107Y-71875345D01*
X151310110Y-71875357D01*
X151359142Y-71993733D01*
X151430336Y-72100283D01*
X151853560Y-72523507D01*
X151887045Y-72584830D01*
X151882061Y-72654522D01*
X151875978Y-72668234D01*
X151858895Y-72701203D01*
X151762667Y-72971962D01*
X151762666Y-72971965D01*
X151704201Y-73253319D01*
X151684592Y-73540000D01*
X151704201Y-73826680D01*
X151762666Y-74108034D01*
X151762667Y-74108037D01*
X151858890Y-74378784D01*
X151858893Y-74378789D01*
X151858896Y-74378797D01*
X151875978Y-74411764D01*
X151889343Y-74480341D01*
X151863509Y-74545260D01*
X151853561Y-74556491D01*
X150421873Y-75988181D01*
X150360550Y-76021666D01*
X150334192Y-76024500D01*
X150184808Y-76024500D01*
X150117769Y-76004815D01*
X150072014Y-75952011D01*
X150062070Y-75882853D01*
X150091095Y-75819297D01*
X150097127Y-75812819D01*
X150755271Y-75154675D01*
X150755276Y-75154670D01*
X150826465Y-75048127D01*
X150875501Y-74929744D01*
X150878124Y-74916558D01*
X150890908Y-74852289D01*
X150900500Y-74804071D01*
X150900500Y-70365928D01*
X150875502Y-70240261D01*
X150875501Y-70240260D01*
X150875501Y-70240256D01*
X150826465Y-70121873D01*
X150826464Y-70121872D01*
X150826460Y-70121864D01*
X150806148Y-70091466D01*
X150806147Y-70091464D01*
X150755277Y-70015331D01*
X150755271Y-70015324D01*
X149749673Y-69009726D01*
X149749669Y-69009723D01*
X149643127Y-68938535D01*
X149524744Y-68889499D01*
X149524738Y-68889497D01*
X149399071Y-68864500D01*
X149399069Y-68864500D01*
X142422137Y-68864500D01*
X142355098Y-68844815D01*
X142309343Y-68792011D01*
X142299399Y-68722853D01*
X142328424Y-68659297D01*
X142378801Y-68624319D01*
X142593161Y-68544367D01*
X142844315Y-68407226D01*
X143073395Y-68235739D01*
X143275739Y-68033395D01*
X143447226Y-67804315D01*
X143584367Y-67553161D01*
X143684369Y-67285046D01*
X143711467Y-67160478D01*
X143745195Y-67005433D01*
X143745195Y-67005432D01*
X143745196Y-67005428D01*
X143765610Y-66720000D01*
X143763634Y-66692378D01*
X143754853Y-66569596D01*
X143745196Y-66434572D01*
X143744305Y-66430478D01*
X143684371Y-66154962D01*
X143684370Y-66154960D01*
X143684369Y-66154954D01*
X143584367Y-65886839D01*
X143561210Y-65844431D01*
X143447229Y-65635690D01*
X143447224Y-65635682D01*
X143275745Y-65406612D01*
X143275729Y-65406594D01*
X143073405Y-65204270D01*
X143073387Y-65204254D01*
X142844317Y-65032775D01*
X142844309Y-65032770D01*
X142593166Y-64895635D01*
X142593167Y-64895635D01*
X142485915Y-64855632D01*
X142325046Y-64795631D01*
X142325043Y-64795630D01*
X142325037Y-64795628D01*
X142045433Y-64734804D01*
X141760001Y-64714390D01*
X141759999Y-64714390D01*
X141474566Y-64734804D01*
X141194962Y-64795628D01*
X140926833Y-64895635D01*
X140675690Y-65032770D01*
X140675682Y-65032775D01*
X140446612Y-65204254D01*
X140446594Y-65204270D01*
X140244270Y-65406594D01*
X140244254Y-65406612D01*
X140072775Y-65635682D01*
X140072770Y-65635690D01*
X139935635Y-65886833D01*
X139835628Y-66154962D01*
X139774804Y-66434566D01*
X139754390Y-66719998D01*
X139754390Y-66720001D01*
X139774804Y-67005433D01*
X139835628Y-67285037D01*
X139835630Y-67285043D01*
X139835631Y-67285046D01*
X139909762Y-67483798D01*
X139935635Y-67553166D01*
X140072770Y-67804309D01*
X140072775Y-67804317D01*
X140244254Y-68033387D01*
X140244270Y-68033405D01*
X140446594Y-68235729D01*
X140446612Y-68235745D01*
X140675682Y-68407224D01*
X140675690Y-68407229D01*
X140926833Y-68544364D01*
X140926832Y-68544364D01*
X140926836Y-68544365D01*
X140926839Y-68544367D01*
X141141198Y-68624319D01*
X141197130Y-68666190D01*
X141221547Y-68731654D01*
X141206695Y-68799927D01*
X141157290Y-68849332D01*
X141097863Y-68864500D01*
X135896683Y-68864500D01*
X135829644Y-68844815D01*
X135795108Y-68811623D01*
X135700045Y-68675858D01*
X135539141Y-68514954D01*
X135352734Y-68384432D01*
X135352728Y-68384429D01*
X135294725Y-68357382D01*
X135242285Y-68311210D01*
X135223133Y-68244017D01*
X135243348Y-68177135D01*
X135294725Y-68132618D01*
X135352734Y-68105568D01*
X135539139Y-67975047D01*
X135700047Y-67814139D01*
X135830568Y-67627734D01*
X135926739Y-67421496D01*
X135985635Y-67201692D01*
X136005468Y-66975000D01*
X136004090Y-66959255D01*
X135991735Y-66818031D01*
X135985635Y-66748308D01*
X135926739Y-66528504D01*
X135830568Y-66322266D01*
X135700047Y-66135861D01*
X135700045Y-66135858D01*
X135539141Y-65974954D01*
X135352734Y-65844432D01*
X135352732Y-65844431D01*
X135146497Y-65748261D01*
X135146488Y-65748258D01*
X134926697Y-65689366D01*
X134926693Y-65689365D01*
X134926692Y-65689365D01*
X134926691Y-65689364D01*
X134926686Y-65689364D01*
X134700002Y-65669532D01*
X134699998Y-65669532D01*
X134473313Y-65689364D01*
X134473302Y-65689366D01*
X134253511Y-65748258D01*
X134253502Y-65748261D01*
X134047267Y-65844431D01*
X134047265Y-65844432D01*
X133860858Y-65974954D01*
X133699954Y-66135858D01*
X133569432Y-66322265D01*
X133569431Y-66322267D01*
X133473261Y-66528502D01*
X133473258Y-66528511D01*
X133414366Y-66748302D01*
X133414364Y-66748313D01*
X133394532Y-66974998D01*
X133394532Y-66975001D01*
X133414364Y-67201686D01*
X133414366Y-67201697D01*
X133473258Y-67421488D01*
X133473261Y-67421497D01*
X133569431Y-67627732D01*
X133569432Y-67627734D01*
X133699954Y-67814141D01*
X133860858Y-67975045D01*
X133882423Y-67990145D01*
X134047266Y-68105568D01*
X134105275Y-68132618D01*
X134157714Y-68178791D01*
X134176866Y-68245984D01*
X134156650Y-68312865D01*
X134105275Y-68357382D01*
X134047267Y-68384431D01*
X134047265Y-68384432D01*
X133860858Y-68514954D01*
X133699954Y-68675858D01*
X133569432Y-68862265D01*
X133569431Y-68862267D01*
X133473261Y-69068502D01*
X133473258Y-69068511D01*
X133414366Y-69288302D01*
X133414364Y-69288313D01*
X133394532Y-69514998D01*
X133394532Y-69515001D01*
X133414364Y-69741686D01*
X133414366Y-69741697D01*
X133473258Y-69961488D01*
X133473261Y-69961497D01*
X133569431Y-70167732D01*
X133569432Y-70167734D01*
X133699954Y-70354141D01*
X133860858Y-70515045D01*
X133882423Y-70530145D01*
X134047266Y-70645568D01*
X134253504Y-70741739D01*
X134473308Y-70800635D01*
X134635230Y-70814801D01*
X134699998Y-70820468D01*
X134700000Y-70820468D01*
X134700002Y-70820468D01*
X134756673Y-70815509D01*
X134926692Y-70800635D01*
X135146496Y-70741739D01*
X135352734Y-70645568D01*
X135539139Y-70515047D01*
X135700047Y-70354139D01*
X135795108Y-70218377D01*
X135849685Y-70174752D01*
X135896683Y-70165500D01*
X149014192Y-70165500D01*
X149081231Y-70185185D01*
X149101873Y-70201819D01*
X149563181Y-70663127D01*
X149596666Y-70724450D01*
X149599500Y-70750808D01*
X149599500Y-71846270D01*
X149579815Y-71913309D01*
X149527011Y-71959064D01*
X149457853Y-71969008D01*
X149394297Y-71939983D01*
X149387819Y-71933951D01*
X149386157Y-71932289D01*
X149386156Y-71932288D01*
X149248496Y-71847379D01*
X149236836Y-71840187D01*
X149236831Y-71840185D01*
X149235362Y-71839698D01*
X149070297Y-71785001D01*
X149070295Y-71785000D01*
X148967510Y-71774500D01*
X147617498Y-71774500D01*
X147617481Y-71774501D01*
X147514703Y-71785000D01*
X147514700Y-71785001D01*
X147348168Y-71840185D01*
X147348163Y-71840187D01*
X147198842Y-71932289D01*
X147074789Y-72056342D01*
X146982687Y-72205663D01*
X146982685Y-72205668D01*
X146980819Y-72211299D01*
X146927501Y-72372203D01*
X146927501Y-72372204D01*
X146927500Y-72372204D01*
X146917000Y-72474983D01*
X146917000Y-73200000D01*
X146917002Y-73200025D01*
X146919636Y-73225814D01*
X146906865Y-73294506D01*
X146883960Y-73326092D01*
X146776874Y-73433180D01*
X146715551Y-73466666D01*
X146689192Y-73469500D01*
X144745927Y-73469500D01*
X144678888Y-73449815D01*
X144633133Y-73397011D01*
X144623189Y-73327853D01*
X144631366Y-73298048D01*
X144693109Y-73148983D01*
X144693112Y-73148974D01*
X144702853Y-73100000D01*
X143848366Y-73100000D01*
X143824174Y-73097617D01*
X143808504Y-73094500D01*
X143808503Y-73094500D01*
X143768330Y-73094500D01*
X143782575Y-73080255D01*
X143831944Y-72994745D01*
X143857500Y-72899370D01*
X143857500Y-72800630D01*
X143831944Y-72705255D01*
X143782575Y-72619745D01*
X143762830Y-72600000D01*
X144702853Y-72600000D01*
X144693112Y-72551025D01*
X144693109Y-72551016D01*
X144615847Y-72364486D01*
X144615840Y-72364473D01*
X144503670Y-72196600D01*
X144503667Y-72196596D01*
X144360903Y-72053832D01*
X144360899Y-72053829D01*
X144193026Y-71941659D01*
X144193013Y-71941652D01*
X144006483Y-71864390D01*
X144006474Y-71864387D01*
X143808458Y-71825000D01*
X143732500Y-71825000D01*
X143732500Y-72569670D01*
X143712755Y-72549925D01*
X143627245Y-72500556D01*
X143531870Y-72475000D01*
X143433130Y-72475000D01*
X143337755Y-72500556D01*
X143252245Y-72549925D01*
X143232500Y-72569670D01*
X143232500Y-71825000D01*
X143156541Y-71825000D01*
X142958525Y-71864387D01*
X142958516Y-71864390D01*
X142771986Y-71941652D01*
X142771973Y-71941659D01*
X142604100Y-72053829D01*
X142604096Y-72053832D01*
X142461332Y-72196596D01*
X142461329Y-72196600D01*
X142349159Y-72364473D01*
X142349152Y-72364486D01*
X142271890Y-72551016D01*
X142271887Y-72551025D01*
X142262147Y-72600000D01*
X143202170Y-72600000D01*
X143182425Y-72619745D01*
X143133056Y-72705255D01*
X143107500Y-72800630D01*
X143107500Y-72899370D01*
X143133056Y-72994745D01*
X143182425Y-73080255D01*
X143196670Y-73094500D01*
X143156497Y-73094500D01*
X143156496Y-73094500D01*
X143140826Y-73097617D01*
X143116634Y-73100000D01*
X142262147Y-73100000D01*
X142271887Y-73148974D01*
X142271890Y-73148983D01*
X142349152Y-73335513D01*
X142349159Y-73335526D01*
X142402703Y-73415659D01*
X142423581Y-73482336D01*
X142405097Y-73549716D01*
X142402704Y-73553439D01*
X142348714Y-73634243D01*
X142271409Y-73820872D01*
X142271407Y-73820880D01*
X142232000Y-74018992D01*
X142232000Y-74221007D01*
X142271407Y-74419119D01*
X142271409Y-74419127D01*
X142304825Y-74499800D01*
X142312294Y-74569270D01*
X142292538Y-74614660D01*
X142292954Y-74614887D01*
X142290419Y-74619528D01*
X142289537Y-74621556D01*
X142288706Y-74622665D01*
X142288702Y-74622672D01*
X142238408Y-74757517D01*
X142232001Y-74817116D01*
X142232000Y-74817135D01*
X142232000Y-75962870D01*
X142232001Y-75962876D01*
X142238408Y-76022483D01*
X142288702Y-76157328D01*
X142288706Y-76157335D01*
X142374952Y-76272544D01*
X142374955Y-76272547D01*
X142490164Y-76358793D01*
X142490171Y-76358797D01*
X142625017Y-76409091D01*
X142625016Y-76409091D01*
X142631944Y-76409835D01*
X142684627Y-76415500D01*
X143536691Y-76415499D01*
X143603730Y-76435183D01*
X143624372Y-76451818D01*
X144255372Y-77082819D01*
X144288857Y-77144142D01*
X144283873Y-77213834D01*
X144242001Y-77269767D01*
X144176537Y-77294184D01*
X144167691Y-77294500D01*
X139881681Y-77294500D01*
X139814642Y-77274815D01*
X139768887Y-77222011D01*
X139758943Y-77152853D01*
X139776141Y-77105405D01*
X139832314Y-77014334D01*
X139887499Y-76847797D01*
X139898000Y-76745009D01*
X139897999Y-75394992D01*
X139894991Y-75365550D01*
X139887499Y-75292203D01*
X139887498Y-75292200D01*
X139872680Y-75247482D01*
X139832314Y-75125666D01*
X139740212Y-74976344D01*
X139616156Y-74852288D01*
X139483556Y-74770500D01*
X139466836Y-74760187D01*
X139466831Y-74760185D01*
X139460421Y-74758061D01*
X139300297Y-74705001D01*
X139300295Y-74705000D01*
X139197510Y-74694500D01*
X138472498Y-74694500D01*
X138472480Y-74694501D01*
X138382531Y-74703690D01*
X138313838Y-74690920D01*
X138282249Y-74668013D01*
X137127590Y-73513355D01*
X137127588Y-73513352D01*
X137008717Y-73394481D01*
X137008716Y-73394480D01*
X137000238Y-73389585D01*
X136964998Y-73369239D01*
X136916783Y-73318671D01*
X136902999Y-73261852D01*
X136902999Y-72024998D01*
X136902998Y-72024983D01*
X137702000Y-72024983D01*
X137702000Y-73375001D01*
X137702001Y-73375018D01*
X137712500Y-73477796D01*
X137712501Y-73477799D01*
X137767685Y-73644331D01*
X137767687Y-73644336D01*
X137782124Y-73667742D01*
X137859788Y-73793656D01*
X137983844Y-73917712D01*
X138133166Y-74009814D01*
X138299703Y-74064999D01*
X138402491Y-74075500D01*
X139127508Y-74075499D01*
X139127516Y-74075498D01*
X139127519Y-74075498D01*
X139183802Y-74069748D01*
X139230297Y-74064999D01*
X139396834Y-74009814D01*
X139546156Y-73917712D01*
X139670212Y-73793656D01*
X139762314Y-73644334D01*
X139817499Y-73477797D01*
X139828000Y-73375009D01*
X139827999Y-72024992D01*
X139817499Y-71922203D01*
X139762314Y-71755666D01*
X139670212Y-71606344D01*
X139546156Y-71482288D01*
X139453388Y-71425069D01*
X139396836Y-71390187D01*
X139396831Y-71390185D01*
X139395362Y-71389698D01*
X139230297Y-71335001D01*
X139230295Y-71335000D01*
X139127510Y-71324500D01*
X138402498Y-71324500D01*
X138402480Y-71324501D01*
X138299703Y-71335000D01*
X138299700Y-71335001D01*
X138133168Y-71390185D01*
X138133163Y-71390187D01*
X137983842Y-71482289D01*
X137859789Y-71606342D01*
X137767687Y-71755663D01*
X137767685Y-71755668D01*
X137757965Y-71785001D01*
X137712501Y-71922203D01*
X137712501Y-71922204D01*
X137712500Y-71922204D01*
X137702000Y-72024983D01*
X136902998Y-72024983D01*
X136902998Y-72024981D01*
X136892499Y-71922203D01*
X136892498Y-71922200D01*
X136876972Y-71875345D01*
X136837314Y-71755666D01*
X136745212Y-71606344D01*
X136621156Y-71482288D01*
X136528388Y-71425069D01*
X136471836Y-71390187D01*
X136471831Y-71390185D01*
X136470362Y-71389698D01*
X136305297Y-71335001D01*
X136305295Y-71335000D01*
X136202510Y-71324500D01*
X135477498Y-71324500D01*
X135477480Y-71324501D01*
X135374703Y-71335000D01*
X135374700Y-71335001D01*
X135208168Y-71390185D01*
X135208163Y-71390187D01*
X135058842Y-71482289D01*
X134934789Y-71606342D01*
X134842687Y-71755663D01*
X134842685Y-71755668D01*
X134832965Y-71785001D01*
X134787501Y-71922203D01*
X134787501Y-71922204D01*
X134787500Y-71922204D01*
X134777000Y-72024983D01*
X134777000Y-72210646D01*
X134757315Y-72277685D01*
X134704511Y-72323440D01*
X134635353Y-72333384D01*
X134571797Y-72304359D01*
X134565319Y-72298327D01*
X128906819Y-66639827D01*
X128873334Y-66578504D01*
X128870500Y-66552146D01*
X128870500Y-65713152D01*
X128870499Y-65713146D01*
X128862565Y-65683535D01*
X128829577Y-65560423D01*
X128780846Y-65476019D01*
X128750520Y-65423492D01*
X128638716Y-65311688D01*
X128638715Y-65311687D01*
X128634385Y-65307357D01*
X128634374Y-65307347D01*
X123765382Y-60438355D01*
X123765380Y-60438352D01*
X123646509Y-60319481D01*
X123646501Y-60319475D01*
X123544352Y-60260500D01*
X123509580Y-60240424D01*
X123509579Y-60240423D01*
X123448485Y-60224053D01*
X123356849Y-60199499D01*
X123198735Y-60199499D01*
X123191139Y-60199499D01*
X123191123Y-60199500D01*
X121496801Y-60199500D01*
X121429762Y-60179815D01*
X121387747Y-60134519D01*
X121385924Y-60131151D01*
X121258983Y-59936852D01*
X121258980Y-59936849D01*
X121258979Y-59936847D01*
X121101784Y-59766087D01*
X121101779Y-59766083D01*
X121101777Y-59766081D01*
X120918634Y-59623535D01*
X120918628Y-59623531D01*
X120714504Y-59513064D01*
X120714495Y-59513061D01*
X120494984Y-59437702D01*
X120323282Y-59409050D01*
X120266049Y-59399500D01*
X120033951Y-59399500D01*
X119988164Y-59407140D01*
X119805015Y-59437702D01*
X119585504Y-59513061D01*
X119585495Y-59513064D01*
X119381371Y-59623531D01*
X119381365Y-59623535D01*
X119198222Y-59766081D01*
X119198219Y-59766084D01*
X119041016Y-59936852D01*
X118914075Y-60131151D01*
X118820842Y-60343699D01*
X118763866Y-60568691D01*
X118763864Y-60568702D01*
X118744700Y-60799993D01*
X116120500Y-60799993D01*
X116120500Y-55428608D01*
X116140185Y-55361569D01*
X116192989Y-55315814D01*
X116262147Y-55305870D01*
X116325703Y-55334895D01*
X116363477Y-55393673D01*
X116364257Y-55396450D01*
X116406258Y-55553199D01*
X116406260Y-55553206D01*
X116537746Y-55895739D01*
X116704320Y-56222656D01*
X116904147Y-56530364D01*
X116934191Y-56567465D01*
X117135051Y-56815506D01*
X117394494Y-57074949D01*
X117406838Y-57084945D01*
X117679635Y-57305852D01*
X117932065Y-57469781D01*
X117987348Y-57505682D01*
X118314264Y-57672255D01*
X118561353Y-57767103D01*
X118640047Y-57797311D01*
X118656801Y-57803742D01*
X119011206Y-57898705D01*
X119373596Y-57956102D01*
X119719734Y-57974241D01*
X119739999Y-57975304D01*
X119740000Y-57975304D01*
X119740001Y-57975304D01*
X119759203Y-57974297D01*
X120106404Y-57956102D01*
X120468794Y-57898705D01*
X120823199Y-57803742D01*
X121165736Y-57672255D01*
X121492652Y-57505682D01*
X121800366Y-57305851D01*
X122085506Y-57074949D01*
X122344949Y-56815506D01*
X122568399Y-56539568D01*
X126799500Y-56539568D01*
X126799500Y-59140431D01*
X126830942Y-59419494D01*
X126830945Y-59419512D01*
X126893439Y-59693317D01*
X126893443Y-59693329D01*
X126986200Y-59958411D01*
X127108053Y-60211442D01*
X127111469Y-60216879D01*
X127257477Y-60449248D01*
X127376750Y-60598811D01*
X127403750Y-60632669D01*
X127432584Y-60668825D01*
X127631175Y-60867416D01*
X127850752Y-61042523D01*
X128088555Y-61191945D01*
X128341592Y-61313801D01*
X128540680Y-61383465D01*
X128606670Y-61406556D01*
X128606682Y-61406560D01*
X128880491Y-61469055D01*
X128880497Y-61469055D01*
X128880505Y-61469057D01*
X129066547Y-61490018D01*
X129159569Y-61500499D01*
X129159572Y-61500500D01*
X129159575Y-61500500D01*
X129440428Y-61500500D01*
X129440429Y-61500499D01*
X129583055Y-61484429D01*
X129719494Y-61469057D01*
X129719499Y-61469056D01*
X129719509Y-61469055D01*
X129993318Y-61406560D01*
X130258408Y-61313801D01*
X130511445Y-61191945D01*
X130749248Y-61042523D01*
X130968825Y-60867416D01*
X131167416Y-60668825D01*
X131342523Y-60449248D01*
X131491945Y-60211445D01*
X131613801Y-59958408D01*
X131706560Y-59693318D01*
X131769055Y-59419509D01*
X131771310Y-59399500D01*
X131788748Y-59244726D01*
X131800500Y-59140425D01*
X131800500Y-57767103D01*
X131820185Y-57700064D01*
X131836819Y-57679422D01*
X132000562Y-57515679D01*
X132169515Y-57346725D01*
X132230836Y-57313242D01*
X132300527Y-57318226D01*
X132356461Y-57360097D01*
X132380878Y-57425562D01*
X132380485Y-57447651D01*
X132380000Y-57452160D01*
X132380000Y-58750000D01*
X133660936Y-58750000D01*
X133649207Y-58778316D01*
X133620000Y-58925147D01*
X133620000Y-59074853D01*
X133649207Y-59221684D01*
X133660936Y-59250000D01*
X132380000Y-59250000D01*
X132380000Y-60547844D01*
X132386401Y-60607372D01*
X132386403Y-60607379D01*
X132436645Y-60742086D01*
X132436649Y-60742093D01*
X132522809Y-60857187D01*
X132522812Y-60857190D01*
X132637906Y-60943350D01*
X132637913Y-60943354D01*
X132772620Y-60993596D01*
X132772627Y-60993598D01*
X132832155Y-60999999D01*
X132832172Y-61000000D01*
X134130000Y-61000000D01*
X134130000Y-59719064D01*
X134158316Y-59730793D01*
X134305147Y-59760000D01*
X134454853Y-59760000D01*
X134601684Y-59730793D01*
X134630000Y-59719064D01*
X134630000Y-61000000D01*
X135927828Y-61000000D01*
X135927844Y-60999999D01*
X135987372Y-60993598D01*
X135987379Y-60993596D01*
X136122086Y-60943354D01*
X136122093Y-60943350D01*
X136237187Y-60857190D01*
X136237190Y-60857187D01*
X136323350Y-60742093D01*
X136323354Y-60742086D01*
X136373596Y-60607379D01*
X136373598Y-60607372D01*
X136379999Y-60547844D01*
X136380000Y-60547827D01*
X136380000Y-59250000D01*
X135099064Y-59250000D01*
X135110793Y-59221684D01*
X135140000Y-59074853D01*
X135140000Y-58925147D01*
X135110793Y-58778316D01*
X135099064Y-58750000D01*
X136380000Y-58750000D01*
X136380000Y-57452172D01*
X136379999Y-57452155D01*
X136373598Y-57392627D01*
X136373597Y-57392623D01*
X136353162Y-57337834D01*
X136348178Y-57268142D01*
X136381663Y-57206819D01*
X136442986Y-57173334D01*
X136469344Y-57170500D01*
X141950428Y-57170500D01*
X141950429Y-57170499D01*
X142093055Y-57154429D01*
X142229494Y-57139057D01*
X142229499Y-57139056D01*
X142229509Y-57139055D01*
X142503318Y-57076560D01*
X142768408Y-56983801D01*
X143021445Y-56861945D01*
X143259248Y-56712523D01*
X143478825Y-56537416D01*
X143677416Y-56338825D01*
X143852523Y-56119248D01*
X144001945Y-55881445D01*
X144123801Y-55628408D01*
X144216560Y-55363318D01*
X144279055Y-55089509D01*
X144310500Y-54810425D01*
X144310500Y-54529575D01*
X144279055Y-54250491D01*
X144216560Y-53976682D01*
X144123801Y-53711592D01*
X144001945Y-53458555D01*
X143852523Y-53220752D01*
X143677416Y-53001175D01*
X143478825Y-52802584D01*
X143259248Y-52627477D01*
X143021445Y-52478055D01*
X143021442Y-52478053D01*
X142768411Y-52356200D01*
X142503329Y-52263443D01*
X142503317Y-52263439D01*
X142229512Y-52200945D01*
X142229494Y-52200942D01*
X141950431Y-52169500D01*
X141950425Y-52169500D01*
X131450425Y-52169500D01*
X131169575Y-52169500D01*
X131169568Y-52169500D01*
X130890505Y-52200942D01*
X130890487Y-52200945D01*
X130616682Y-52263439D01*
X130616670Y-52263443D01*
X130351588Y-52356200D01*
X130098557Y-52478053D01*
X129860753Y-52627476D01*
X129641175Y-52802583D01*
X127432583Y-55011175D01*
X127257476Y-55230753D01*
X127108053Y-55468557D01*
X126986200Y-55721588D01*
X126893443Y-55986670D01*
X126893439Y-55986682D01*
X126830945Y-56260487D01*
X126830942Y-56260505D01*
X126799500Y-56539568D01*
X122568399Y-56539568D01*
X122575851Y-56530366D01*
X122775682Y-56222652D01*
X122942255Y-55895736D01*
X123073742Y-55553199D01*
X123168705Y-55198794D01*
X123226102Y-54836404D01*
X123245304Y-54470000D01*
X123226102Y-54103596D01*
X123168705Y-53741206D01*
X123073742Y-53386801D01*
X122942255Y-53044264D01*
X122775682Y-52717348D01*
X122775679Y-52717343D01*
X122575852Y-52409635D01*
X122353047Y-52134494D01*
X122344949Y-52124494D01*
X122085506Y-51865051D01*
X121812715Y-51644149D01*
X121800364Y-51634147D01*
X121492656Y-51434320D01*
X121162843Y-51266271D01*
X121163205Y-51265560D01*
X121112582Y-51222537D01*
X121092255Y-51155690D01*
X121111295Y-51088465D01*
X121163657Y-51042205D01*
X121216249Y-51030500D01*
X171359316Y-51030500D01*
X171426355Y-51050185D01*
G37*
%TD.AperFunction*%
%TD*%
M02*
