%TF.GenerationSoftware,KiCad,Pcbnew,8.0.4*%
%TF.CreationDate,2024-11-13T12:07:51+05:30*%
%TF.ProjectId,cccccccc,63636363-6363-4636-932e-6b696361645f,rev?*%
%TF.SameCoordinates,Original*%
%TF.FileFunction,Soldermask,Top*%
%TF.FilePolarity,Negative*%
%FSLAX46Y46*%
G04 Gerber Fmt 4.6, Leading zero omitted, Abs format (unit mm)*
G04 Created by KiCad (PCBNEW 8.0.4) date 2024-11-13 12:07:51*
%MOMM*%
%LPD*%
G01*
G04 APERTURE LIST*
G04 Aperture macros list*
%AMRoundRect*
0 Rectangle with rounded corners*
0 $1 Rounding radius*
0 $2 $3 $4 $5 $6 $7 $8 $9 X,Y pos of 4 corners*
0 Add a 4 corners polygon primitive as box body*
4,1,4,$2,$3,$4,$5,$6,$7,$8,$9,$2,$3,0*
0 Add four circle primitives for the rounded corners*
1,1,$1+$1,$2,$3*
1,1,$1+$1,$4,$5*
1,1,$1+$1,$6,$7*
1,1,$1+$1,$8,$9*
0 Add four rect primitives between the rounded corners*
20,1,$1+$1,$2,$3,$4,$5,0*
20,1,$1+$1,$4,$5,$6,$7,0*
20,1,$1+$1,$6,$7,$8,$9,0*
20,1,$1+$1,$8,$9,$2,$3,0*%
G04 Aperture macros list end*
%ADD10R,2.000000X2.000000*%
%ADD11R,1.800000X1.800000*%
%ADD12C,1.800000*%
%ADD13R,3.000000X3.000000*%
%ADD14C,3.000000*%
%ADD15RoundRect,0.250000X-0.312500X-0.625000X0.312500X-0.625000X0.312500X0.625000X-0.312500X0.625000X0*%
%ADD16RoundRect,0.150000X-0.825000X-0.150000X0.825000X-0.150000X0.825000X0.150000X-0.825000X0.150000X0*%
%ADD17RoundRect,0.250000X0.625000X-0.312500X0.625000X0.312500X-0.625000X0.312500X-0.625000X-0.312500X0*%
%ADD18C,2.500000*%
%ADD19RoundRect,0.250000X-0.600000X-0.725000X0.600000X-0.725000X0.600000X0.725000X-0.600000X0.725000X0*%
%ADD20O,1.700000X1.950000*%
%ADD21R,3.200000X3.200000*%
%ADD22O,3.200000X3.200000*%
%ADD23R,1.600000X1.600000*%
%ADD24O,1.600000X1.600000*%
%ADD25R,1.500000X1.050000*%
%ADD26O,1.500000X1.050000*%
%ADD27R,1.700000X1.700000*%
%ADD28O,1.700000X1.700000*%
G04 APERTURE END LIST*
D10*
%TO.C,U1*%
X168795000Y-97795000D03*
X168795000Y-79795000D03*
X128795000Y-97795000D03*
X128795000Y-79795000D03*
%TD*%
D11*
%TO.C,power*%
X120150000Y-63340000D03*
D12*
X120150000Y-60800000D03*
%TD*%
D11*
%TO.C,RL_S/g*%
X120150000Y-70840000D03*
D12*
X120150000Y-68300000D03*
%TD*%
D13*
%TO.C,Output_16v1*%
X134380000Y-59000000D03*
D14*
X129300000Y-59000000D03*
%TD*%
D15*
%TO.C,R2*%
X135910000Y-76070000D03*
X138835000Y-76070000D03*
%TD*%
D16*
%TO.C,U2*%
X161885000Y-63720000D03*
X161885000Y-64990000D03*
X161885000Y-66260000D03*
X161885000Y-67530000D03*
X166835000Y-67530000D03*
X166835000Y-66260000D03*
X166835000Y-64990000D03*
X166835000Y-63720000D03*
%TD*%
D15*
%TO.C,R1*%
X135840000Y-72700000D03*
X138765000Y-72700000D03*
%TD*%
D17*
%TO.C,R3*%
X148292500Y-75762500D03*
X148292500Y-72837500D03*
%TD*%
D14*
%TO.C,K1*%
X155960000Y-60720000D03*
D18*
X154010000Y-54670000D03*
D14*
X141810000Y-54670000D03*
X141760000Y-66720000D03*
D18*
X154010000Y-66670000D03*
%TD*%
D19*
%TO.C,IR_sensor1*%
X161100000Y-56630000D03*
D20*
X163600000Y-56630000D03*
X166100000Y-56630000D03*
%TD*%
D21*
%TO.C,D1*%
X166490000Y-73540000D03*
D22*
X153790000Y-73540000D03*
%TD*%
D23*
%TO.C,U3*%
X127080000Y-66975000D03*
D24*
X127080000Y-69515000D03*
X134700000Y-69515000D03*
X134700000Y-66975000D03*
%TD*%
D25*
%TO.C,Q1*%
X143482500Y-75390000D03*
D26*
X143482500Y-74120000D03*
X143482500Y-72850000D03*
%TD*%
D27*
%TO.C,J1*%
X172550000Y-61725000D03*
D28*
X172550000Y-64265000D03*
X172550000Y-66805000D03*
X172550000Y-69345000D03*
X172550000Y-71885000D03*
X172550000Y-74425000D03*
X172550000Y-76965000D03*
X172550000Y-79505000D03*
%TD*%
D13*
%TO.C,V_input1*%
X122810000Y-85260000D03*
D14*
X122810000Y-90340000D03*
%TD*%
M02*
